G04*
G04 #@! TF.GenerationSoftware,Altium Limited,Altium Designer,25.4.2 (15)*
G04*
G04 Layer_Physical_Order=4*
G04 Layer_Color=16711680*
%FSLAX25Y25*%
%MOIN*%
G70*
G04*
G04 #@! TF.SameCoordinates,4CCD4F96-9612-4F4B-9C4D-890E15692DA9*
G04*
G04*
G04 #@! TF.FilePolarity,Positive*
G04*
G01*
G75*
%ADD13C,0.01000*%
%ADD21R,0.01500X0.03000*%
%ADD44R,0.05315X0.16535*%
G04:AMPARAMS|DCode=114|XSize=39.37mil|YSize=70.87mil|CornerRadius=19.68mil|HoleSize=0mil|Usage=FLASHONLY|Rotation=90.000|XOffset=0mil|YOffset=0mil|HoleType=Round|Shape=RoundedRectangle|*
%AMROUNDEDRECTD114*
21,1,0.03937,0.03150,0,0,90.0*
21,1,0.00000,0.07087,0,0,90.0*
1,1,0.03937,0.01575,0.00000*
1,1,0.03937,0.01575,0.00000*
1,1,0.03937,-0.01575,0.00000*
1,1,0.03937,-0.01575,0.00000*
%
%ADD114ROUNDEDRECTD114*%
G04:AMPARAMS|DCode=115|XSize=39.37mil|YSize=86.61mil|CornerRadius=19.68mil|HoleSize=0mil|Usage=FLASHONLY|Rotation=90.000|XOffset=0mil|YOffset=0mil|HoleType=Round|Shape=RoundedRectangle|*
%AMROUNDEDRECTD115*
21,1,0.03937,0.04724,0,0,90.0*
21,1,0.00000,0.08661,0,0,90.0*
1,1,0.03937,0.02362,0.00000*
1,1,0.03937,0.02362,0.00000*
1,1,0.03937,-0.02362,0.00000*
1,1,0.03937,-0.02362,0.00000*
%
%ADD115ROUNDEDRECTD115*%
%ADD119C,0.02000*%
%ADD126C,0.02000*%
%ADD127C,0.01500*%
%ADD128C,0.00886*%
%ADD131C,0.01120*%
%ADD132O,0.07874X0.11811*%
%ADD133C,0.01500*%
%ADD134C,0.01000*%
%ADD135C,0.01200*%
%ADD136C,0.01968*%
%ADD137C,0.01600*%
%ADD138C,0.12000*%
%ADD144R,0.02067X0.36516*%
D13*
X508000Y340000D02*
Y391900D01*
Y340000D02*
X517100Y330900D01*
X522835Y471153D02*
X525747D01*
X530500Y466400D01*
X452200Y370700D02*
X487700D01*
X452000Y355000D02*
Y359020D01*
X454000Y367500D02*
X488000D01*
X455000Y359000D02*
X490500D01*
X452000Y359020D02*
X454780Y361800D01*
X448000Y357000D02*
X455700Y364700D01*
X454780Y361800D02*
X489600D01*
X444500Y358000D02*
X454000Y367500D01*
X455700Y364700D02*
X489200D01*
X442000Y360500D02*
X452200Y370700D01*
X497900Y390700D02*
X503700Y384900D01*
X490500Y359000D02*
X496500Y365000D01*
X489600Y361800D02*
X495100Y367300D01*
X489200Y364700D02*
X493700Y369200D01*
X488000Y367500D02*
X492300Y371800D01*
X487700Y370700D02*
X490900Y373900D01*
X486920Y379800D02*
X487200D01*
X496500Y365000D02*
Y418000D01*
X495100Y367300D02*
Y417323D01*
X493700Y369200D02*
Y416200D01*
X492300Y371800D02*
Y414116D01*
X497900Y390700D02*
Y422000D01*
X499400Y393600D02*
Y425200D01*
X487400Y390400D02*
Y390816D01*
X490900Y373900D02*
Y408764D01*
X489100Y391700D02*
Y392900D01*
X489465Y410200D02*
X490900Y408764D01*
X488800Y410200D02*
X489465D01*
X491923Y420500D02*
X495100Y417323D01*
X490400Y420500D02*
X491923D01*
X490616Y415800D02*
X492300Y414116D01*
X490400Y415800D02*
X490616D01*
X491700Y418200D02*
X493700Y416200D01*
X491700Y422800D02*
X496500Y418000D01*
X490400Y418200D02*
X491700D01*
X424070Y442650D02*
X486920Y379800D01*
X449171Y447000D02*
X489035Y407135D01*
X417500Y452800D02*
X485700Y384600D01*
X419500Y454800D02*
X485700Y388600D01*
X421500Y456716D02*
X487400Y390816D01*
X423500Y458500D02*
X489100Y392900D01*
X423526Y442650D02*
X424070D01*
X441700Y446900D02*
X441800Y447000D01*
X449171D01*
X467600Y464900D02*
X507238Y425262D01*
X417500Y452800D02*
Y453500D01*
X419500Y454800D02*
Y455284D01*
X490400Y422800D02*
X491700D01*
X489400Y430500D02*
X497900Y422000D01*
X476000Y432300D02*
X492300D01*
X499400Y425200D01*
X473800Y430500D02*
X489400D01*
X468816Y466684D02*
X508738Y426762D01*
X499400Y393600D02*
X505800Y387200D01*
X489400Y472400D02*
X519900Y441900D01*
X530900Y404200D02*
X536200D01*
X530802Y404298D02*
X530900Y404200D01*
X533400Y406300D02*
X550500Y423400D01*
X532200Y406300D02*
X533400D01*
X530800Y408300D02*
X548300Y425800D01*
X504991Y418500D02*
X535900D01*
X506023Y420477D02*
X531477D01*
X535900Y418500D02*
X546000Y428600D01*
X531477Y420477D02*
X541500Y430500D01*
X519900Y435400D02*
Y441900D01*
X541500Y430500D02*
Y470500D01*
X530500Y444000D02*
X530600Y443900D01*
X530500Y444000D02*
Y466400D01*
X536200Y404200D02*
X553300Y421300D01*
X548300Y425800D02*
Y429000D01*
X550500Y423400D02*
Y434100D01*
X553300Y421300D02*
Y438900D01*
X546000Y428600D02*
Y468000D01*
X564500Y392100D02*
Y465800D01*
X566700Y404000D02*
Y465800D01*
Y404000D02*
X566800Y403900D01*
X505800Y383800D02*
Y387200D01*
X507000Y422500D02*
X519900Y435400D01*
X506000Y420500D02*
X506023Y420477D01*
X541500Y470500D02*
X545500Y474500D01*
X551500D01*
X296800Y473200D02*
X298300Y474700D01*
X296800Y459300D02*
Y473200D01*
X314000Y473500D02*
X322600Y464900D01*
X351100Y472400D02*
X489400D01*
X407400Y447500D02*
X420700Y460800D01*
X305100Y474700D02*
X305200Y474600D01*
X298300Y474700D02*
X305100D01*
X338000Y471012D02*
Y478500D01*
X328000Y469600D02*
Y480500D01*
X314000Y473500D02*
Y492500D01*
X329500Y482200D02*
Y485700D01*
X323961Y491239D02*
X329500Y485700D01*
X322600Y464900D02*
X467600D01*
X338500Y470512D02*
X486488D01*
X338000Y471012D02*
X338500Y470512D01*
X340500Y468500D02*
X483500D01*
X326500Y466684D02*
X468816D01*
X338000Y470512D02*
X338500D01*
X329100Y468500D02*
X340500D01*
X328000Y469600D02*
X329100Y468500D01*
X330000Y470500D02*
X337988D01*
X338000Y470512D01*
X329000Y494500D02*
X351100Y472400D01*
X483500Y468500D02*
X511000Y441000D01*
X486488Y470512D02*
X516000Y441000D01*
X514000Y384300D02*
X514200Y384500D01*
X511600Y376600D02*
Y384500D01*
X514000Y379500D02*
Y384300D01*
X522900Y338500D02*
X530500Y330900D01*
X522900Y338500D02*
Y357300D01*
X514000Y379500D02*
X548000Y345500D01*
X511600Y376600D02*
X538000Y350200D01*
X548000Y311966D02*
Y345500D01*
X538000Y311811D02*
Y350200D01*
X444500Y349000D02*
Y358000D01*
X442000Y347000D02*
Y360500D01*
X411100Y426800D02*
X415800D01*
X407400Y430500D02*
X411100Y426800D01*
X407400Y430500D02*
Y447500D01*
D21*
X296800Y459300D02*
D03*
D44*
X379378Y304287D02*
D03*
X401622D02*
D03*
Y491213D02*
D03*
X379378D02*
D03*
D114*
X573864Y413957D02*
D03*
Y379941D02*
D03*
D115*
X589612Y413957D02*
D03*
Y379941D02*
D03*
D119*
X296800Y425442D02*
D03*
D126*
X456806Y373884D02*
X482916D01*
X457876Y376284D02*
X484716D01*
X457616Y376468D02*
X457876D01*
X445690Y385000D02*
X456806Y373884D01*
X440542Y393542D02*
X457616Y376468D01*
X437584Y396500D02*
X440542Y393542D01*
X446000Y399000D01*
Y410800D01*
X482916Y373884D02*
X483100Y373700D01*
X484716Y376284D02*
X485700Y375300D01*
X502100Y411000D02*
X502102Y411002D01*
X449500Y441200D02*
X463000Y427700D01*
X445900Y441200D02*
X449500D01*
X522324Y385548D02*
X533900D01*
X521152Y386719D02*
X522324Y385548D01*
X533900D02*
Y395400D01*
X539100Y400600D01*
X521152Y386719D02*
Y411002D01*
Y415352D01*
X554500Y388049D02*
Y406400D01*
X554549Y406449D01*
X557749D01*
X539100Y400600D02*
X556800Y418300D01*
Y443900D01*
Y455500D01*
X561300Y406500D02*
Y479541D01*
X561500Y387700D02*
X562000Y387200D01*
X557900Y387700D02*
X561500D01*
X502102Y411002D02*
X521152D01*
X554749Y387649D02*
X557849D01*
X554500Y388049D02*
X554749Y387800D01*
X544132Y479200D02*
X554700D01*
X544031Y479300D02*
X544132Y479200D01*
X554700D02*
X556800Y477100D01*
X561300Y479541D02*
X564980Y483220D01*
X556800Y455500D02*
Y477100D01*
X301400Y471000D02*
X309700Y462700D01*
X399500Y444800D02*
X401489D01*
X401500Y444811D01*
X403489D02*
X404851Y443449D01*
X399500Y444800D02*
Y457700D01*
X401500Y444811D02*
X403489D01*
X399500Y457700D02*
X402800Y461000D01*
X417000D01*
X347800Y462700D02*
X347916Y462816D01*
X359884D01*
X309700Y462700D02*
X347800D01*
X485000Y340400D02*
X488400Y337000D01*
X422575Y332975D02*
X426400D01*
X411650Y343900D02*
X422575Y332975D01*
X378800Y343900D02*
X405300D01*
X411650D01*
X488400Y337000D02*
X492800D01*
X533900Y373800D02*
Y385548D01*
X562100Y359400D02*
Y363100D01*
X562000Y369800D02*
Y387200D01*
Y363200D02*
Y369800D01*
Y363200D02*
X562100Y363100D01*
X582500Y337300D02*
Y341100D01*
X578400Y369800D02*
X582500Y365700D01*
X557749Y406449D02*
X561351D01*
X582500Y341100D02*
Y345100D01*
Y349700D01*
Y365700D01*
X562000Y369800D02*
X578400D01*
X385600Y405800D02*
X394900Y396500D01*
X399100Y385000D02*
X445690D01*
X394900Y396500D02*
X437584D01*
X359884Y462816D02*
X385600Y437100D01*
X378600Y343700D02*
X378800Y343900D01*
X380500Y322800D02*
X398400D01*
X462300Y340400D02*
X485000D01*
X458200D02*
X462300D01*
X404851Y406049D02*
Y443449D01*
X385600Y405800D02*
Y437100D01*
D127*
X379378Y479622D02*
Y491213D01*
X401622Y479778D02*
Y491213D01*
X379378Y304287D02*
Y315678D01*
X379400Y315700D01*
X401622Y304287D02*
Y315578D01*
X401600Y315600D02*
X401622Y315578D01*
D128*
X358700Y332657D02*
Y332688D01*
X358234Y333154D02*
X358700Y332688D01*
X358234Y333154D02*
Y333281D01*
X359962Y333919D02*
Y333938D01*
X356908Y334608D02*
X358234Y333281D01*
X358594Y335306D02*
X359962Y333938D01*
X358594Y335306D02*
Y347334D01*
X356908Y334608D02*
Y348032D01*
X369845Y360969D01*
X358594Y347334D02*
X370543Y359283D01*
X420018Y359186D02*
X420040Y359208D01*
X419938Y359186D02*
X420018D01*
X394898Y359171D02*
X419923D01*
X419938Y359186D01*
X370543Y359283D02*
X394786D01*
X369845Y360969D02*
X395484D01*
X394786Y359283D02*
X394898Y359171D01*
X395597Y360857D02*
X419225D01*
X395484Y360969D02*
X395597Y360857D01*
X419225D02*
X419346Y360978D01*
X419778D01*
X419800Y361000D01*
D131*
X558032Y394047D02*
Y397969D01*
X561000Y396000D02*
Y400000D01*
X558000Y394016D02*
X558032Y394047D01*
D132*
X449200Y312400D02*
D03*
X469200D02*
D03*
X459200D02*
D03*
X558200D02*
D03*
X538200D02*
D03*
X548200D02*
D03*
D133*
X554900Y409600D02*
D03*
X551900D02*
D03*
X557800Y409547D02*
D03*
X564625Y384300D02*
D03*
X557700D02*
D03*
X554400D02*
D03*
X542913Y381102D02*
D03*
X590158Y326772D02*
D03*
X342000Y494600D02*
D03*
X335000Y494500D02*
D03*
X425500Y487100D02*
D03*
X301400Y465000D02*
D03*
X411047Y484247D02*
D03*
X409500Y476284D02*
D03*
X401622Y479778D02*
D03*
X379378Y479622D02*
D03*
X504000Y368700D02*
D03*
X407858Y315942D02*
D03*
X417629Y327429D02*
D03*
X432500Y341900D02*
D03*
X363500Y323600D02*
D03*
X415000Y345300D02*
D03*
X394571Y315671D02*
D03*
X363500Y344300D02*
D03*
X445000Y336600D02*
D03*
X576500Y434400D02*
D03*
X561351Y406449D02*
D03*
X561500Y387700D02*
D03*
X557849Y387649D02*
D03*
X539800Y391000D02*
D03*
X549968Y365868D02*
D03*
X554749Y387649D02*
D03*
X565580Y328220D02*
D03*
X568400Y349700D02*
D03*
X576968Y366032D02*
D03*
X571800Y361000D02*
D03*
X557749Y406449D02*
D03*
X550100Y406000D02*
D03*
X554500Y406400D02*
D03*
X551584Y461000D02*
D03*
X442100Y377600D02*
D03*
X443200Y375100D02*
D03*
X438547Y459253D02*
D03*
X442300Y450700D02*
D03*
X450149Y434851D02*
D03*
X459200Y352000D02*
D03*
X427390Y406190D02*
D03*
X440016Y417516D02*
D03*
X432600Y416500D02*
D03*
X420390Y415490D02*
D03*
X413890Y407790D02*
D03*
X394190Y412610D02*
D03*
X395987Y452187D02*
D03*
X403000Y456000D02*
D03*
X410400Y381100D02*
D03*
X370252Y365148D02*
D03*
X409300Y419000D02*
D03*
X398300Y425500D02*
D03*
X394490Y420110D02*
D03*
X400000Y356000D02*
D03*
D134*
X516142Y359842D02*
D03*
X517100Y330900D02*
D03*
X522835Y471153D02*
D03*
X502756Y308661D02*
D03*
X503051Y493701D02*
D03*
X323961Y491239D02*
D03*
X329000Y494500D02*
D03*
X314000Y492500D02*
D03*
X318600Y475300D02*
D03*
X329500Y482200D02*
D03*
X326500Y466684D02*
D03*
X313000Y468400D02*
D03*
X338000Y478500D02*
D03*
X340500Y468500D02*
D03*
X330000Y470500D02*
D03*
X305200Y474600D02*
D03*
X328000Y480500D02*
D03*
X387400Y476900D02*
D03*
X395200Y476800D02*
D03*
X485600Y426500D02*
D03*
X461800Y398400D02*
D03*
X464000Y391000D02*
D03*
X485700Y388600D02*
D03*
X487400Y390400D02*
D03*
X473800Y430500D02*
D03*
X464200Y383600D02*
D03*
X476000Y432300D02*
D03*
X470900Y418800D02*
D03*
X485700Y384600D02*
D03*
X487200Y379800D02*
D03*
X488800Y410200D02*
D03*
X490400Y418200D02*
D03*
Y415800D02*
D03*
X502100Y411000D02*
D03*
X504991Y418500D02*
D03*
X516000Y441000D02*
D03*
X511000D02*
D03*
X490400Y422800D02*
D03*
Y420500D02*
D03*
X506000D02*
D03*
X508738Y426762D02*
D03*
X507238Y425262D02*
D03*
X507000Y422500D02*
D03*
X503700Y384900D02*
D03*
X510865Y406500D02*
D03*
X514200Y384500D02*
D03*
X489035Y407135D02*
D03*
X501224Y396800D02*
D03*
X505800Y383800D02*
D03*
X505988Y401624D02*
D03*
X501224Y406400D02*
D03*
X489100Y391700D02*
D03*
X510900Y396712D02*
D03*
X511600Y384500D02*
D03*
X508000Y391900D02*
D03*
X551500Y474500D02*
D03*
X546000Y468000D02*
D03*
X566500Y477000D02*
D03*
X564500Y465800D02*
D03*
X566700D02*
D03*
X557200Y482300D02*
D03*
X544031Y479300D02*
D03*
X359962Y333919D02*
D03*
X379400Y315700D02*
D03*
X385700Y315800D02*
D03*
X401600Y315600D02*
D03*
X442000Y347000D02*
D03*
X358700Y332657D02*
D03*
X530500Y330900D02*
D03*
X522900Y357300D02*
D03*
X566800Y403900D02*
D03*
X564500Y392100D02*
D03*
X558000Y394016D02*
D03*
X561000Y400000D02*
D03*
X558032Y397969D02*
D03*
X561000Y396000D02*
D03*
X530800Y408300D02*
D03*
X530802Y404298D02*
D03*
X532200Y406300D02*
D03*
X550500Y434100D02*
D03*
X548300Y429000D02*
D03*
X553300Y438900D02*
D03*
X530600Y443900D02*
D03*
X556800D02*
D03*
X520800Y432300D02*
D03*
X556800Y455500D02*
D03*
X420040Y359208D02*
D03*
X419800Y361000D02*
D03*
X448000Y357000D02*
D03*
X444500Y349000D02*
D03*
X420700Y460800D02*
D03*
X421500Y456716D02*
D03*
X423500Y458500D02*
D03*
X441700Y446900D02*
D03*
X455000Y359000D02*
D03*
X452000Y355000D02*
D03*
X423526Y442650D02*
D03*
X419500Y455284D02*
D03*
X417500Y453500D02*
D03*
X415800Y426800D02*
D03*
D135*
X441000Y306000D02*
D03*
X363000Y378000D02*
D03*
X390000Y444000D02*
D03*
X450000Y492000D02*
D03*
X405000Y390000D02*
D03*
X531000Y486000D02*
D03*
X462000Y336000D02*
D03*
X528000Y312000D02*
D03*
X423000Y342000D02*
D03*
X501000D02*
D03*
X468000Y480000D02*
D03*
X576000Y468000D02*
D03*
X462000Y480000D02*
D03*
X432000Y492000D02*
D03*
X552000Y396000D02*
D03*
X576000Y480000D02*
D03*
X360000Y408000D02*
D03*
X405000Y402000D02*
D03*
X360000Y372000D02*
D03*
X570000Y300000D02*
D03*
X453000Y450000D02*
D03*
X573000D02*
D03*
X384000Y396000D02*
D03*
X363000Y390000D02*
D03*
X477000Y462000D02*
D03*
X570000Y312000D02*
D03*
X552000Y444000D02*
D03*
X465000Y486000D02*
D03*
X372000Y444000D02*
D03*
X492000Y456000D02*
D03*
X519000Y462000D02*
D03*
X579000Y474000D02*
D03*
X573000Y462000D02*
D03*
X480000Y324000D02*
D03*
X381000Y390000D02*
D03*
X489000Y414000D02*
D03*
X591000Y462000D02*
D03*
X579000Y306000D02*
D03*
X477000Y486000D02*
D03*
Y450000D02*
D03*
X588000Y456000D02*
D03*
X462000Y492000D02*
D03*
X573000Y486000D02*
D03*
X546000Y300000D02*
D03*
X513000Y474000D02*
D03*
X468000Y300000D02*
D03*
X450000Y456000D02*
D03*
X393000Y402000D02*
D03*
X372000Y408000D02*
D03*
X450000Y324000D02*
D03*
X429000Y306000D02*
D03*
X462000Y444000D02*
D03*
X537000Y474000D02*
D03*
X591000D02*
D03*
X459000Y462000D02*
D03*
X546000Y492000D02*
D03*
X495000Y354000D02*
D03*
X456000Y300000D02*
D03*
X483000Y330000D02*
D03*
X372000Y420000D02*
D03*
X363000Y450000D02*
D03*
X528000Y480000D02*
D03*
X513000Y342000D02*
D03*
X585000Y450000D02*
D03*
X516000Y468000D02*
D03*
X591000Y450000D02*
D03*
X462000Y456000D02*
D03*
X363000Y306000D02*
D03*
X561000Y402000D02*
D03*
X552000Y492000D02*
D03*
X462000Y300000D02*
D03*
X510000Y360000D02*
D03*
X582000Y456000D02*
D03*
X366000Y372000D02*
D03*
X531000Y318000D02*
D03*
X543000Y342000D02*
D03*
X417000Y366000D02*
D03*
X489000Y354000D02*
D03*
X579000Y462000D02*
D03*
X513000D02*
D03*
X489000Y330000D02*
D03*
X444000Y324000D02*
D03*
X531000Y474000D02*
D03*
X456000Y456000D02*
D03*
X411000Y366000D02*
D03*
X381000Y402000D02*
D03*
X375000Y414000D02*
D03*
X369000Y426000D02*
D03*
X510000Y300000D02*
D03*
X384000Y444000D02*
D03*
X372000Y324000D02*
D03*
X360000Y312000D02*
D03*
X369000Y414000D02*
D03*
X456000Y492000D02*
D03*
X399000Y402000D02*
D03*
X381000Y438000D02*
D03*
X444000Y300000D02*
D03*
X378000Y432000D02*
D03*
X585000Y342000D02*
D03*
Y474000D02*
D03*
X474000Y444000D02*
D03*
X450000Y300000D02*
D03*
X369000Y486000D02*
D03*
X522000Y444000D02*
D03*
X465000Y450000D02*
D03*
X453000Y462000D02*
D03*
X456000Y480000D02*
D03*
X384000Y372000D02*
D03*
X456000Y444000D02*
D03*
X537000Y366000D02*
D03*
X471000Y438000D02*
D03*
X576000Y300000D02*
D03*
X465000Y426000D02*
D03*
X378000Y384000D02*
D03*
X483000Y462000D02*
D03*
X372000Y456000D02*
D03*
X588000Y468000D02*
D03*
X471000Y354000D02*
D03*
X426000Y348000D02*
D03*
X372000Y396000D02*
D03*
X507000Y462000D02*
D03*
X543000Y330000D02*
D03*
X396000Y384000D02*
D03*
X534000Y492000D02*
D03*
X438000D02*
D03*
X540000Y480000D02*
D03*
X381000Y426000D02*
D03*
X369000Y318000D02*
D03*
X519000Y342000D02*
D03*
X360000Y384000D02*
D03*
X399000Y366000D02*
D03*
X393000Y390000D02*
D03*
X369000Y306000D02*
D03*
X438000Y312000D02*
D03*
X474000Y336000D02*
D03*
X375000Y390000D02*
D03*
X474000Y480000D02*
D03*
X360000Y396000D02*
D03*
X573000Y474000D02*
D03*
X528000Y444000D02*
D03*
X543000Y306000D02*
D03*
X375000Y402000D02*
D03*
X474000Y300000D02*
D03*
X549000Y438000D02*
D03*
X498000Y348000D02*
D03*
X390000Y432000D02*
D03*
X363000Y438000D02*
D03*
X474000Y324000D02*
D03*
X504000Y348000D02*
D03*
X450000D02*
D03*
X540000Y492000D02*
D03*
X435000Y306000D02*
D03*
Y486000D02*
D03*
X420000Y492000D02*
D03*
X381000Y366000D02*
D03*
X375000Y438000D02*
D03*
X591000Y366000D02*
D03*
X471000Y486000D02*
D03*
X582000Y312000D02*
D03*
X459000Y486000D02*
D03*
Y330000D02*
D03*
X453000Y486000D02*
D03*
X540000Y324000D02*
D03*
X363000Y402000D02*
D03*
X468000Y444000D02*
D03*
X540000Y348000D02*
D03*
X495000Y450000D02*
D03*
X567000Y402000D02*
D03*
X585000Y366000D02*
D03*
X558000Y492000D02*
D03*
X540000Y300000D02*
D03*
X486000Y348000D02*
D03*
X450000Y480000D02*
D03*
X426000Y324000D02*
D03*
X477000Y438000D02*
D03*
X366000Y300000D02*
D03*
X378000Y396000D02*
D03*
X369000Y378000D02*
D03*
X360000Y444000D02*
D03*
X543000Y318000D02*
D03*
X480000Y444000D02*
D03*
X573000Y306000D02*
D03*
X576000Y456000D02*
D03*
X393000Y378000D02*
D03*
X372000Y432000D02*
D03*
X480000Y480000D02*
D03*
X447000Y462000D02*
D03*
X471000Y450000D02*
D03*
X366000Y444000D02*
D03*
X570000Y468000D02*
D03*
X552000Y324000D02*
D03*
X549000Y486000D02*
D03*
X381000Y450000D02*
D03*
X366000Y420000D02*
D03*
X369000Y462000D02*
D03*
X546000Y324000D02*
D03*
X465000Y438000D02*
D03*
X480000Y348000D02*
D03*
X507000Y474000D02*
D03*
X549000Y450000D02*
D03*
X375000Y426000D02*
D03*
X588000Y360000D02*
D03*
X474000Y348000D02*
D03*
X360000Y480000D02*
D03*
X486000Y456000D02*
D03*
X528000Y324000D02*
D03*
X489000Y450000D02*
D03*
X477000Y318000D02*
D03*
X495000Y474000D02*
D03*
X468000Y492000D02*
D03*
X474000D02*
D03*
X537000Y486000D02*
D03*
X441000Y330000D02*
D03*
X438000Y324000D02*
D03*
X543000Y486000D02*
D03*
X366000Y408000D02*
D03*
X534000Y468000D02*
D03*
X396000Y372000D02*
D03*
X501000Y474000D02*
D03*
X360000Y360000D02*
D03*
X483000Y354000D02*
D03*
X369000Y390000D02*
D03*
Y438000D02*
D03*
X534000Y300000D02*
D03*
X414000Y492000D02*
D03*
X360000Y300000D02*
D03*
X459000Y450000D02*
D03*
X492000Y348000D02*
D03*
X525000Y462000D02*
D03*
X393000Y366000D02*
D03*
X534000Y480000D02*
D03*
X366000Y396000D02*
D03*
X579000Y486000D02*
D03*
X570000Y456000D02*
D03*
X363000Y426000D02*
D03*
X567000Y486000D02*
D03*
X384000Y456000D02*
D03*
X552000Y300000D02*
D03*
X576000Y492000D02*
D03*
X369000Y450000D02*
D03*
X378000Y420000D02*
D03*
X366000Y432000D02*
D03*
X582000Y300000D02*
D03*
X579000Y450000D02*
D03*
X558000Y372000D02*
D03*
X369000Y402000D02*
D03*
X585000Y462000D02*
D03*
X465000D02*
D03*
X381000D02*
D03*
X477000Y354000D02*
D03*
X588000Y312000D02*
D03*
X582000Y480000D02*
D03*
X450000Y408000D02*
D03*
X531000Y342000D02*
D03*
X447000Y486000D02*
D03*
X582000Y468000D02*
D03*
X360000Y420000D02*
D03*
X501000Y438000D02*
D03*
X378000Y408000D02*
D03*
X498000Y444000D02*
D03*
X480000Y336000D02*
D03*
X438000Y480000D02*
D03*
X486000Y336000D02*
D03*
X468000Y456000D02*
D03*
X366000Y480000D02*
D03*
X378000Y348000D02*
D03*
X564000Y300000D02*
D03*
X534000Y348000D02*
D03*
X360000Y456000D02*
D03*
X489000Y342000D02*
D03*
X393000Y438000D02*
D03*
X372000Y384000D02*
D03*
X537000Y450000D02*
D03*
X363000Y414000D02*
D03*
X441000Y318000D02*
D03*
X387000Y450000D02*
D03*
X456000Y408000D02*
D03*
X516000Y456000D02*
D03*
X510000D02*
D03*
X381000Y414000D02*
D03*
X375000Y462000D02*
D03*
X381000Y354000D02*
D03*
X378000Y456000D02*
D03*
X366000Y384000D02*
D03*
X483000Y438000D02*
D03*
X534000Y324000D02*
D03*
X564000Y492000D02*
D03*
X360000Y432000D02*
D03*
X441000Y486000D02*
D03*
X399000Y390000D02*
D03*
X495000Y330000D02*
D03*
X570000Y492000D02*
D03*
X444000Y480000D02*
D03*
X384000Y384000D02*
D03*
X525000Y342000D02*
D03*
X444000Y492000D02*
D03*
X540000Y360000D02*
D03*
X366000Y312000D02*
D03*
X363000Y486000D02*
D03*
D136*
X391488Y331219D02*
D03*
X387158D02*
D03*
X391488Y335550D02*
D03*
X387158D02*
D03*
X433193Y358016D02*
D03*
X431224Y359984D02*
D03*
X435161D02*
D03*
Y356047D02*
D03*
X431224D02*
D03*
X410220Y435559D02*
D03*
Y439890D02*
D03*
Y444220D02*
D03*
X414551Y435559D02*
D03*
Y439890D02*
D03*
Y444220D02*
D03*
X418882Y435559D02*
D03*
Y439890D02*
D03*
Y444220D02*
D03*
D137*
X301400Y471000D02*
D03*
X347800Y462700D02*
D03*
X462300Y340400D02*
D03*
X463000Y427700D02*
D03*
X483100Y373700D02*
D03*
X485700Y375300D02*
D03*
X488400Y337000D02*
D03*
X492800D02*
D03*
X564980Y483220D02*
D03*
X426400Y332975D02*
D03*
X422575D02*
D03*
X380500Y322800D02*
D03*
X378600Y343700D02*
D03*
X398400Y322800D02*
D03*
X405300Y343900D02*
D03*
X458200Y340400D02*
D03*
X533900Y373800D02*
D03*
X582500Y345100D02*
D03*
Y341100D02*
D03*
Y337300D02*
D03*
X562100Y359400D02*
D03*
X562000Y363200D02*
D03*
X582500Y349700D02*
D03*
X539100Y400600D02*
D03*
X521152Y415352D02*
D03*
X417000Y461000D02*
D03*
X445900Y441200D02*
D03*
X457876Y376468D02*
D03*
X446000Y410800D02*
D03*
X404851Y406049D02*
D03*
X399500Y444800D02*
D03*
X399100Y385000D02*
D03*
D138*
X591000Y492000D02*
D03*
X244759Y492242D02*
D03*
Y304242D02*
D03*
X591000Y304000D02*
D03*
D144*
X296751Y442715D02*
D03*
M02*
