M48
;Layer_Color=9474304
;FILE_FORMAT=2:4
INCH,TZ
;TYPE=PLATED
T01F00S00C0.0060
T02F00S00C0.0079
T03F00S00C0.0080
T04F00S00C0.0118
T05F00S00C0.0120
T07F00S00C0.0472
T08F00S00C0.0880
%
T01
X50276Y30866
X45200Y35500
X44800Y35700
X45500Y35900
X44450Y34900
X44200Y34700
X42004Y35921
X41980Y36100
X40160Y31560
X38570Y31580
X37940Y31570
X35996Y33392
X35870Y33266
X41580Y42680
X42353Y44265
X42350Y45850
X42150Y45672
X41950Y45528
X41750Y45350
X42070Y46080
X44170Y44690
X46180Y39840
X46400Y39100
X46420Y38360
X34050Y46850
X32650Y46668
X31300Y46840
X47380Y43050
X47600Y43230
X48560Y42650
X49040Y42280
Y42050
Y41820
Y41580
X48880Y41020
X48904Y40714
X50122Y40640
X50210Y41100
X50499Y41850
X50600Y42050
X50700Y42250
X50724Y42526
X50874Y42676
X51100Y44100
X51600
X52080Y43230
X53060Y44390
X55680
X55330Y43890
X55050Y43410
X54830Y42900
X55680Y45550
X56450Y46580
X56670
X54600Y46800
X53080Y40830
X53220Y40630
X53080Y40430
X51086Y40650
X50599Y40162
X50122Y39680
X51090Y39671
X50800Y39190
X50580Y38380
X50370Y38490
X51160Y38450
X51420
X51614Y35984
X52290Y35730
X51710Y33090
X53050
X55800Y39402
X55803Y39797
X56100Y39600
Y40000
X56680Y40390
X56450Y39210
X48910Y39170
X48740Y39040
X48570Y38860
Y38460
X48720Y37980
X47090Y41880
X52283Y47115
X54403Y47930
X55150Y47450
X55720Y48230
X56650Y47700
X50305Y49370
X39520Y47680
X38740Y47690
X33800Y47850
X32800Y48050
X32950Y48220
X33000Y47050
X31860Y47530
X32396Y49124
X32900Y49450
X31400Y49250
X30520Y47460
T02
X38716Y33122
X39149
Y33555
X38716
X41022Y43556
Y43989
Y44422
X41455
Y43989
Y43556
X41888
Y43989
Y44422
T03
X47400Y30000
X51000
X53400
X54000
X54600
X55200
X56400
X57000
X57600
X58200
X57900Y30600
X57300
X57000Y31200
X58200
X58800
X54300Y30600
X52800Y31200
X46800Y30000
X46200
X45600
X45000
X44400
X44100Y30600
X43500
X42900
X43800Y31200
X36600
X36000
X36300Y30600
X36900
X36600Y30000
X36000
X36900Y31800
X37200Y32400
X37800Y34800
X38100Y35400
Y36600
X38400Y37200
X39600
X39900Y36600
X39300
Y37800
X39600Y38400
X39300Y39000
X39900
X40500
Y40200
X39900
X39300
X38100
X37500
X36900
X36300
X36000Y40800
X36600
X37200
X37800
X37500Y41400
X36900
X36300
X36600Y42000
X37200
X37800
X38100Y42600
X37500
X36900
X36300
X36600Y43200
X37200
X37800
X38100Y43800
X37500
X36900
X36300
X36000Y44400
X36600
X37200
X36900Y45000
X36300
X36000Y45600
X37200
X37800
X38400
X38100Y45000
X38700
X39000Y44400
X38400
X39300Y43800
X39000Y43200
X38100Y41400
X38400Y39600
X37800
X37200
X36600
X36000
X36300Y39000
X36900
X37500
X38100
X37800Y38400
X37200
X36600
X36000
X36300Y37800
X36900
X36600Y37200
X36000
Y36000
X38400Y38400
X41100Y36600
X41700
X42600Y34800
X42300Y34200
X42600Y32400
X43800
X44400
X45000
X45900Y33000
X46200Y33600
X45000Y34800
X44100Y33000
Y31800
X45000Y40800
X45600
X46500Y42600
Y43800
X46200Y44400
X45600
X45300Y45000
X45900
X46500
X46200Y45600
X45600
X45000
X45300Y46200
X45900
X46500
X46800Y45600
Y44400
X44700Y46200
X38100
X37500
X36900
X36000Y43200
Y42000
X47100Y43800
X47700
X48300
X48000Y44400
X47400
X47700Y45000
X47100
X47700Y46200
X48300
X48600Y45600
X49200
X49500Y45000
X48900
X49800Y44400
X50100Y43800
X52200Y44400
X52800
X53700Y45000
X54900
X55200Y44400
X54900Y43800
X57300Y45000
X57900
X58500
X59100
X58800Y45600
X58200
X57600
X57000
X57300Y46200
X57900
X58500
X59100
X58800Y46800
X58200
X57600
X57000
X53400
X52500Y46200
X51900
X51300
X50700
X51000Y45600
X51600
Y46800
X48900Y41400
Y35400
X49500
X49800Y34800
X50400
X50100Y34200
X51300
X51900
X52500
X53100
X53400Y34800
X54000
X54300Y34200
Y33000
X54000Y32400
X54600
X55200
X54300Y31800
X53100
X52800Y32400
X53400
X54000Y36000
X53700Y36600
X55800Y37200
X55200Y39600
X56100Y40200
X56700
X58500Y36600
X59100
X58800Y36000
X58500Y34200
X51000Y36000
X49200Y34800
X48600
X48000
X47400
X47100Y35400
X47700
X48300
X48900Y34200
X48600Y33600
X48000
X47400
Y32400
X48000
X48300Y33000
X48900
X49500
X47700Y31800
X47400Y48000
X48000
X47700Y48600
X47100
X47400Y49200
X49500Y47400
X50100
X50700
X51300
X53100
X53700
X54000Y48000
X53400
X52800
X53100Y48600
X53700
X54300
X54900
X54600Y49200
X55200
X55800
X56400
X57000
X57600
X57300Y48600
X57900
X57600Y48000
X58200
X57900Y47400
X58500
X59100
X57300
X56700Y48600
X54000Y49200
X53400
X46800
X46200
X45600
X45000
X44400
X43800
X43200
X43500Y48600
X44100
X44700
X45300
X45900
X46500
X46800Y48000
X46200
X45600
X45000
X44400
X43800
X42000Y49200
X41400
X36900Y48600
X36300
X36000Y48000
X36600
T04
X43122Y35605
X43319Y35802
X43122Y35998
X43516
Y35605
T05
X29680Y42544
X30140Y46500
X34780Y46270
X39599Y45219
X40300Y45600
X39950Y44480
X39830Y42550
X39449Y42011
X39419Y41261
X40485Y40605
X41389Y40779
X42039Y41549
X43260Y41650
X44002Y41752
X44600Y41080
X42739Y40619
X40930Y41900
X41040Y38110
X39910Y38500
X40000Y35600
X40530Y34390
X41500Y34530
X42257Y33297
X42640
X41763Y32743
X40786Y31594
X39457Y31567
X39840Y32280
X38050
X36350Y32360
Y34430
X37860Y34370
X37025Y36515
X44320Y37510
X44210Y37760
X45788Y37647
X45920Y35200
X45820Y34040
X46230
X44500Y33660
X43250Y34190
X45015Y43485
X44590Y44120
X44230Y45070
X43855Y45925
X41700Y46100
X46300Y42770
X52115Y41535
X53910Y40060
X53980Y39100
X54291Y38110
X55440Y38430
X55770
X55785Y38765
X55475
X56150Y38770
X56462Y38430
X56200Y36320
X56210Y35940
X57180Y36100
X57697Y36603
X58250Y34970
Y34510
Y34110
Y33730
X59016Y32677
X56558Y32822
X56840Y34970
X54997Y36587
X53390Y37380
X50400Y36870
X48570Y37530
X48310Y37370
X48840Y33700
X49280
X55010Y40600
X55450Y40640
X55775Y40645
X55780Y40955
X55490Y40960
X55190
X56135Y40645
X57650Y43440
X55158Y46100
X56498Y48322
X42550Y48710
X41105Y48425
X40950Y47628
X40162Y47978
X37938Y47962
X34200Y49460
X33500Y49450
X30140Y47100
T07
X46920Y31240
X53820
X54820
X55820
X45920
X44920
T08
X59100Y30400
X24476Y30424
X59100Y49200
X24476Y49224
M30
