G04*
G04 #@! TF.GenerationSoftware,Altium Limited,Altium Designer,25.4.2 (15)*
G04*
G04 Layer_Color=16711935*
%FSLAX25Y25*%
%MOIN*%
G70*
G04*
G04 #@! TF.SameCoordinates,4CCD4F96-9612-4F4B-9C4D-890E15692DA9*
G04*
G04*
G04 #@! TF.FilePolarity,Negative*
G04*
G01*
G75*
%ADD44R,0.05315X0.16535*%
%ADD81R,0.02300X0.03800*%
G04:AMPARAMS|DCode=114|XSize=39.37mil|YSize=70.87mil|CornerRadius=19.68mil|HoleSize=0mil|Usage=FLASHONLY|Rotation=90.000|XOffset=0mil|YOffset=0mil|HoleType=Round|Shape=RoundedRectangle|*
%AMROUNDEDRECTD114*
21,1,0.03937,0.03150,0,0,90.0*
21,1,0.00000,0.07087,0,0,90.0*
1,1,0.03937,0.01575,0.00000*
1,1,0.03937,0.01575,0.00000*
1,1,0.03937,-0.01575,0.00000*
1,1,0.03937,-0.01575,0.00000*
%
%ADD114ROUNDEDRECTD114*%
G04:AMPARAMS|DCode=115|XSize=39.37mil|YSize=86.61mil|CornerRadius=19.68mil|HoleSize=0mil|Usage=FLASHONLY|Rotation=90.000|XOffset=0mil|YOffset=0mil|HoleType=Round|Shape=RoundedRectangle|*
%AMROUNDEDRECTD115*
21,1,0.03937,0.04724,0,0,90.0*
21,1,0.00000,0.08661,0,0,90.0*
1,1,0.03937,0.02362,0.00000*
1,1,0.03937,0.02362,0.00000*
1,1,0.03937,-0.02362,0.00000*
1,1,0.03937,-0.02362,0.00000*
%
%ADD115ROUNDEDRECTD115*%
%ADD116O,0.08674X0.12611*%
%ADD117C,0.02300*%
%ADD118C,0.01800*%
%ADD119C,0.02000*%
%ADD120C,0.02800*%
%ADD121C,0.02769*%
%ADD122C,0.02400*%
%ADD123C,0.12800*%
D44*
X379378Y304287D02*
D03*
X401622D02*
D03*
Y491213D02*
D03*
X379378D02*
D03*
D81*
X296800Y459300D02*
D03*
D114*
X573864Y413957D02*
D03*
Y379941D02*
D03*
D115*
X589612Y413957D02*
D03*
Y379941D02*
D03*
D116*
X449200Y312400D02*
D03*
X469200D02*
D03*
X459200D02*
D03*
X558200D02*
D03*
X538200D02*
D03*
X548200D02*
D03*
D117*
X554900Y409600D02*
D03*
X551900D02*
D03*
X557800Y409547D02*
D03*
X564625Y384300D02*
D03*
X557700D02*
D03*
X554400D02*
D03*
X542913Y381102D02*
D03*
X590158Y326772D02*
D03*
X342000Y494600D02*
D03*
X335000Y494500D02*
D03*
X425500Y487100D02*
D03*
X301400Y465000D02*
D03*
X411047Y484247D02*
D03*
X409500Y476284D02*
D03*
X401622Y479778D02*
D03*
X379378Y479622D02*
D03*
X504000Y368700D02*
D03*
X407858Y315942D02*
D03*
X417629Y327429D02*
D03*
X432500Y341900D02*
D03*
X363500Y323600D02*
D03*
X415000Y345300D02*
D03*
X394571Y315671D02*
D03*
X363500Y344300D02*
D03*
X445000Y336600D02*
D03*
X576500Y434400D02*
D03*
X561351Y406449D02*
D03*
X561500Y387700D02*
D03*
X557849Y387649D02*
D03*
X539800Y391000D02*
D03*
X549968Y365868D02*
D03*
X554749Y387649D02*
D03*
X565580Y328220D02*
D03*
X568400Y349700D02*
D03*
X576968Y366032D02*
D03*
X571800Y361000D02*
D03*
X557749Y406449D02*
D03*
X550100Y406000D02*
D03*
X554500Y406400D02*
D03*
X551584Y461000D02*
D03*
X442100Y377600D02*
D03*
X443200Y375100D02*
D03*
X438547Y459253D02*
D03*
X442300Y450700D02*
D03*
X450149Y434851D02*
D03*
X459200Y352000D02*
D03*
X427390Y406190D02*
D03*
X440016Y417516D02*
D03*
X432600Y416500D02*
D03*
X420390Y415490D02*
D03*
X413890Y407790D02*
D03*
X394190Y412610D02*
D03*
X395987Y452187D02*
D03*
X403000Y456000D02*
D03*
X410400Y381100D02*
D03*
X370252Y365148D02*
D03*
X409300Y419000D02*
D03*
X398300Y425500D02*
D03*
X394490Y420110D02*
D03*
X400000Y356000D02*
D03*
D118*
X516142Y359842D02*
D03*
X517100Y330900D02*
D03*
X522835Y471153D02*
D03*
X502756Y308661D02*
D03*
X503051Y493701D02*
D03*
X323961Y491239D02*
D03*
X329000Y494500D02*
D03*
X314000Y492500D02*
D03*
X318600Y475300D02*
D03*
X329500Y482200D02*
D03*
X326500Y466684D02*
D03*
X313000Y468400D02*
D03*
X338000Y478500D02*
D03*
X340500Y468500D02*
D03*
X330000Y470500D02*
D03*
X305200Y474600D02*
D03*
X328000Y480500D02*
D03*
X387400Y476900D02*
D03*
X395200Y476800D02*
D03*
X485600Y426500D02*
D03*
X461800Y398400D02*
D03*
X464000Y391000D02*
D03*
X485700Y388600D02*
D03*
X487400Y390400D02*
D03*
X473800Y430500D02*
D03*
X464200Y383600D02*
D03*
X476000Y432300D02*
D03*
X470900Y418800D02*
D03*
X485700Y384600D02*
D03*
X487200Y379800D02*
D03*
X488800Y410200D02*
D03*
X490400Y418200D02*
D03*
Y415800D02*
D03*
X502100Y411000D02*
D03*
X504991Y418500D02*
D03*
X516000Y441000D02*
D03*
X511000D02*
D03*
X490400Y422800D02*
D03*
Y420500D02*
D03*
X506000D02*
D03*
X508738Y426762D02*
D03*
X507238Y425262D02*
D03*
X507000Y422500D02*
D03*
X503700Y384900D02*
D03*
X510865Y406500D02*
D03*
X514200Y384500D02*
D03*
X489035Y407135D02*
D03*
X501224Y396800D02*
D03*
X505800Y383800D02*
D03*
X505988Y401624D02*
D03*
X501224Y406400D02*
D03*
X489100Y391700D02*
D03*
X510900Y396712D02*
D03*
X511600Y384500D02*
D03*
X508000Y391900D02*
D03*
X551500Y474500D02*
D03*
X546000Y468000D02*
D03*
X566500Y477000D02*
D03*
X564500Y465800D02*
D03*
X566700D02*
D03*
X557200Y482300D02*
D03*
X544031Y479300D02*
D03*
X359962Y333919D02*
D03*
X379400Y315700D02*
D03*
X385700Y315800D02*
D03*
X401600Y315600D02*
D03*
X442000Y347000D02*
D03*
X358700Y332657D02*
D03*
X530500Y330900D02*
D03*
X522900Y357300D02*
D03*
X566800Y403900D02*
D03*
X564500Y392100D02*
D03*
X558000Y394016D02*
D03*
X561000Y400000D02*
D03*
X558032Y397969D02*
D03*
X561000Y396000D02*
D03*
X530800Y408300D02*
D03*
X530802Y404298D02*
D03*
X532200Y406300D02*
D03*
X550500Y434100D02*
D03*
X548300Y429000D02*
D03*
X553300Y438900D02*
D03*
X530600Y443900D02*
D03*
X556800D02*
D03*
X520800Y432300D02*
D03*
X556800Y455500D02*
D03*
X420040Y359208D02*
D03*
X419800Y361000D02*
D03*
X448000Y357000D02*
D03*
X444500Y349000D02*
D03*
X420700Y460800D02*
D03*
X421500Y456716D02*
D03*
X423500Y458500D02*
D03*
X441700Y446900D02*
D03*
X455000Y359000D02*
D03*
X452000Y355000D02*
D03*
X423526Y442650D02*
D03*
X419500Y455284D02*
D03*
X417500Y453500D02*
D03*
X415800Y426800D02*
D03*
D119*
X441000Y306000D02*
D03*
X363000Y378000D02*
D03*
X390000Y444000D02*
D03*
X450000Y492000D02*
D03*
X405000Y390000D02*
D03*
X531000Y486000D02*
D03*
X462000Y336000D02*
D03*
X528000Y312000D02*
D03*
X423000Y342000D02*
D03*
X501000D02*
D03*
X468000Y480000D02*
D03*
X576000Y468000D02*
D03*
X462000Y480000D02*
D03*
X432000Y492000D02*
D03*
X552000Y396000D02*
D03*
X576000Y480000D02*
D03*
X360000Y408000D02*
D03*
X405000Y402000D02*
D03*
X360000Y372000D02*
D03*
X570000Y300000D02*
D03*
X453000Y450000D02*
D03*
X573000D02*
D03*
X384000Y396000D02*
D03*
X363000Y390000D02*
D03*
X477000Y462000D02*
D03*
X570000Y312000D02*
D03*
X552000Y444000D02*
D03*
X465000Y486000D02*
D03*
X372000Y444000D02*
D03*
X492000Y456000D02*
D03*
X519000Y462000D02*
D03*
X579000Y474000D02*
D03*
X573000Y462000D02*
D03*
X480000Y324000D02*
D03*
X381000Y390000D02*
D03*
X489000Y414000D02*
D03*
X591000Y462000D02*
D03*
X579000Y306000D02*
D03*
X477000Y486000D02*
D03*
Y450000D02*
D03*
X588000Y456000D02*
D03*
X462000Y492000D02*
D03*
X573000Y486000D02*
D03*
X546000Y300000D02*
D03*
X513000Y474000D02*
D03*
X468000Y300000D02*
D03*
X450000Y456000D02*
D03*
X393000Y402000D02*
D03*
X372000Y408000D02*
D03*
X450000Y324000D02*
D03*
X429000Y306000D02*
D03*
X462000Y444000D02*
D03*
X537000Y474000D02*
D03*
X591000D02*
D03*
X459000Y462000D02*
D03*
X546000Y492000D02*
D03*
X495000Y354000D02*
D03*
X456000Y300000D02*
D03*
X483000Y330000D02*
D03*
X372000Y420000D02*
D03*
X363000Y450000D02*
D03*
X528000Y480000D02*
D03*
X513000Y342000D02*
D03*
X585000Y450000D02*
D03*
X516000Y468000D02*
D03*
X591000Y450000D02*
D03*
X462000Y456000D02*
D03*
X363000Y306000D02*
D03*
X561000Y402000D02*
D03*
X552000Y492000D02*
D03*
X462000Y300000D02*
D03*
X510000Y360000D02*
D03*
X582000Y456000D02*
D03*
X366000Y372000D02*
D03*
X531000Y318000D02*
D03*
X543000Y342000D02*
D03*
X417000Y366000D02*
D03*
X489000Y354000D02*
D03*
X579000Y462000D02*
D03*
X513000D02*
D03*
X489000Y330000D02*
D03*
X444000Y324000D02*
D03*
X531000Y474000D02*
D03*
X456000Y456000D02*
D03*
X411000Y366000D02*
D03*
X381000Y402000D02*
D03*
X375000Y414000D02*
D03*
X369000Y426000D02*
D03*
X510000Y300000D02*
D03*
X384000Y444000D02*
D03*
X372000Y324000D02*
D03*
X360000Y312000D02*
D03*
X369000Y414000D02*
D03*
X456000Y492000D02*
D03*
X399000Y402000D02*
D03*
X381000Y438000D02*
D03*
X444000Y300000D02*
D03*
X378000Y432000D02*
D03*
X585000Y342000D02*
D03*
Y474000D02*
D03*
X474000Y444000D02*
D03*
X450000Y300000D02*
D03*
X369000Y486000D02*
D03*
X522000Y444000D02*
D03*
X465000Y450000D02*
D03*
X453000Y462000D02*
D03*
X456000Y480000D02*
D03*
X384000Y372000D02*
D03*
X456000Y444000D02*
D03*
X537000Y366000D02*
D03*
X471000Y438000D02*
D03*
X576000Y300000D02*
D03*
X465000Y426000D02*
D03*
X378000Y384000D02*
D03*
X483000Y462000D02*
D03*
X372000Y456000D02*
D03*
X588000Y468000D02*
D03*
X471000Y354000D02*
D03*
X426000Y348000D02*
D03*
X372000Y396000D02*
D03*
X507000Y462000D02*
D03*
X543000Y330000D02*
D03*
X396000Y384000D02*
D03*
X534000Y492000D02*
D03*
X438000D02*
D03*
X540000Y480000D02*
D03*
X381000Y426000D02*
D03*
X369000Y318000D02*
D03*
X519000Y342000D02*
D03*
X360000Y384000D02*
D03*
X399000Y366000D02*
D03*
X393000Y390000D02*
D03*
X369000Y306000D02*
D03*
X438000Y312000D02*
D03*
X474000Y336000D02*
D03*
X375000Y390000D02*
D03*
X474000Y480000D02*
D03*
X360000Y396000D02*
D03*
X573000Y474000D02*
D03*
X528000Y444000D02*
D03*
X543000Y306000D02*
D03*
X375000Y402000D02*
D03*
X474000Y300000D02*
D03*
X549000Y438000D02*
D03*
X498000Y348000D02*
D03*
X390000Y432000D02*
D03*
X363000Y438000D02*
D03*
X474000Y324000D02*
D03*
X504000Y348000D02*
D03*
X450000D02*
D03*
X540000Y492000D02*
D03*
X435000Y306000D02*
D03*
Y486000D02*
D03*
X420000Y492000D02*
D03*
X381000Y366000D02*
D03*
X375000Y438000D02*
D03*
X591000Y366000D02*
D03*
X471000Y486000D02*
D03*
X582000Y312000D02*
D03*
X459000Y486000D02*
D03*
Y330000D02*
D03*
X453000Y486000D02*
D03*
X540000Y324000D02*
D03*
X363000Y402000D02*
D03*
X468000Y444000D02*
D03*
X540000Y348000D02*
D03*
X495000Y450000D02*
D03*
X567000Y402000D02*
D03*
X585000Y366000D02*
D03*
X558000Y492000D02*
D03*
X540000Y300000D02*
D03*
X486000Y348000D02*
D03*
X450000Y480000D02*
D03*
X426000Y324000D02*
D03*
X477000Y438000D02*
D03*
X366000Y300000D02*
D03*
X378000Y396000D02*
D03*
X369000Y378000D02*
D03*
X360000Y444000D02*
D03*
X543000Y318000D02*
D03*
X480000Y444000D02*
D03*
X573000Y306000D02*
D03*
X576000Y456000D02*
D03*
X393000Y378000D02*
D03*
X372000Y432000D02*
D03*
X480000Y480000D02*
D03*
X447000Y462000D02*
D03*
X471000Y450000D02*
D03*
X366000Y444000D02*
D03*
X570000Y468000D02*
D03*
X552000Y324000D02*
D03*
X549000Y486000D02*
D03*
X381000Y450000D02*
D03*
X366000Y420000D02*
D03*
X369000Y462000D02*
D03*
X546000Y324000D02*
D03*
X465000Y438000D02*
D03*
X480000Y348000D02*
D03*
X507000Y474000D02*
D03*
X549000Y450000D02*
D03*
X375000Y426000D02*
D03*
X588000Y360000D02*
D03*
X474000Y348000D02*
D03*
X360000Y480000D02*
D03*
X486000Y456000D02*
D03*
X528000Y324000D02*
D03*
X489000Y450000D02*
D03*
X477000Y318000D02*
D03*
X495000Y474000D02*
D03*
X468000Y492000D02*
D03*
X474000D02*
D03*
X537000Y486000D02*
D03*
X441000Y330000D02*
D03*
X438000Y324000D02*
D03*
X543000Y486000D02*
D03*
X366000Y408000D02*
D03*
X534000Y468000D02*
D03*
X396000Y372000D02*
D03*
X501000Y474000D02*
D03*
X360000Y360000D02*
D03*
X483000Y354000D02*
D03*
X369000Y390000D02*
D03*
Y438000D02*
D03*
X534000Y300000D02*
D03*
X414000Y492000D02*
D03*
X360000Y300000D02*
D03*
X459000Y450000D02*
D03*
X492000Y348000D02*
D03*
X525000Y462000D02*
D03*
X393000Y366000D02*
D03*
X534000Y480000D02*
D03*
X366000Y396000D02*
D03*
X579000Y486000D02*
D03*
X570000Y456000D02*
D03*
X363000Y426000D02*
D03*
X567000Y486000D02*
D03*
X384000Y456000D02*
D03*
X552000Y300000D02*
D03*
X576000Y492000D02*
D03*
X369000Y450000D02*
D03*
X378000Y420000D02*
D03*
X366000Y432000D02*
D03*
X582000Y300000D02*
D03*
X579000Y450000D02*
D03*
X558000Y372000D02*
D03*
X369000Y402000D02*
D03*
X585000Y462000D02*
D03*
X465000D02*
D03*
X381000D02*
D03*
X477000Y354000D02*
D03*
X588000Y312000D02*
D03*
X582000Y480000D02*
D03*
X450000Y408000D02*
D03*
X531000Y342000D02*
D03*
X447000Y486000D02*
D03*
X582000Y468000D02*
D03*
X360000Y420000D02*
D03*
X501000Y438000D02*
D03*
X378000Y408000D02*
D03*
X498000Y444000D02*
D03*
X480000Y336000D02*
D03*
X438000Y480000D02*
D03*
X486000Y336000D02*
D03*
X468000Y456000D02*
D03*
X366000Y480000D02*
D03*
X378000Y348000D02*
D03*
X564000Y300000D02*
D03*
X534000Y348000D02*
D03*
X360000Y456000D02*
D03*
X489000Y342000D02*
D03*
X393000Y438000D02*
D03*
X372000Y384000D02*
D03*
X537000Y450000D02*
D03*
X363000Y414000D02*
D03*
X441000Y318000D02*
D03*
X387000Y450000D02*
D03*
X456000Y408000D02*
D03*
X516000Y456000D02*
D03*
X510000D02*
D03*
X381000Y414000D02*
D03*
X375000Y462000D02*
D03*
X381000Y354000D02*
D03*
X378000Y456000D02*
D03*
X366000Y384000D02*
D03*
X483000Y438000D02*
D03*
X534000Y324000D02*
D03*
X564000Y492000D02*
D03*
X360000Y432000D02*
D03*
X441000Y486000D02*
D03*
X399000Y390000D02*
D03*
X495000Y330000D02*
D03*
X570000Y492000D02*
D03*
X444000Y480000D02*
D03*
X384000Y384000D02*
D03*
X525000Y342000D02*
D03*
X444000Y492000D02*
D03*
X540000Y360000D02*
D03*
X366000Y312000D02*
D03*
X363000Y486000D02*
D03*
D120*
X296800Y425442D02*
D03*
D121*
X391488Y331219D02*
D03*
X387158D02*
D03*
X391488Y335550D02*
D03*
X387158D02*
D03*
X433193Y358016D02*
D03*
X431224Y359984D02*
D03*
X435161D02*
D03*
Y356047D02*
D03*
X431224D02*
D03*
X410220Y435559D02*
D03*
Y439890D02*
D03*
Y444220D02*
D03*
X414551Y435559D02*
D03*
Y439890D02*
D03*
Y444220D02*
D03*
X418882Y435559D02*
D03*
Y439890D02*
D03*
Y444220D02*
D03*
D122*
X301400Y471000D02*
D03*
X347800Y462700D02*
D03*
X462300Y340400D02*
D03*
X463000Y427700D02*
D03*
X483100Y373700D02*
D03*
X485700Y375300D02*
D03*
X488400Y337000D02*
D03*
X492800D02*
D03*
X564980Y483220D02*
D03*
X426400Y332975D02*
D03*
X422575D02*
D03*
X380500Y322800D02*
D03*
X378600Y343700D02*
D03*
X398400Y322800D02*
D03*
X405300Y343900D02*
D03*
X458200Y340400D02*
D03*
X533900Y373800D02*
D03*
X582500Y345100D02*
D03*
Y341100D02*
D03*
Y337300D02*
D03*
X562100Y359400D02*
D03*
X562000Y363200D02*
D03*
X582500Y349700D02*
D03*
X539100Y400600D02*
D03*
X521152Y415352D02*
D03*
X417000Y461000D02*
D03*
X445900Y441200D02*
D03*
X457876Y376468D02*
D03*
X446000Y410800D02*
D03*
X404851Y406049D02*
D03*
X399500Y444800D02*
D03*
X399100Y385000D02*
D03*
D123*
X591000Y492000D02*
D03*
X244759Y492242D02*
D03*
Y304242D02*
D03*
X591000Y304000D02*
D03*
M02*
