G04*
G04 #@! TF.GenerationSoftware,Altium Limited,Altium Designer,25.4.2 (15)*
G04*
G04 Layer_Color=32768*
%FSLAX25Y25*%
%MOIN*%
G70*
G04*
G04 #@! TF.SameCoordinates,4CCD4F96-9612-4F4B-9C4D-890E15692DA9*
G04*
G04*
G04 #@! TF.FilePolarity,Positive*
G04*
G01*
G75*
G36*
X437416Y444001D02*
X436654Y443505D01*
X436651Y443502D01*
X436643Y443500D01*
X436633Y443492D01*
X436617Y443481D01*
X436599Y443468D01*
X436576Y443455D01*
X436550Y443440D01*
X436521Y443421D01*
X436455Y443382D01*
X436382Y443338D01*
X436307Y443291D01*
X436226Y443246D01*
X436228Y443244D01*
X436236Y443241D01*
X436247Y443233D01*
X436262Y443225D01*
X436281Y443215D01*
X436302Y443202D01*
X436328Y443186D01*
X436356Y443168D01*
X436388Y443150D01*
X436424Y443129D01*
X436500Y443082D01*
X436583Y443027D01*
X436672Y442970D01*
X437416Y442484D01*
Y442095D01*
X435965Y443098D01*
X434900D01*
Y443432D01*
X435965D01*
X437416Y444400D01*
Y444001D01*
D02*
G37*
G36*
X436797Y441680D02*
X436800Y441673D01*
X436808Y441657D01*
X436816Y441639D01*
X436829Y441618D01*
X436842Y441592D01*
X436858Y441563D01*
X436876Y441529D01*
X436920Y441459D01*
X436970Y441383D01*
X437024Y441307D01*
X437087Y441231D01*
X437090Y441229D01*
X437095Y441224D01*
X437105Y441213D01*
X437116Y441200D01*
X437132Y441185D01*
X437152Y441166D01*
X437194Y441124D01*
X437246Y441078D01*
X437304Y441033D01*
X437364Y440991D01*
X437395Y440973D01*
X437426Y440957D01*
Y440757D01*
X434900D01*
Y441065D01*
X436868D01*
X436863Y441070D01*
X436850Y441085D01*
X436829Y441109D01*
X436800Y441143D01*
X436769Y441185D01*
X436732Y441237D01*
X436693Y441294D01*
X436654Y441359D01*
Y441362D01*
X436649Y441367D01*
X436643Y441378D01*
X436636Y441391D01*
X436628Y441406D01*
X436617Y441425D01*
X436594Y441466D01*
X436568Y441519D01*
X436542Y441571D01*
X436516Y441628D01*
X436495Y441683D01*
X436795D01*
X436797Y441680D01*
D02*
G37*
M02*
