G04*
G04 #@! TF.GenerationSoftware,Altium Limited,Altium Designer,25.4.2 (15)*
G04*
G04 Layer_Color=32768*
%FSLAX25Y25*%
%MOIN*%
G70*
G04*
G04 #@! TF.SameCoordinates,4CCD4F96-9612-4F4B-9C4D-890E15692DA9*
G04*
G04*
G04 #@! TF.FilePolarity,Positive*
G04*
G01*
G75*
%ADD11C,0.00787*%
%ADD146C,0.00197*%
D11*
X520669Y473598D02*
X525000D01*
Y482307D01*
X520669D02*
X525000D01*
X520669Y473598D02*
Y482307D01*
X516831Y478150D02*
Y496654D01*
X489272D02*
X516831D01*
X489272Y478150D02*
Y496654D01*
Y478150D02*
X516831D01*
X488976Y305709D02*
Y324213D01*
Y305709D02*
X516535D01*
Y324213D01*
X488976D02*
X516535D01*
X540748Y376181D02*
X545079D01*
X540748Y366339D02*
Y376181D01*
Y366339D02*
X545079D01*
Y376181D01*
X446654Y384449D02*
X450984D01*
Y394291D01*
X446654D02*
X450984D01*
X446654Y384449D02*
Y394291D01*
X424606Y313976D02*
Y318307D01*
Y313976D02*
X434449D01*
Y318307D01*
X424606D02*
X434449D01*
X587992Y330906D02*
X592323D01*
Y340748D01*
X587992D02*
X592323D01*
X587992Y330906D02*
Y340748D01*
X518110Y362795D02*
Y367126D01*
X508268D02*
X518110D01*
X508268Y362795D02*
Y367126D01*
Y362795D02*
X518110D01*
X568942Y377579D02*
X598667D01*
Y416319D01*
X568942D02*
X598667D01*
X568942Y377579D02*
Y416319D01*
X303511Y475782D02*
X310489D01*
X303511D02*
Y479217D01*
X310489D01*
Y475782D02*
Y479217D01*
X303654Y481524D02*
X310347D01*
X303654D02*
Y484476D01*
X310347D01*
Y481524D02*
Y484476D01*
X332835Y483114D02*
Y491823D01*
X337165D01*
Y483114D02*
Y491823D01*
X332835Y483114D02*
X337165D01*
X339047Y482185D02*
Y492815D01*
X344953D01*
Y482185D02*
Y492815D01*
X339047Y482185D02*
X344953D01*
X314067Y473370D02*
X323870D01*
Y463567D02*
Y473370D01*
X314067Y463567D02*
X323870D01*
X314067D02*
Y473370D01*
X396153Y350985D02*
Y361615D01*
X390247Y350985D02*
X396153D01*
X390247D02*
Y361615D01*
X396153D01*
X388353Y351032D02*
Y361662D01*
X382447Y351032D02*
X388353D01*
X382447D02*
Y361662D01*
X388353D01*
X396584Y417158D02*
X407213D01*
X396584D02*
Y423063D01*
X407213D01*
Y417158D02*
Y423063D01*
X407974Y378582D02*
Y387268D01*
X403226Y378582D02*
X407974D01*
X403226D02*
Y387268D01*
X407974D01*
X396584Y409657D02*
X407213D01*
X396584D02*
Y415563D01*
X407213D01*
Y409657D02*
Y415563D01*
X416843Y409084D02*
Y419713D01*
X410937Y409084D02*
X416843D01*
X410937D02*
Y419713D01*
X416843D01*
X404185Y453047D02*
X414815D01*
X404185D02*
Y458953D01*
X414815D01*
Y453047D02*
Y458953D01*
X404185Y460047D02*
X414815D01*
X404185D02*
Y465953D01*
X414815D01*
Y460047D02*
Y465953D01*
X407630Y467555D02*
Y474445D01*
X411370D01*
Y467555D02*
Y474445D01*
X407630Y467555D02*
X411370D01*
X413282Y467511D02*
Y474489D01*
X416717D01*
Y467511D02*
Y474489D01*
X413282Y467511D02*
X416717D01*
X435145Y372165D02*
X443855D01*
Y367835D02*
Y372165D01*
X435145Y367835D02*
X443855D01*
X435145D02*
Y372165D01*
X424677Y367835D02*
X433386D01*
X424677D02*
Y372165D01*
X433386D01*
Y367835D02*
Y372165D01*
X429185Y380453D02*
X439815D01*
Y374547D02*
Y380453D01*
X429185Y374547D02*
X439815D01*
X429185D02*
Y380453D01*
X429157Y386874D02*
X437843D01*
Y382126D02*
Y386874D01*
X429157Y382126D02*
X437843D01*
X429157D02*
Y386874D01*
X430342Y407536D02*
Y418166D01*
X424437Y407536D02*
X430342D01*
X424437D02*
Y418166D01*
X430342D01*
X429528Y430804D02*
X440158D01*
Y424898D02*
Y430804D01*
X429528Y424898D02*
X440158D01*
X429528D02*
Y430804D01*
Y437804D02*
X440158D01*
Y431898D02*
Y437804D01*
X429528Y431898D02*
X440158D01*
X429528D02*
Y437804D01*
X429447Y450985D02*
Y461615D01*
X435353D01*
Y450985D02*
Y461615D01*
X429447Y450985D02*
X435353D01*
X384937Y462083D02*
Y472713D01*
X390843D01*
Y462083D02*
Y472713D01*
X384937Y462083D02*
X390843D01*
X392437D02*
Y472713D01*
X398342D01*
Y462083D02*
Y472713D01*
X392437Y462083D02*
X398342D01*
X519153Y371085D02*
Y381715D01*
X513247Y371085D02*
X519153D01*
X513247D02*
Y381715D01*
X519153D01*
X466744Y397024D02*
X472256D01*
X466744D02*
Y399976D01*
X472256D01*
Y397024D02*
Y399976D01*
X467438Y380647D02*
X478068D01*
X467438D02*
Y386553D01*
X478068D01*
Y380647D02*
Y386553D01*
X467438Y388147D02*
X478068D01*
X467438D02*
Y394053D01*
X478068D01*
Y388147D02*
Y394053D01*
X506953Y371185D02*
Y381815D01*
X501047Y371185D02*
X506953D01*
X501047D02*
Y381815D01*
X506953D01*
X528614Y393165D02*
X537323D01*
Y388835D02*
Y393165D01*
X528614Y388835D02*
X537323D01*
X528614D02*
Y393165D01*
X528677Y386665D02*
X537386D01*
Y382335D02*
Y386665D01*
X528677Y382335D02*
X537386D01*
X528677D02*
Y386665D01*
X567746Y330442D02*
Y339152D01*
X563415Y330442D02*
X567746D01*
X563415D02*
Y339152D01*
X567746D01*
X547594Y354911D02*
Y363597D01*
X552343D01*
Y354911D02*
Y363597D01*
X547594Y354911D02*
X552343D01*
X574594Y354986D02*
Y363672D01*
X579343D01*
Y354986D02*
Y363672D01*
X574594Y354986D02*
X579343D01*
X472744Y417524D02*
X478256D01*
X472744D02*
Y420476D01*
X478256D01*
Y417524D02*
Y420476D01*
X490185Y423547D02*
X500815D01*
X490185D02*
Y429453D01*
X500815D01*
Y423547D02*
Y429453D01*
X537185Y408953D02*
X547815D01*
Y403047D02*
Y408953D01*
X537185Y403047D02*
X547815D01*
X537185D02*
Y408953D01*
X537232Y415953D02*
X547862D01*
Y410047D02*
Y415953D01*
X537232Y410047D02*
X547862D01*
X537232D02*
Y415953D01*
Y422953D02*
X547862D01*
Y417047D02*
Y422953D01*
X537232Y417047D02*
X547862D01*
X537232D02*
Y422953D01*
X579453Y435638D02*
Y446268D01*
X573547Y435638D02*
X579453D01*
X573547D02*
Y446268D01*
X579453D01*
X376327Y312949D02*
X404673D01*
Y257890D02*
Y312949D01*
X376327Y257890D02*
X404673D01*
X376327D02*
Y312949D01*
X366267Y325950D02*
X376733D01*
X366267D02*
Y332250D01*
X376733D01*
Y325950D02*
Y332250D01*
X401830Y332150D02*
X412296D01*
Y325850D02*
Y332150D01*
X401830Y325850D02*
X412296D01*
X401830D02*
Y332150D01*
Y340750D02*
X412296D01*
Y334450D02*
Y340750D01*
X401830Y334450D02*
X412296D01*
X401830D02*
Y340750D01*
X430126Y330557D02*
Y339243D01*
X434874D01*
Y330557D02*
Y339243D01*
X430126Y330557D02*
X434874D01*
X446835Y361145D02*
Y369855D01*
X451165D01*
Y361145D02*
Y369855D01*
X446835Y361145D02*
X451165D01*
X309890Y462638D02*
Y473268D01*
X303984Y462638D02*
X309890D01*
X303984D02*
Y473268D01*
X309890D01*
X368298Y355040D02*
X375276D01*
X368298D02*
Y358475D01*
X375276D01*
Y355040D02*
Y358475D01*
X376327Y482551D02*
X404673D01*
X376327D02*
Y537610D01*
X404673D01*
Y482551D02*
Y537610D01*
X412223Y388088D02*
X427577D01*
Y374112D02*
Y388088D01*
X412223Y374112D02*
X427577D01*
X412223D02*
Y388088D01*
X397782Y447011D02*
Y453989D01*
X401218D01*
Y447011D02*
Y453989D01*
X397782Y447011D02*
X401218D01*
X421539Y471751D02*
Y486759D01*
X429461D01*
Y471751D02*
Y486759D01*
X421539Y471751D02*
X429461D01*
X430154Y390925D02*
X436846D01*
X430154D02*
Y394075D01*
X436846D01*
Y390925D02*
Y394075D01*
X519310Y332965D02*
X528019D01*
Y328635D02*
Y332965D01*
X519310Y328635D02*
X528019D01*
X519310D02*
Y332965D01*
X526653Y371085D02*
Y381715D01*
X520747Y371085D02*
X526653D01*
X520747D02*
Y381715D01*
X526653D01*
X473645Y400665D02*
X482355D01*
Y396335D02*
Y400665D01*
X473645Y396335D02*
X482355D01*
X473645D02*
Y400665D01*
X508525Y373253D02*
Y379946D01*
X511675D01*
Y373253D02*
Y379946D01*
X508525Y373253D02*
X511675D01*
X556435Y341045D02*
Y349755D01*
X560765D01*
Y341045D02*
Y349755D01*
X556435Y341045D02*
X560765D01*
X560943Y330257D02*
Y339337D01*
X556218Y330257D02*
X560943D01*
X556218D02*
Y339337D01*
X560943D01*
X569848Y326147D02*
X580313D01*
X569848D02*
Y332447D01*
X580313D01*
Y326147D02*
Y332447D01*
X570660Y347338D02*
X579740D01*
X570660D02*
Y352062D01*
X579740D01*
Y347338D02*
Y352062D01*
X588625Y344354D02*
Y351046D01*
X591775D01*
Y344354D02*
Y351046D01*
X588625Y344354D02*
X591775D01*
X544575Y355954D02*
Y362647D01*
X541425Y355954D02*
X544575D01*
X541425D02*
Y362647D01*
X544575D01*
X554205Y354012D02*
X569559D01*
X554205D02*
Y367988D01*
X569559D01*
Y354012D02*
Y367988D01*
X518047Y419685D02*
Y430315D01*
X523953D01*
Y419685D02*
Y430315D01*
X518047Y419685D02*
X523953D01*
X550575Y462653D02*
Y469347D01*
X547425Y462653D02*
X550575D01*
X547425D02*
Y469347D01*
X550575D01*
X562272Y466882D02*
Y475543D01*
X553610Y466882D02*
X562272D01*
X553610D02*
Y475543D01*
X562272D01*
X552685Y458047D02*
X563315D01*
X552685D02*
Y463953D01*
X563315D01*
Y458047D02*
Y463953D01*
X546353Y477725D02*
X553047D01*
X546353D02*
Y480875D01*
X553047D01*
Y477725D02*
Y480875D01*
X379153Y317425D02*
X385846D01*
X379153D02*
Y320575D01*
X385846D01*
Y317425D02*
Y320575D01*
X366367Y334650D02*
X376833D01*
X366367D02*
Y340950D01*
X376833D01*
Y334650D02*
Y340950D01*
X431025Y322453D02*
Y329147D01*
X434175D01*
Y322453D02*
Y329147D01*
X431025Y322453D02*
X434175D01*
D146*
X440412Y439282D02*
Y449518D01*
X429388Y439282D02*
X440412D01*
X429388D02*
Y449518D01*
X440412D01*
M02*
