G04*
G04 #@! TF.GenerationSoftware,Altium Limited,Altium Designer,25.4.2 (15)*
G04*
G04 Layer_Color=16711935*
%FSLAX25Y25*%
%MOIN*%
G70*
G04*
G04 #@! TF.SameCoordinates,4CCD4F96-9612-4F4B-9C4D-890E15692DA9*
G04*
G04*
G04 #@! TF.FilePolarity,Positive*
G04*
G01*
G75*
%ADD11C,0.00787*%
%ADD12C,0.00500*%
%ADD147C,0.00394*%
%ADD148R,0.03032X0.06142*%
D11*
X311520Y488618D02*
G03*
X311520Y488618I-394J0D01*
G01*
X516618Y419242D02*
G03*
X516618Y419242I-394J0D01*
G01*
X572521Y333998D02*
G03*
X572521Y333998I-394J0D01*
G01*
X480449Y417500D02*
G03*
X480449Y417500I-394J0D01*
G01*
X531780Y443905D02*
G03*
X531780Y443905I-394J0D01*
G01*
X444199Y300982D02*
X474199D01*
Y323816D01*
X444199D02*
X474199D01*
X444199Y300982D02*
Y323816D01*
X448200Y300982D02*
Y305400D01*
X470200D01*
Y300982D02*
Y305400D01*
X533201Y323818D02*
X563201D01*
X533201Y300984D02*
Y323818D01*
Y300984D02*
X563201D01*
Y323818D01*
X559200Y319400D02*
Y323818D01*
X537200Y319400D02*
X559200D01*
X537200D02*
Y323818D01*
D12*
X313094Y489405D02*
X324905D01*
Y477595D02*
Y489405D01*
X313094Y477595D02*
X324905D01*
X313094D02*
Y489405D01*
X492209Y415403D02*
X519768D01*
X492209Y387844D02*
X519768D01*
Y415403D01*
X492209Y387844D02*
Y415403D01*
X570947Y337935D02*
Y342659D01*
X579214D01*
Y337935D02*
Y342659D01*
X570947Y337935D02*
X579214D01*
X481827Y404134D02*
Y413976D01*
X469228Y404134D02*
X481827D01*
X469228D02*
Y413976D01*
X481827D01*
X562312Y426011D02*
Y446798D01*
X541524Y426011D02*
Y446798D01*
Y426011D02*
X562312D01*
X541524Y446798D02*
X562312D01*
D147*
X395819Y328857D02*
G03*
X395819Y328857I-1969J0D01*
G01*
X437524Y360378D02*
G03*
X437524Y360378I-1969J0D01*
G01*
X423016Y446386D02*
G03*
X423016Y446386I-1969J0D01*
G01*
X397394Y325313D02*
Y341455D01*
X381252Y325313D02*
Y341455D01*
Y325313D02*
X397394D01*
X381252Y341455D02*
X397394D01*
X427287Y352110D02*
Y363921D01*
X439098Y352110D02*
Y363921D01*
X427287Y352110D02*
X439098D01*
X427287Y363921D02*
X439098D01*
X404512Y429850D02*
Y449929D01*
X424590Y429850D02*
Y449929D01*
X404512Y429850D02*
X424590D01*
X404512Y449929D02*
X424590D01*
X394433Y317917D02*
X398567D01*
X394433Y320083D02*
X398567D01*
Y317917D02*
Y320083D01*
X394433Y317917D02*
Y320083D01*
X362417Y326898D02*
X364583D01*
X362417Y331031D02*
X364583D01*
X362417Y326898D02*
Y331031D01*
X364583Y326898D02*
Y331031D01*
X362417Y340102D02*
X364583D01*
X362417Y335968D02*
X364583D01*
Y340102D01*
X362417Y335968D02*
Y340102D01*
X369721Y344575D02*
X373854D01*
X369721Y346740D02*
X373854D01*
Y344575D02*
Y346740D01*
X369721Y344575D02*
Y346740D01*
Y350075D02*
Y352240D01*
X373854Y350075D02*
Y352240D01*
X369721D02*
X373854D01*
X369721Y350075D02*
X373854D01*
X407996Y317917D02*
Y320083D01*
X403862Y317917D02*
Y320083D01*
Y317917D02*
X407996D01*
X403862Y320083D02*
X407996D01*
X413917Y326898D02*
X416083D01*
X413917Y331031D02*
X416083D01*
X413917Y326898D02*
Y331031D01*
X416083Y326898D02*
Y331031D01*
X413917Y339567D02*
X416083D01*
X413917Y335433D02*
X416083D01*
Y339567D01*
X413917Y335433D02*
Y339567D01*
X405262Y348724D02*
X409396D01*
X405262Y346558D02*
X409396D01*
X405262D02*
Y348724D01*
X409396Y346558D02*
Y348724D01*
Y351917D02*
Y354083D01*
X405262Y351917D02*
Y354083D01*
Y351917D02*
X409396D01*
X405262Y354083D02*
X409396D01*
X410533Y422117D02*
Y424283D01*
X414667Y422117D02*
Y424283D01*
X410533D02*
X414667D01*
X410533Y422117D02*
X414667D01*
X430559Y420417D02*
Y422583D01*
X426425Y420417D02*
Y422583D01*
Y420417D02*
X430559D01*
X426425Y422583D02*
X430559D01*
X440075Y420417D02*
Y422583D01*
X435941Y420417D02*
Y422583D01*
Y420417D02*
X440075D01*
X435941Y422583D02*
X440075D01*
X441354Y342702D02*
X448046D01*
X441354Y330498D02*
X448046D01*
X441354D02*
Y342702D01*
X448046Y330498D02*
Y342702D01*
X398228Y346654D02*
Y353346D01*
X401772Y346654D02*
Y353346D01*
X398228Y346654D02*
X401772D01*
X398228Y353346D02*
X401772D01*
X369721Y360675D02*
Y362840D01*
X373854Y360675D02*
Y362840D01*
X369721D02*
X373854D01*
X369721Y360675D02*
X373854D01*
X332228Y462653D02*
Y469347D01*
X335772Y462653D02*
Y469347D01*
X332228Y462653D02*
X335772D01*
X332228Y469347D02*
X335772D01*
X332228Y472653D02*
Y479347D01*
X335772Y472653D02*
Y479347D01*
X332228Y472653D02*
X335772D01*
X332228Y479347D02*
X335772D01*
X327128Y483954D02*
Y490647D01*
X330672Y483954D02*
Y490647D01*
X327128Y483954D02*
X330672D01*
X327128Y490647D02*
X330672D01*
X401233Y424417D02*
Y426583D01*
X405367Y424417D02*
Y426583D01*
X401233D02*
X405367D01*
X401233Y424417D02*
X405367D01*
X410653Y478228D02*
X417346D01*
X410653Y481772D02*
X417346D01*
Y478228D02*
Y481772D01*
X410653Y478228D02*
Y481772D01*
X549332Y336257D02*
Y343343D01*
X553268Y336257D02*
Y343343D01*
X549332Y336257D02*
X553268D01*
X549332Y343343D02*
X553268D01*
X542933Y392917D02*
X547067D01*
X542933Y395083D02*
X547067D01*
Y392917D02*
Y395083D01*
X542933Y392917D02*
Y395083D01*
Y398917D02*
X547067D01*
X542933Y401083D02*
X547067D01*
Y398917D02*
Y401083D01*
X542933Y398917D02*
Y401083D01*
X422161Y417505D02*
Y424198D01*
X418618Y417505D02*
Y424198D01*
X422161D01*
X418618Y417505D02*
X422161D01*
X420933Y467917D02*
X425067D01*
X420933Y470083D02*
X425067D01*
Y467917D02*
Y470083D01*
X420933Y467917D02*
Y470083D01*
X515154Y434228D02*
X521846D01*
X515154Y437772D02*
X521846D01*
Y434228D02*
Y437772D01*
X515154Y434228D02*
Y437772D01*
X505154Y437772D02*
X511846D01*
X505154Y434228D02*
X511846D01*
X505154D02*
Y437772D01*
X511846Y434228D02*
Y437772D01*
X559630Y479480D02*
Y483614D01*
X561795Y479480D02*
Y483614D01*
X559630Y479480D02*
X561795D01*
X559630Y483614D02*
X561795D01*
D148*
X389240Y319032D02*
D03*
X391370Y476851D02*
D03*
M02*
