G04*
G04 #@! TF.GenerationSoftware,Altium Limited,Altium Designer,25.4.2 (15)*
G04*
G04 Layer_Color=255*
%FSLAX25Y25*%
%MOIN*%
G70*
G04*
G04 #@! TF.SameCoordinates,4CCD4F96-9612-4F4B-9C4D-890E15692DA9*
G04*
G04*
G04 #@! TF.FilePolarity,Positive*
G04*
G01*
G75*
%ADD15R,0.03197X0.02593*%
%ADD16R,0.06102X0.03937*%
%ADD17R,0.03150X0.03150*%
%ADD18R,0.03150X0.03150*%
%ADD19R,0.04528X0.01181*%
%ADD20R,0.04528X0.02362*%
%ADD21R,0.01500X0.03000*%
%ADD22O,0.03543X0.00984*%
%ADD23O,0.00984X0.03543*%
%ADD24R,0.10236X0.10236*%
%ADD25R,0.06693X0.06693*%
%ADD26O,0.03347X0.01102*%
%ADD27O,0.01102X0.03347*%
%ADD28R,0.12205X0.12205*%
%ADD29O,0.03150X0.00984*%
%ADD30O,0.00984X0.03150*%
%ADD31R,0.02423X0.02254*%
G04:AMPARAMS|DCode=32|XSize=16.54mil|YSize=13.78mil|CornerRadius=3.45mil|HoleSize=0mil|Usage=FLASHONLY|Rotation=0.000|XOffset=0mil|YOffset=0mil|HoleType=Round|Shape=RoundedRectangle|*
%AMROUNDEDRECTD32*
21,1,0.01654,0.00689,0,0,0.0*
21,1,0.00965,0.01378,0,0,0.0*
1,1,0.00689,0.00482,-0.00345*
1,1,0.00689,-0.00482,-0.00345*
1,1,0.00689,-0.00482,0.00345*
1,1,0.00689,0.00482,0.00345*
%
%ADD32ROUNDEDRECTD32*%
%ADD33R,0.02165X0.01968*%
%ADD34R,0.03197X0.02985*%
%ADD35R,0.03543X0.03150*%
%ADD36R,0.03150X0.03543*%
%ADD37R,0.03174X0.03260*%
%ADD38R,0.01968X0.01968*%
%ADD39R,0.02254X0.02423*%
%ADD40R,0.02985X0.03197*%
%ADD41R,0.03260X0.03174*%
%ADD42R,0.01575X0.01968*%
%ADD43R,0.05000X0.14173*%
%ADD44R,0.05315X0.16535*%
%ADD45R,0.03961X0.05151*%
%ADD46R,0.02992X0.02835*%
%ADD47R,0.02047X0.02205*%
%ADD48R,0.02835X0.02835*%
G04:AMPARAMS|DCode=49|XSize=43.31mil|YSize=23.62mil|CornerRadius=2.01mil|HoleSize=0mil|Usage=FLASHONLY|Rotation=0.000|XOffset=0mil|YOffset=0mil|HoleType=Round|Shape=RoundedRectangle|*
%AMROUNDEDRECTD49*
21,1,0.04331,0.01961,0,0,0.0*
21,1,0.03929,0.02362,0,0,0.0*
1,1,0.00402,0.01965,-0.00980*
1,1,0.00402,-0.01965,-0.00980*
1,1,0.00402,-0.01965,0.00980*
1,1,0.00402,0.01965,0.00980*
%
%ADD49ROUNDEDRECTD49*%
%ADD50R,0.03985X0.04562*%
%ADD51R,0.01968X0.02362*%
G04:AMPARAMS|DCode=52|XSize=35.43mil|YSize=25.59mil|CornerRadius=1.92mil|HoleSize=0mil|Usage=FLASHONLY|Rotation=270.000|XOffset=0mil|YOffset=0mil|HoleType=Round|Shape=RoundedRectangle|*
%AMROUNDEDRECTD52*
21,1,0.03543,0.02175,0,0,270.0*
21,1,0.03159,0.02559,0,0,270.0*
1,1,0.00384,-0.01088,-0.01580*
1,1,0.00384,-0.01088,0.01580*
1,1,0.00384,0.01088,0.01580*
1,1,0.00384,0.01088,-0.01580*
%
%ADD52ROUNDEDRECTD52*%
%ADD53R,0.02593X0.03197*%
G04:AMPARAMS|DCode=55|XSize=33.07mil|YSize=7.87mil|CornerRadius=0.98mil|HoleSize=0mil|Usage=FLASHONLY|Rotation=270.000|XOffset=0mil|YOffset=0mil|HoleType=Round|Shape=RoundedRectangle|*
%AMROUNDEDRECTD55*
21,1,0.03307,0.00591,0,0,270.0*
21,1,0.03110,0.00787,0,0,270.0*
1,1,0.00197,-0.00295,-0.01555*
1,1,0.00197,-0.00295,0.01555*
1,1,0.00197,0.00295,0.01555*
1,1,0.00197,0.00295,-0.01555*
%
%ADD55ROUNDEDRECTD55*%
G04:AMPARAMS|DCode=56|XSize=7.87mil|YSize=33.07mil|CornerRadius=0.98mil|HoleSize=0mil|Usage=FLASHONLY|Rotation=270.000|XOffset=0mil|YOffset=0mil|HoleType=Round|Shape=RoundedRectangle|*
%AMROUNDEDRECTD56*
21,1,0.00787,0.03110,0,0,270.0*
21,1,0.00591,0.03307,0,0,270.0*
1,1,0.00197,-0.01555,-0.00295*
1,1,0.00197,-0.01555,0.00295*
1,1,0.00197,0.01555,0.00295*
1,1,0.00197,0.01555,-0.00295*
%
%ADD56ROUNDEDRECTD56*%
%ADD57R,0.02362X0.01968*%
%ADD58R,0.03568X0.03563*%
%ADD59R,0.01260X0.02598*%
%ADD60R,0.03563X0.03568*%
%ADD61R,0.05118X0.04134*%
G04:AMPARAMS|DCode=62|XSize=63.39mil|YSize=22.84mil|CornerRadius=2.85mil|HoleSize=0mil|Usage=FLASHONLY|Rotation=0.000|XOffset=0mil|YOffset=0mil|HoleType=Round|Shape=RoundedRectangle|*
%AMROUNDEDRECTD62*
21,1,0.06339,0.01713,0,0,0.0*
21,1,0.05768,0.02284,0,0,0.0*
1,1,0.00571,0.02884,-0.00856*
1,1,0.00571,-0.02884,-0.00856*
1,1,0.00571,-0.02884,0.00856*
1,1,0.00571,0.02884,0.00856*
%
%ADD62ROUNDEDRECTD62*%
G04:AMPARAMS|DCode=63|XSize=19.68mil|YSize=7.87mil|CornerRadius=1.97mil|HoleSize=0mil|Usage=FLASHONLY|Rotation=270.000|XOffset=0mil|YOffset=0mil|HoleType=Round|Shape=RoundedRectangle|*
%AMROUNDEDRECTD63*
21,1,0.01968,0.00394,0,0,270.0*
21,1,0.01575,0.00787,0,0,270.0*
1,1,0.00394,-0.00197,-0.00787*
1,1,0.00394,-0.00197,0.00787*
1,1,0.00394,0.00197,0.00787*
1,1,0.00394,0.00197,-0.00787*
%
%ADD63ROUNDEDRECTD63*%
%ADD64R,0.04134X0.02362*%
%ADD65R,0.00984X0.01378*%
%ADD66R,0.03150X0.02362*%
%ADD67R,0.02205X0.02047*%
%ADD68R,0.03150X0.03937*%
%ADD69R,0.03937X0.03150*%
%ADD70R,0.02362X0.02165*%
%ADD71R,0.01968X0.01772*%
%ADD72R,0.02362X0.03150*%
%ADD73R,0.02165X0.02362*%
%ADD74C,0.05000*%
G04:AMPARAMS|DCode=102|XSize=7.87mil|YSize=27.56mil|CornerRadius=1.97mil|HoleSize=0mil|Usage=FLASHONLY|Rotation=270.000|XOffset=0mil|YOffset=0mil|HoleType=Round|Shape=RoundedRectangle|*
%AMROUNDEDRECTD102*
21,1,0.00787,0.02362,0,0,270.0*
21,1,0.00394,0.02756,0,0,270.0*
1,1,0.00394,-0.01181,-0.00197*
1,1,0.00394,-0.01181,0.00197*
1,1,0.00394,0.01181,0.00197*
1,1,0.00394,0.01181,-0.00197*
%
%ADD102ROUNDEDRECTD102*%
G04:AMPARAMS|DCode=114|XSize=39.37mil|YSize=70.87mil|CornerRadius=19.68mil|HoleSize=0mil|Usage=FLASHONLY|Rotation=90.000|XOffset=0mil|YOffset=0mil|HoleType=Round|Shape=RoundedRectangle|*
%AMROUNDEDRECTD114*
21,1,0.03937,0.03150,0,0,90.0*
21,1,0.00000,0.07087,0,0,90.0*
1,1,0.03937,0.01575,0.00000*
1,1,0.03937,0.01575,0.00000*
1,1,0.03937,-0.01575,0.00000*
1,1,0.03937,-0.01575,0.00000*
%
%ADD114ROUNDEDRECTD114*%
G04:AMPARAMS|DCode=115|XSize=39.37mil|YSize=86.61mil|CornerRadius=19.68mil|HoleSize=0mil|Usage=FLASHONLY|Rotation=90.000|XOffset=0mil|YOffset=0mil|HoleType=Round|Shape=RoundedRectangle|*
%AMROUNDEDRECTD115*
21,1,0.03937,0.04724,0,0,90.0*
21,1,0.00000,0.08661,0,0,90.0*
1,1,0.03937,0.02362,0.00000*
1,1,0.03937,0.02362,0.00000*
1,1,0.03937,-0.02362,0.00000*
1,1,0.03937,-0.02362,0.00000*
%
%ADD115ROUNDEDRECTD115*%
%ADD124R,0.05512X0.10039*%
%ADD125C,0.01035*%
%ADD132O,0.07874X0.11811*%
D15*
X522835Y480617D02*
D03*
Y475289D02*
D03*
X558600Y342736D02*
D03*
Y348064D02*
D03*
D16*
X492717Y493701D02*
D03*
X513386D02*
D03*
X492717Y481102D02*
D03*
X513386D02*
D03*
X513091Y308661D02*
D03*
X492421D02*
D03*
X513091Y321260D02*
D03*
X492421D02*
D03*
D17*
X542913Y368307D02*
D03*
Y374213D02*
D03*
X448819Y392323D02*
D03*
Y386417D02*
D03*
X590158Y338779D02*
D03*
Y332874D02*
D03*
D18*
X432480Y316142D02*
D03*
X426575D02*
D03*
X510236Y364961D02*
D03*
X516142D02*
D03*
D19*
X571600Y390059D02*
D03*
Y392028D02*
D03*
Y393996D02*
D03*
Y395965D02*
D03*
Y397933D02*
D03*
Y399902D02*
D03*
Y401870D02*
D03*
Y403839D02*
D03*
D20*
Y406398D02*
D03*
Y387500D02*
D03*
Y384350D02*
D03*
Y409547D02*
D03*
D21*
X296800Y459300D02*
D03*
D22*
X397000Y328463D02*
D03*
Y330432D02*
D03*
Y332400D02*
D03*
Y334368D02*
D03*
Y336337D02*
D03*
Y338305D02*
D03*
X381646D02*
D03*
Y336337D02*
D03*
Y334368D02*
D03*
Y332400D02*
D03*
Y330432D02*
D03*
Y328463D02*
D03*
D23*
X394244Y341061D02*
D03*
X392276D02*
D03*
X390307D02*
D03*
X388339D02*
D03*
X386370D02*
D03*
X384402D02*
D03*
Y325707D02*
D03*
X386370D02*
D03*
X388339D02*
D03*
X390307D02*
D03*
X392276D02*
D03*
X394244D02*
D03*
D24*
X389323Y333384D02*
D03*
D25*
X433193Y358016D02*
D03*
D26*
X439000Y360968D02*
D03*
Y359000D02*
D03*
Y357031D02*
D03*
Y355063D02*
D03*
X427386D02*
D03*
Y357031D02*
D03*
Y359000D02*
D03*
Y360968D02*
D03*
D27*
X436146Y352209D02*
D03*
X434177D02*
D03*
X432209D02*
D03*
X430240D02*
D03*
Y363823D02*
D03*
X432209D02*
D03*
X434177D02*
D03*
X436146D02*
D03*
D28*
X414551Y439890D02*
D03*
X505988Y401624D02*
D03*
D29*
X424000Y446779D02*
D03*
Y444811D02*
D03*
Y442842D02*
D03*
Y440874D02*
D03*
Y438905D02*
D03*
Y436937D02*
D03*
Y434969D02*
D03*
Y433000D02*
D03*
X405102D02*
D03*
Y434969D02*
D03*
Y436937D02*
D03*
Y438905D02*
D03*
Y440874D02*
D03*
Y442842D02*
D03*
Y444811D02*
D03*
Y446779D02*
D03*
D30*
X421441Y430441D02*
D03*
X419472D02*
D03*
X417504D02*
D03*
X415535D02*
D03*
X413567D02*
D03*
X411598D02*
D03*
X409630D02*
D03*
X407661D02*
D03*
Y449339D02*
D03*
X409630D02*
D03*
X411598D02*
D03*
X413567D02*
D03*
X415535D02*
D03*
X417504D02*
D03*
X419472D02*
D03*
X421441D02*
D03*
D31*
X308687Y477500D02*
D03*
X305313D02*
D03*
X373475Y356757D02*
D03*
X370100D02*
D03*
D32*
X314039Y488421D02*
D03*
Y486453D02*
D03*
Y484484D02*
D03*
Y482516D02*
D03*
Y480547D02*
D03*
Y478579D02*
D03*
X323961D02*
D03*
Y480547D02*
D03*
Y482516D02*
D03*
Y484484D02*
D03*
Y486453D02*
D03*
Y488421D02*
D03*
D33*
X308870Y483000D02*
D03*
X305130D02*
D03*
D34*
X335000Y485000D02*
D03*
Y489937D02*
D03*
X565580Y337265D02*
D03*
Y332328D02*
D03*
X449000Y363032D02*
D03*
Y367969D02*
D03*
D35*
X342000Y484547D02*
D03*
Y490453D02*
D03*
X393200Y359253D02*
D03*
Y353347D02*
D03*
X385400Y359300D02*
D03*
Y353395D02*
D03*
X413890Y417351D02*
D03*
Y411446D02*
D03*
X427390Y415804D02*
D03*
Y409898D02*
D03*
X432400Y453347D02*
D03*
Y459253D02*
D03*
X387890Y464446D02*
D03*
Y470351D02*
D03*
X395390Y464446D02*
D03*
Y470351D02*
D03*
X516200Y379353D02*
D03*
Y373447D02*
D03*
X504000Y379453D02*
D03*
Y373547D02*
D03*
X576500Y443905D02*
D03*
Y438000D02*
D03*
X306937Y470905D02*
D03*
Y465000D02*
D03*
X523700Y379353D02*
D03*
Y373447D02*
D03*
X521000Y422047D02*
D03*
Y427953D02*
D03*
D36*
X404851Y420110D02*
D03*
X398946D02*
D03*
X404851Y412610D02*
D03*
X398946D02*
D03*
X412453Y456000D02*
D03*
X406547D02*
D03*
X412453Y463000D02*
D03*
X406547D02*
D03*
X431547Y377500D02*
D03*
X437453D02*
D03*
X431890Y427851D02*
D03*
X437795D02*
D03*
X431890Y434851D02*
D03*
X437795D02*
D03*
X475705Y383600D02*
D03*
X469800D02*
D03*
X475705Y391100D02*
D03*
X469800D02*
D03*
X498453Y426500D02*
D03*
X492547D02*
D03*
X539547Y406000D02*
D03*
X545453D02*
D03*
X539595Y413000D02*
D03*
X545500D02*
D03*
X539595Y420000D02*
D03*
X545500D02*
D03*
X560953Y461000D02*
D03*
X555047D02*
D03*
D37*
X405600Y384850D02*
D03*
Y381000D02*
D03*
X549968Y357329D02*
D03*
Y361179D02*
D03*
X576968Y357404D02*
D03*
Y361254D02*
D03*
X432500Y332975D02*
D03*
Y336825D02*
D03*
D38*
X409500Y469031D02*
D03*
Y472968D02*
D03*
D39*
X415000Y469313D02*
D03*
Y472687D02*
D03*
X399500Y448813D02*
D03*
Y452187D02*
D03*
D40*
X437032Y370000D02*
D03*
X441968D02*
D03*
X431500D02*
D03*
X426563D02*
D03*
X530500Y391000D02*
D03*
X535437D02*
D03*
X530563Y384500D02*
D03*
X535500D02*
D03*
D41*
X431575D02*
D03*
X435425D02*
D03*
D42*
X471075Y398500D02*
D03*
X467925D02*
D03*
X477075Y419000D02*
D03*
X473925D02*
D03*
D43*
X390500Y303500D02*
D03*
Y492000D02*
D03*
D44*
X401622Y304287D02*
D03*
X379378D02*
D03*
Y491213D02*
D03*
X401622D02*
D03*
D45*
X374359Y329100D02*
D03*
X368641D02*
D03*
X404204Y329000D02*
D03*
X409922D02*
D03*
X404204Y337600D02*
D03*
X409922D02*
D03*
X577939Y329297D02*
D03*
X572222D02*
D03*
X374459Y337800D02*
D03*
X368741D02*
D03*
D46*
X398429Y319000D02*
D03*
X394571D02*
D03*
X373716Y345657D02*
D03*
X369858D02*
D03*
Y351157D02*
D03*
X373716D02*
D03*
X407858Y319000D02*
D03*
X404000D02*
D03*
X405400Y347641D02*
D03*
X409258D02*
D03*
Y353000D02*
D03*
X405400D02*
D03*
D47*
X363500Y327429D02*
D03*
Y330500D02*
D03*
Y339571D02*
D03*
Y336500D02*
D03*
X415000Y327429D02*
D03*
Y330500D02*
D03*
Y339035D02*
D03*
Y335965D02*
D03*
D48*
X410592Y423200D02*
D03*
X414608D02*
D03*
X430500Y421500D02*
D03*
X426484D02*
D03*
X440016D02*
D03*
X436000D02*
D03*
D49*
X414782Y384840D02*
D03*
Y381100D02*
D03*
Y377360D02*
D03*
X425018D02*
D03*
Y384840D02*
D03*
X567000Y357260D02*
D03*
Y361000D02*
D03*
Y364740D02*
D03*
X556764D02*
D03*
Y357260D02*
D03*
D50*
X425500Y476000D02*
D03*
Y482510D02*
D03*
D51*
X435468Y392500D02*
D03*
X431531D02*
D03*
X551669Y479300D02*
D03*
X547731D02*
D03*
X384469Y319000D02*
D03*
X380532D02*
D03*
D52*
X438148Y447353D02*
D03*
X431652D02*
D03*
Y441447D02*
D03*
X438148D02*
D03*
D53*
X521000Y330800D02*
D03*
X526328D02*
D03*
X475336Y398500D02*
D03*
X480664D02*
D03*
D55*
X516224Y388100D02*
D03*
X514650D02*
D03*
X513075D02*
D03*
X511500D02*
D03*
X509925D02*
D03*
X508350D02*
D03*
X506776D02*
D03*
X505201D02*
D03*
X503626D02*
D03*
X502051D02*
D03*
X500476D02*
D03*
X498902D02*
D03*
X497327D02*
D03*
X495752D02*
D03*
Y415147D02*
D03*
X497327D02*
D03*
X498902D02*
D03*
X500476D02*
D03*
X502051D02*
D03*
X503626D02*
D03*
X505201D02*
D03*
X506776D02*
D03*
X508350D02*
D03*
X509925D02*
D03*
X511500D02*
D03*
X513075D02*
D03*
X514650D02*
D03*
X516224D02*
D03*
D56*
X519512Y411860D02*
D03*
Y410285D02*
D03*
Y408710D02*
D03*
Y407135D02*
D03*
Y405561D02*
D03*
Y403986D02*
D03*
Y402411D02*
D03*
Y400836D02*
D03*
Y399261D02*
D03*
Y397687D02*
D03*
Y396112D02*
D03*
Y394537D02*
D03*
Y392962D02*
D03*
Y391387D02*
D03*
X492465D02*
D03*
Y392962D02*
D03*
Y394537D02*
D03*
Y396112D02*
D03*
Y397687D02*
D03*
Y399261D02*
D03*
Y400836D02*
D03*
Y402411D02*
D03*
Y403986D02*
D03*
Y405561D02*
D03*
Y407135D02*
D03*
Y408710D02*
D03*
Y410285D02*
D03*
Y411860D02*
D03*
D57*
X510100Y374632D02*
D03*
Y378569D02*
D03*
X590200Y345731D02*
D03*
Y349669D02*
D03*
X543000Y361268D02*
D03*
Y357331D02*
D03*
X549000Y467969D02*
D03*
Y464032D02*
D03*
X432600Y323832D02*
D03*
Y327768D02*
D03*
D58*
X558580Y337161D02*
D03*
Y332432D02*
D03*
D59*
X572128Y337403D02*
D03*
X574096D02*
D03*
X576065D02*
D03*
X578033D02*
D03*
Y343191D02*
D03*
X576065D02*
D03*
X574096D02*
D03*
X572128D02*
D03*
D60*
X577564Y349700D02*
D03*
X572835D02*
D03*
D61*
X471000Y405610D02*
D03*
X480055D02*
D03*
Y412500D02*
D03*
X471000D02*
D03*
D62*
X566111Y443905D02*
D03*
Y438905D02*
D03*
Y433905D02*
D03*
Y428905D02*
D03*
X537725D02*
D03*
Y433905D02*
D03*
Y438905D02*
D03*
Y443905D02*
D03*
D63*
X560303Y474165D02*
D03*
X558728D02*
D03*
X557154D02*
D03*
X555579D02*
D03*
Y468260D02*
D03*
X557154D02*
D03*
X558728D02*
D03*
X560303D02*
D03*
D64*
X439385Y332860D02*
D03*
Y340340D02*
D03*
X450015D02*
D03*
Y336600D02*
D03*
Y332860D02*
D03*
D65*
X390500Y321000D02*
D03*
Y319032D02*
D03*
Y317063D02*
D03*
X387941D02*
D03*
Y319032D02*
D03*
Y321000D02*
D03*
X390110Y474883D02*
D03*
Y476851D02*
D03*
Y478820D02*
D03*
X392669D02*
D03*
Y476851D02*
D03*
Y474883D02*
D03*
D66*
X400000Y347441D02*
D03*
Y352559D02*
D03*
X334000Y463441D02*
D03*
Y468559D02*
D03*
Y473441D02*
D03*
Y478559D02*
D03*
X328900Y484741D02*
D03*
Y489859D02*
D03*
X420390Y423410D02*
D03*
Y418292D02*
D03*
D67*
X370252Y361757D02*
D03*
X373323D02*
D03*
X401765Y425500D02*
D03*
X404835D02*
D03*
D68*
X416953Y480000D02*
D03*
X411047D02*
D03*
D69*
X551300Y337044D02*
D03*
Y342556D02*
D03*
D70*
X546673Y394000D02*
D03*
X543327D02*
D03*
X546673Y400000D02*
D03*
X543327D02*
D03*
D71*
X424476Y469000D02*
D03*
X421524D02*
D03*
D72*
X521059Y436000D02*
D03*
X515941D02*
D03*
X505941D02*
D03*
X511059D02*
D03*
D73*
X560713Y479874D02*
D03*
Y483220D02*
D03*
D74*
X350800Y490500D02*
D03*
X376400Y368400D02*
D03*
X417800Y307000D02*
D03*
X492600Y343600D02*
D03*
X586000Y438100D02*
D03*
X529400Y347800D02*
D03*
X584646Y326378D02*
D03*
X534600Y453400D02*
D03*
X405500Y373800D02*
D03*
X424900Y392800D02*
D03*
X507700Y445000D02*
D03*
X497100Y436000D02*
D03*
X436300Y410000D02*
D03*
D102*
X560500Y470425D02*
D03*
Y472000D02*
D03*
X555382D02*
D03*
Y470425D02*
D03*
D114*
X573864Y413957D02*
D03*
Y379941D02*
D03*
D115*
X589612Y413957D02*
D03*
Y379941D02*
D03*
D124*
X319000Y483500D02*
D03*
D125*
X317000Y470437D02*
D03*
X320937D02*
D03*
X317000Y468469D02*
D03*
X320937D02*
D03*
X317000Y466500D02*
D03*
X320937D02*
D03*
D132*
X449200Y312400D02*
D03*
X469200D02*
D03*
X459200D02*
D03*
X558200D02*
D03*
X538200D02*
D03*
X548200D02*
D03*
M02*
