G04*
G04 #@! TF.GenerationSoftware,Altium Limited,Altium Designer,25.4.2 (15)*
G04*
G04 Layer_Color=32768*
%FSLAX25Y25*%
%MOIN*%
G70*
G04*
G04 #@! TF.SameCoordinates,4CCD4F96-9612-4F4B-9C4D-890E15692DA9*
G04*
G04*
G04 #@! TF.FilePolarity,Positive*
G04*
G01*
G75*
%ADD11C,0.00787*%
%ADD145C,0.00197*%
%ADD146C,0.00197*%
%ADD147C,0.00394*%
D11*
X459200Y310400D02*
Y314400D01*
X457200Y312400D02*
X461200D01*
X441200Y298400D02*
X450200D01*
X477200D01*
Y308400D01*
Y326400D01*
X441200D02*
X477200D01*
X441200Y298400D02*
Y326400D01*
X548200Y310400D02*
Y314400D01*
X546200Y312400D02*
X550200D01*
X557200Y326400D02*
X566200D01*
X530200D02*
X557200D01*
X530200Y316400D02*
Y326400D01*
Y298400D02*
Y316400D01*
Y298400D02*
X566200D01*
Y326400D01*
D145*
X391386Y315764D02*
G03*
X391425Y315724I39J0D01*
G01*
X389224Y480119D02*
G03*
X389185Y480158I-39J0D01*
G01*
X387055Y315724D02*
X391425D01*
X387055Y322339D02*
X391425D01*
X387055Y315724D02*
Y322339D01*
X391425Y315724D02*
Y322339D01*
X389185Y480158D02*
X393555D01*
X389185Y473544D02*
X393555D01*
Y480158D01*
X389185Y473544D02*
Y480158D01*
D146*
X399756Y322951D02*
Y343817D01*
X378890Y322951D02*
Y343817D01*
Y322951D02*
X399756D01*
X378890Y343817D02*
X399756D01*
X425319Y350142D02*
Y365890D01*
X441067Y350142D02*
Y365890D01*
X425319Y350142D02*
X441067D01*
X425319Y365890D02*
X441067D01*
X403134Y428472D02*
Y451307D01*
X425969Y428472D02*
Y451307D01*
X403134Y428472D02*
X425969D01*
X403134Y451307D02*
X425969D01*
X312110Y490390D02*
X325890D01*
Y476610D02*
Y490390D01*
X312110Y476610D02*
X325890D01*
X312110D02*
Y490390D01*
X392169Y316638D02*
X400831D01*
X392169Y321362D02*
X400831D01*
Y316638D02*
Y321362D01*
X392169Y316638D02*
Y321362D01*
X361925Y325815D02*
X365075D01*
X361925Y332114D02*
X365075D01*
X361925Y325815D02*
Y332114D01*
X365075Y325815D02*
Y332114D01*
X361925Y341185D02*
X365075D01*
X361925Y334886D02*
X365075D01*
Y341185D01*
X361925Y334886D02*
Y341185D01*
X367457Y343295D02*
X376118D01*
X367457Y348020D02*
X376118D01*
Y343295D02*
Y348020D01*
X367457Y343295D02*
Y348020D01*
Y348795D02*
Y353520D01*
X376118Y348795D02*
Y353520D01*
X367457D02*
X376118D01*
X367457Y348795D02*
X376118D01*
X410260Y316638D02*
Y321362D01*
X401598Y316638D02*
Y321362D01*
Y316638D02*
X410260D01*
X401598Y321362D02*
X410260D01*
X413425Y325815D02*
X416575D01*
X413425Y332114D02*
X416575D01*
X413425Y325815D02*
Y332114D01*
X416575Y325815D02*
Y332114D01*
X413425Y340650D02*
X416575D01*
X413425Y334350D02*
X416575D01*
Y340650D01*
X413425Y334350D02*
Y340650D01*
X402998Y350003D02*
X411660D01*
X402998Y345279D02*
X411660D01*
X402998D02*
Y350003D01*
X411660Y345279D02*
Y350003D01*
Y350638D02*
Y355362D01*
X402998Y350638D02*
Y355362D01*
Y350638D02*
X411660D01*
X402998Y355362D02*
X411660D01*
X408269Y420838D02*
Y425562D01*
X416931Y420838D02*
Y425562D01*
X408269D02*
X416931D01*
X408269Y420838D02*
X416931D01*
X432823Y419138D02*
Y423862D01*
X424161Y419138D02*
Y423862D01*
Y419138D02*
X432823D01*
X424161Y423862D02*
X432823D01*
X442339Y419138D02*
Y423862D01*
X433677Y419138D02*
Y423862D01*
Y419138D02*
X442339D01*
X433677Y423862D02*
X442339D01*
X489827Y385462D02*
X522150D01*
X489827Y417785D02*
X522150D01*
Y385462D02*
Y417785D01*
X489827Y385462D02*
Y417785D01*
X569962Y335120D02*
Y345474D01*
X580198D01*
Y335120D02*
Y345474D01*
X569962Y335120D02*
X580198D01*
X483598Y402559D02*
Y415551D01*
X467457Y402559D02*
X483598D01*
X467457D02*
Y415551D01*
X483598D01*
X570265Y425027D02*
Y447783D01*
X533572Y425027D02*
Y447783D01*
Y425027D02*
X570265D01*
X533572Y447783D02*
X570265D01*
X436334Y343687D02*
X453066D01*
X436334Y329513D02*
X453066D01*
X436334D02*
Y343687D01*
X453066Y329513D02*
Y343687D01*
X397835Y345866D02*
Y354134D01*
X402165Y345866D02*
Y354134D01*
X397835Y345866D02*
X402165D01*
X397835Y354134D02*
X402165D01*
X368638Y360183D02*
Y363332D01*
X374937Y360183D02*
Y363332D01*
X368638D02*
X374937D01*
X368638Y360183D02*
X374937D01*
X331835Y461866D02*
Y470134D01*
X336165Y461866D02*
Y470134D01*
X331835Y461866D02*
X336165D01*
X331835Y470134D02*
X336165D01*
X331835Y471866D02*
Y480134D01*
X336165Y471866D02*
Y480134D01*
X331835Y471866D02*
X336165D01*
X331835Y480134D02*
X336165D01*
X326735Y483166D02*
Y491434D01*
X331065Y483166D02*
Y491434D01*
X326735Y483166D02*
X331065D01*
X326735Y491434D02*
X331065D01*
X400150Y423925D02*
Y427075D01*
X406450Y423925D02*
Y427075D01*
X400150D02*
X406450D01*
X400150Y423925D02*
X406450D01*
X407504Y476063D02*
X420496D01*
X407504Y483937D02*
X420496D01*
Y476063D02*
Y483937D01*
X407504Y476063D02*
Y483937D01*
X548347Y334485D02*
Y345115D01*
X554253Y334485D02*
Y345115D01*
X548347Y334485D02*
X554253D01*
X548347Y345115D02*
X554253D01*
X541457Y392228D02*
X548543D01*
X541457Y395772D02*
X548543D01*
Y392228D02*
Y395772D01*
X541457Y392228D02*
Y395772D01*
Y398228D02*
X548543D01*
X541457Y401772D02*
X548543D01*
Y398228D02*
Y401772D01*
X541457Y398228D02*
Y401772D01*
X422555Y416717D02*
Y424985D01*
X418224Y416717D02*
Y424985D01*
X422555D01*
X418224Y416717D02*
X422555D01*
X420047Y467425D02*
X425953D01*
X420047Y470575D02*
X425953D01*
Y467425D02*
Y470575D01*
X420047Y467425D02*
Y470575D01*
X514366Y433835D02*
X522634D01*
X514366Y438165D02*
X522634D01*
Y433835D02*
Y438165D01*
X514366Y433835D02*
Y438165D01*
X504366Y438165D02*
X512634D01*
X504366Y433835D02*
X512634D01*
X504366D02*
Y438165D01*
X512634Y433835D02*
Y438165D01*
X558941Y478004D02*
Y485090D01*
X562484Y478004D02*
Y485090D01*
X558941Y478004D02*
X562484D01*
X558941Y485090D02*
X562484D01*
D147*
X387354Y333384D02*
X391291D01*
X389323Y331416D02*
Y335353D01*
X431224Y358016D02*
X435161D01*
X433193Y356047D02*
Y359984D01*
X412583Y439890D02*
X416520D01*
X414551Y437921D02*
Y441858D01*
X396500Y317917D02*
Y320083D01*
X395417Y319000D02*
X397583D01*
X363500Y327882D02*
Y330047D01*
X362417Y328965D02*
X364583D01*
X363500Y336953D02*
Y339118D01*
X362417Y338035D02*
X364583D01*
X371787Y344575D02*
Y346740D01*
X370705Y345657D02*
X372870D01*
X370705Y351157D02*
X372870D01*
X371787Y350075D02*
Y352240D01*
X404846Y319000D02*
X407012D01*
X405929Y317917D02*
Y320083D01*
X415000Y327882D02*
Y330047D01*
X413917Y328965D02*
X416083D01*
X415000Y336417D02*
Y338583D01*
X413917Y337500D02*
X416083D01*
X407329Y346558D02*
Y348724D01*
X406247Y347641D02*
X408412D01*
X406247Y353000D02*
X408412D01*
X407329Y351917D02*
Y354083D01*
X411517Y423200D02*
X413683D01*
X412600Y422117D02*
Y424283D01*
X427410Y421500D02*
X429575D01*
X428492Y420417D02*
Y422583D01*
X436925Y421500D02*
X439090D01*
X438008Y420417D02*
Y422583D01*
X444700Y334631D02*
Y338568D01*
X442732Y336600D02*
X446668D01*
X398228Y350000D02*
X401772D01*
X400000Y348228D02*
Y351772D01*
X370705Y361757D02*
X372870D01*
X371787Y360675D02*
Y362840D01*
X332228Y466000D02*
X335772D01*
X334000Y464228D02*
Y467772D01*
X332228Y476000D02*
X335772D01*
X334000Y474228D02*
Y477772D01*
X327128Y487300D02*
X330672D01*
X328900Y485528D02*
Y489072D01*
X402217Y425500D02*
X404383D01*
X403300Y424417D02*
Y426583D01*
X414000Y478228D02*
Y481772D01*
X412228Y480000D02*
X415772D01*
X549332Y339800D02*
X553268D01*
X551300Y337831D02*
Y341769D01*
X545000Y392917D02*
Y395083D01*
X543917Y394000D02*
X546083D01*
X545000Y398917D02*
Y401083D01*
X543917Y400000D02*
X546083D01*
X418618Y420851D02*
X422161D01*
X420390Y419079D02*
Y422623D01*
X423000Y467917D02*
Y470083D01*
X421917Y469000D02*
X424083D01*
X518500Y434228D02*
Y437772D01*
X516728Y436000D02*
X520272D01*
X508500Y434228D02*
Y437772D01*
X506728Y436000D02*
X510272D01*
X559630Y481547D02*
X561795D01*
X560713Y480465D02*
Y482630D01*
M02*
