G04*
G04 #@! TF.GenerationSoftware,Altium Limited,Altium Designer,25.4.2 (15)*
G04*
G04 Layer_Color=65535*
%FSLAX25Y25*%
%MOIN*%
G70*
G04*
G04 #@! TF.SameCoordinates,4CCD4F96-9612-4F4B-9C4D-890E15692DA9*
G04*
G04*
G04 #@! TF.FilePolarity,Positive*
G04*
G01*
G75*
%ADD10C,0.00984*%
%ADD11C,0.00787*%
%ADD12C,0.00500*%
%ADD13C,0.01000*%
%ADD14R,0.36800X0.05500*%
D10*
X519095Y481004D02*
G03*
X519095Y481004I-492J0D01*
G01*
X487697Y321358D02*
G03*
X487697Y321358I-492J0D01*
G01*
X543405Y378071D02*
G03*
X543405Y378071I-492J0D01*
G01*
X449311Y382559D02*
G03*
X449311Y382559I-492J0D01*
G01*
X423209Y316142D02*
G03*
X423209Y316142I-492J0D01*
G01*
X590650Y329016D02*
G03*
X590650Y329016I-492J0D01*
G01*
X520492Y364961D02*
G03*
X520492Y364961I-492J0D01*
G01*
X567565Y384370D02*
G03*
X567565Y384370I-492J0D01*
G01*
X401035Y325313D02*
G03*
X401035Y325313I-492J0D01*
G01*
X439295Y366776D02*
G03*
X439295Y366776I-492J0D01*
G01*
X425083Y453079D02*
G03*
X425083Y453079I-492J0D01*
G01*
X312079Y470437D02*
G03*
X312079Y470437I-492J0D01*
G01*
X390992Y314130D02*
G03*
X390992Y314130I-492J0D01*
G01*
Y481370D02*
G03*
X390992Y481370I-492J0D01*
G01*
X410845Y384840D02*
G03*
X410845Y384840I-492J0D01*
G01*
X438640Y451290D02*
G03*
X438640Y451290I-492J0D01*
G01*
X571921Y357260D02*
G03*
X571921Y357260I-492J0D01*
G01*
X564535Y470425D02*
G03*
X564535Y470425I-492J0D01*
G01*
X450507Y329513D02*
G03*
X450507Y329513I-492J0D01*
G01*
D11*
X311520Y488618D02*
G03*
X311520Y488618I-394J0D01*
G01*
X516618Y419242D02*
G03*
X516618Y419242I-394J0D01*
G01*
X572521Y333998D02*
G03*
X572521Y333998I-394J0D01*
G01*
X480449Y417500D02*
G03*
X480449Y417500I-394J0D01*
G01*
X531780Y443905D02*
G03*
X531780Y443905I-394J0D01*
G01*
X519488Y473992D02*
Y481914D01*
X526181Y473992D02*
Y481914D01*
X511909Y484547D02*
Y490256D01*
X497244Y496260D02*
X508858D01*
X494193Y484547D02*
Y490256D01*
X497244Y478543D02*
X508858D01*
X493898Y312106D02*
Y317815D01*
X496949Y306102D02*
X508563D01*
X511614Y312106D02*
Y317815D01*
X496949Y323819D02*
X508563D01*
X539665Y368012D02*
Y374508D01*
X546161Y368012D02*
Y374508D01*
X452067Y386122D02*
Y392618D01*
X445571Y386122D02*
Y392618D01*
X426279Y312894D02*
X432776D01*
X426279Y319390D02*
X432776D01*
X593405Y332579D02*
Y339075D01*
X586909Y332579D02*
Y339075D01*
X509941Y368209D02*
X516437D01*
X509941Y361713D02*
X516437D01*
X578884Y378957D02*
X583805D01*
X595419D02*
X598273D01*
Y414941D01*
X578884D02*
X583805D01*
X595419D02*
X598273D01*
X474200Y301400D02*
Y323400D01*
X444200D02*
X474200D01*
X444200Y301400D02*
Y323400D01*
X448200Y301400D02*
Y303400D01*
X470200D01*
Y301400D02*
Y303400D01*
X444200Y301400D02*
X474200D01*
X380661Y324723D02*
X382335D01*
X380661D02*
Y326396D01*
Y342046D02*
X382335D01*
X380661Y340372D02*
Y342046D01*
X396311D02*
X397984D01*
Y340372D02*
Y342046D01*
X396311Y324723D02*
X397984D01*
Y326396D01*
X533200Y301400D02*
Y323400D01*
Y301400D02*
X563200D01*
Y323400D01*
X559200Y321400D02*
Y323400D01*
X537200Y321400D02*
X559200D01*
X537200D02*
Y323400D01*
X533200D02*
X563200D01*
X426992Y363094D02*
Y364216D01*
X428114D01*
X426992Y351815D02*
Y352937D01*
Y351815D02*
X428114D01*
X438272D02*
X439394D01*
Y352937D01*
Y363094D02*
Y364216D01*
X438272D02*
X439394D01*
X423508Y450520D02*
X425181D01*
Y448846D02*
Y450520D01*
X403921D02*
X405594D01*
X403921Y448846D02*
Y450520D01*
Y429260D02*
X405594D01*
X403921D02*
Y430933D01*
X423508Y429260D02*
X425181D01*
Y430933D01*
X304101Y480202D02*
X309899D01*
X304101Y474798D02*
X309899D01*
X305031Y480441D02*
X308968D01*
X305031Y485559D02*
X308968D01*
X338347Y483508D02*
Y491429D01*
X331653Y483508D02*
Y491429D01*
X338653Y484154D02*
Y490846D01*
X345346Y484154D02*
Y490846D01*
X314854Y472583D02*
X323083D01*
Y464354D02*
Y472583D01*
X314854Y464354D02*
X323083D01*
X314854D02*
Y472583D01*
X396547Y352954D02*
Y359647D01*
X389854Y352954D02*
Y359647D01*
X388747Y353001D02*
Y359694D01*
X382053Y353001D02*
Y359694D01*
X398552Y416764D02*
X405245D01*
X398552Y423457D02*
X405245D01*
X402438Y379370D02*
Y386481D01*
X408762Y379370D02*
Y386481D01*
X398552Y409264D02*
X405245D01*
X398552Y415957D02*
X405245D01*
X417236Y411052D02*
Y417745D01*
X410543Y411052D02*
Y417745D01*
X406153Y452654D02*
X412847D01*
X406153Y459346D02*
X412847D01*
X406153Y459654D02*
X412847D01*
X406153Y466347D02*
X412847D01*
X406843Y468933D02*
Y473067D01*
X412180Y468912D02*
Y473046D01*
X417702Y468101D02*
Y473899D01*
X412298Y468101D02*
Y473899D01*
X435539Y366653D02*
X443461D01*
X435539Y373346D02*
X443461D01*
X425071D02*
X432992D01*
X425071Y366653D02*
X432992D01*
X431153Y380847D02*
X437847D01*
X431153Y374153D02*
X437847D01*
X429945Y381338D02*
X437055D01*
X429945Y387662D02*
X437055D01*
X430736Y409505D02*
Y416198D01*
X424043Y409505D02*
Y416198D01*
X431496Y431198D02*
X438189D01*
X431496Y424505D02*
X438189D01*
X431496Y438198D02*
X438189D01*
X431496Y431505D02*
X438189D01*
X429053Y452953D02*
Y459647D01*
X435746Y452953D02*
Y459647D01*
X384543Y464052D02*
Y470745D01*
X391236Y464052D02*
Y470745D01*
X392043Y464052D02*
Y470745D01*
X398736Y464052D02*
Y470745D01*
X519547Y373054D02*
Y379747D01*
X512853Y373054D02*
Y379747D01*
X467433Y396039D02*
X471567D01*
X467433Y400961D02*
X471567D01*
X469406Y380254D02*
X476099D01*
X469406Y386947D02*
X476099D01*
X469406Y387754D02*
X476099D01*
X469406Y394446D02*
X476099D01*
X507346Y373153D02*
Y379847D01*
X500654Y373153D02*
Y379847D01*
X529008Y387653D02*
X536929D01*
X529008Y394346D02*
X536929D01*
X529071Y381153D02*
X536992D01*
X529071Y387846D02*
X536992D01*
X562234Y330836D02*
Y338758D01*
X568927Y330836D02*
Y338758D01*
X553130Y355699D02*
Y362810D01*
X546807Y355699D02*
Y362810D01*
X580130Y355774D02*
Y362885D01*
X573807Y355774D02*
Y362885D01*
X473433Y416539D02*
X477567D01*
X473433Y421461D02*
X477567D01*
X492154Y423153D02*
X498846D01*
X492154Y429846D02*
X498846D01*
X539153Y409346D02*
X545847D01*
X539153Y402654D02*
X545847D01*
X539201Y416347D02*
X545894D01*
X539201Y409654D02*
X545894D01*
X539201Y423347D02*
X545894D01*
X539201Y416653D02*
X545894D01*
X579846Y437606D02*
Y444299D01*
X573153Y437606D02*
Y444299D01*
X375146Y314090D02*
X388138D01*
X375146Y298933D02*
Y314090D01*
X405854Y298933D02*
Y314090D01*
X392862D02*
X405854D01*
X366661Y333431D02*
X376339D01*
X366661Y324769D02*
X376339D01*
X402224Y324669D02*
X411902D01*
X402224Y333331D02*
X411902D01*
X402224Y333269D02*
X411902D01*
X402224Y341931D02*
X411902D01*
X435662Y331345D02*
Y338456D01*
X429338Y331345D02*
Y338456D01*
X452347Y361539D02*
Y369461D01*
X445653Y361539D02*
Y369461D01*
X310283Y464606D02*
Y471299D01*
X303590Y464606D02*
Y471299D01*
X368889Y359459D02*
X374686D01*
X368889Y354056D02*
X374686D01*
X392862Y481410D02*
X405854D01*
Y496567D01*
X375146Y481410D02*
Y496567D01*
Y481410D02*
X388138D01*
X418424Y387104D02*
X421376D01*
X423345Y380017D02*
Y382183D01*
X418424Y375096D02*
X421376D01*
X402202Y447601D02*
Y453399D01*
X396798Y447601D02*
Y453399D01*
X429067Y473719D02*
Y484790D01*
X421933Y473719D02*
Y484790D01*
X431531Y389744D02*
X435468D01*
X431531Y395299D02*
X435468D01*
X519703Y327453D02*
X527625D01*
X519703Y334146D02*
X527625D01*
X527046Y373054D02*
Y379747D01*
X520354Y373054D02*
Y379747D01*
X474039Y395153D02*
X481961D01*
X474039Y401847D02*
X481961D01*
X507344Y374632D02*
Y378569D01*
X512899Y374632D02*
Y378569D01*
X561946Y341439D02*
Y349361D01*
X555254Y341439D02*
Y349361D01*
X555037Y330651D02*
Y338943D01*
X562124Y330651D02*
Y338943D01*
X570241Y333628D02*
X579919D01*
X570241Y324966D02*
X579919D01*
X571054Y353243D02*
X579346D01*
X571054Y346157D02*
X579346D01*
X587444Y345731D02*
Y349669D01*
X592999Y345731D02*
Y349669D01*
X545756Y357331D02*
Y361268D01*
X540201Y357331D02*
Y361268D01*
X560405Y354996D02*
X563358D01*
X558437Y359917D02*
Y362083D01*
X560405Y367004D02*
X563358D01*
X517654Y421654D02*
Y428346D01*
X524346Y421654D02*
Y428346D01*
X551756Y464032D02*
Y467969D01*
X546201Y464032D02*
Y467969D01*
X554791Y476626D02*
X561091D01*
X554791Y465799D02*
X561091D01*
X554654Y457654D02*
X561346D01*
X554654Y464347D02*
X561346D01*
X547731Y476544D02*
X551669D01*
X547731Y482099D02*
X551669D01*
X380532Y316244D02*
X384469D01*
X380532Y321799D02*
X384469D01*
X366761Y342131D02*
X376439D01*
X366761Y333469D02*
X376439D01*
X442928Y330498D02*
Y342702D01*
X446472Y330498D02*
Y342702D01*
X442928D02*
X446472D01*
X442928Y330498D02*
X446472D01*
X429844Y323832D02*
Y327768D01*
X435399Y323832D02*
Y327768D01*
D12*
X316047Y489799D02*
X321559D01*
X316244Y477201D02*
X321756D01*
X434408Y440266D02*
X435392D01*
X434408Y448534D02*
X435392D01*
X517878Y415403D02*
X519768D01*
X492209D02*
X494098D01*
X517878Y387844D02*
X519768D01*
X492209D02*
X494098D01*
X519768Y413513D02*
Y415403D01*
X492209Y413513D02*
Y415403D01*
X519768Y387844D02*
Y389734D01*
X492209Y387844D02*
Y389734D01*
X570947Y339962D02*
Y340632D01*
X579214Y339962D02*
Y340632D01*
X475193Y404134D02*
X475862D01*
X475193Y413976D02*
X475862D01*
X541524Y426011D02*
X562312D01*
X541524Y446798D02*
X562312D01*
D13*
X357200Y489000D02*
X357699D01*
X358199Y489500D01*
Y491999D01*
X356700D01*
X356200Y491499D01*
Y490499D01*
X356700Y490000D01*
X358199D01*
X359199D02*
Y491999D01*
X360699D01*
X361198Y491499D01*
Y490000D01*
X364197Y492999D02*
Y490000D01*
X362698D01*
X362198Y490499D01*
Y491499D01*
X362698Y491999D01*
X364197D01*
X402393Y367142D02*
X402893D01*
X403393Y367642D01*
Y370141D01*
X401894D01*
X401394Y369641D01*
Y368641D01*
X401894Y368141D01*
X403393D01*
X404393D02*
Y370141D01*
X405892D01*
X406392Y369641D01*
Y368141D01*
X409391Y371140D02*
Y368141D01*
X407892D01*
X407392Y368641D01*
Y369641D01*
X407892Y370141D01*
X409391D01*
X408200Y392899D02*
X410199D01*
X409200Y393899D02*
Y391900D01*
X411199Y393899D02*
X411699Y394399D01*
X412699D01*
X413198Y393899D01*
Y393399D01*
X412699Y392899D01*
X412199D01*
X412699D01*
X413198Y392400D01*
Y391900D01*
X412699Y391400D01*
X411699D01*
X411199Y391900D01*
X414198Y394399D02*
Y392400D01*
X415198Y391400D01*
X416197Y392400D01*
Y394399D01*
X417197Y391400D02*
Y393399D01*
X418197Y394399D01*
X419196Y393399D01*
Y391400D01*
Y392899D01*
X417197D01*
X443913Y400137D02*
X445913D01*
X444913Y401137D02*
Y399138D01*
X446912Y401137D02*
X447412Y401637D01*
X448412D01*
X448912Y401137D01*
Y400637D01*
X448412Y400137D01*
X447912D01*
X448412D01*
X448912Y399638D01*
Y399138D01*
X448412Y398638D01*
X447412D01*
X446912Y399138D01*
X449911Y401637D02*
Y399638D01*
X450911Y398638D01*
X451911Y399638D01*
Y401637D01*
X452911Y398638D02*
Y400637D01*
X453910Y401637D01*
X454910Y400637D01*
Y398638D01*
Y400137D01*
X452911D01*
X433500Y401700D02*
X433999D01*
X434499Y402200D01*
Y404699D01*
X433000D01*
X432500Y404199D01*
Y403199D01*
X433000Y402700D01*
X434499D01*
X435499D02*
Y404699D01*
X436999D01*
X437498Y404199D01*
Y402700D01*
X440497Y405699D02*
Y402700D01*
X438998D01*
X438498Y403199D01*
Y404199D01*
X438998Y404699D01*
X440497D01*
X372100Y375200D02*
X374099D01*
X373100Y376199D02*
Y374200D01*
X377098Y376699D02*
X375099D01*
Y375200D01*
X376099Y375699D01*
X376599D01*
X377098Y375200D01*
Y374200D01*
X376599Y373700D01*
X375599D01*
X375099Y374200D01*
X378098Y376699D02*
Y374700D01*
X379098Y373700D01*
X380097Y374700D01*
Y376699D01*
X462700Y328700D02*
X464199D01*
X464699Y329200D01*
X464199Y329700D01*
X463200D01*
X462700Y330200D01*
X463200Y330699D01*
X464699D01*
X465699D02*
Y329200D01*
X466199Y328700D01*
X466699Y329200D01*
X467199Y328700D01*
X467698Y329200D01*
Y330699D01*
X470697Y331699D02*
Y328700D01*
X469198D01*
X468698Y329200D01*
Y330200D01*
X469198Y330699D01*
X470697D01*
X471697Y328700D02*
X472697D01*
X472197D01*
Y330699D01*
X471697D01*
X474696Y328700D02*
X475696D01*
X476196Y329200D01*
Y330200D01*
X475696Y330699D01*
X474696D01*
X474196Y330200D01*
Y329200D01*
X474696Y328700D01*
X498700Y330699D02*
Y328700D01*
Y329700D01*
X499200Y330200D01*
X499700Y330699D01*
X500200D01*
X501699D02*
Y329200D01*
X502199Y328700D01*
X503698D01*
Y330699D01*
X504698Y328700D02*
Y330699D01*
X506198D01*
X506697Y330200D01*
Y328700D01*
X510700Y346600D02*
Y349599D01*
X512199D01*
X512699Y349099D01*
Y348099D01*
X512199Y347600D01*
X510700D01*
X514199Y346600D02*
X515199D01*
X515698Y347100D01*
Y348099D01*
X515199Y348599D01*
X514199D01*
X513699Y348099D01*
Y347100D01*
X514199Y346600D01*
X516698Y348599D02*
Y347100D01*
X517198Y346600D01*
X517698Y347100D01*
X518198Y346600D01*
X518697Y347100D01*
Y348599D01*
X521197Y346600D02*
X520197D01*
X519697Y347100D01*
Y348099D01*
X520197Y348599D01*
X521197D01*
X521696Y348099D01*
Y347600D01*
X519697D01*
X522696Y348599D02*
Y346600D01*
Y347600D01*
X523196Y348099D01*
X523696Y348599D01*
X524196D01*
X535800Y331199D02*
Y330699D01*
X535300D01*
X536300D01*
X535800D01*
Y329200D01*
X536300Y328700D01*
X537799Y330699D02*
X539798Y328700D01*
X538799Y329700D01*
X539798Y330699D01*
X537799Y328700D01*
X545600Y330699D02*
Y328700D01*
Y329700D01*
X546100Y330200D01*
X546600Y330699D01*
X547099D01*
X548599D02*
X550598Y328700D01*
X549599Y329700D01*
X550598Y330699D01*
X548599Y328700D01*
X568500Y312800D02*
X568999D01*
X569499Y313300D01*
Y315799D01*
X568000D01*
X567500Y315299D01*
Y314300D01*
X568000Y313800D01*
X569499D01*
X570499D02*
Y315799D01*
X571999D01*
X572498Y315299D01*
Y313800D01*
X575497Y316799D02*
Y313800D01*
X573998D01*
X573498Y314300D01*
Y315299D01*
X573998Y315799D01*
X575497D01*
X548244Y376515D02*
X550243D01*
X549244Y377515D02*
Y375516D01*
X551243Y377515D02*
X551743Y378015D01*
X552743D01*
X553242Y377515D01*
Y377015D01*
X552743Y376515D01*
X552243D01*
X552743D01*
X553242Y376015D01*
Y375516D01*
X552743Y375016D01*
X551743D01*
X551243Y375516D01*
X554242Y378015D02*
Y376015D01*
X555242Y375016D01*
X556242Y376015D01*
Y378015D01*
X583677Y353362D02*
Y356361D01*
X585177D01*
X585676Y355861D01*
Y354862D01*
X585177Y354362D01*
X583677D01*
X587176Y353362D02*
X588176D01*
X588676Y353862D01*
Y354862D01*
X588176Y355362D01*
X587176D01*
X586676Y354862D01*
Y353862D01*
X587176Y353362D01*
X589675Y355362D02*
Y353862D01*
X590175Y353362D01*
X590675Y353862D01*
X591175Y353362D01*
X591675Y353862D01*
Y355362D01*
X594174Y353362D02*
X593174D01*
X592674Y353862D01*
Y354862D01*
X593174Y355362D01*
X594174D01*
X594674Y354862D01*
Y354362D01*
X592674D01*
X595673Y355362D02*
Y353362D01*
Y354362D01*
X596173Y354862D01*
X596673Y355362D01*
X597173D01*
X484000Y436099D02*
X485999D01*
X485000Y437099D02*
Y435100D01*
X486999Y437099D02*
X487499Y437599D01*
X488498D01*
X488998Y437099D01*
Y436599D01*
X488498Y436099D01*
X487999D01*
X488498D01*
X488998Y435600D01*
Y435100D01*
X488498Y434600D01*
X487499D01*
X486999Y435100D01*
X489998Y437599D02*
Y435600D01*
X490998Y434600D01*
X491997Y435600D01*
Y437599D01*
X498638Y470928D02*
Y467929D01*
X500137D01*
X500637Y468429D01*
Y468929D01*
Y469429D01*
X500137Y469929D01*
X498638D01*
X502137Y467929D02*
X503136D01*
X503636Y468429D01*
Y469429D01*
X503136Y469929D01*
X502137D01*
X501637Y469429D01*
Y468429D01*
X502137Y467929D01*
X505136D02*
X506135D01*
X506635Y468429D01*
Y469429D01*
X506135Y469929D01*
X505136D01*
X504636Y469429D01*
Y468429D01*
X505136Y467929D01*
X508135Y470428D02*
Y469929D01*
X507635D01*
X508635D01*
X508135D01*
Y468429D01*
X508635Y467929D01*
X505699Y451799D02*
X505199Y452299D01*
X504200D01*
X503700Y451799D01*
Y451299D01*
X504200Y450800D01*
X505199D01*
X505699Y450300D01*
Y449800D01*
X505199Y449300D01*
X504200D01*
X503700Y449800D01*
X508698Y451799D02*
X508198Y452299D01*
X507199D01*
X506699Y451799D01*
Y449800D01*
X507199Y449300D01*
X508198D01*
X508698Y449800D01*
X509698Y452299D02*
Y449300D01*
X511697D01*
X523499Y454699D02*
X522999Y455199D01*
X522000D01*
X521500Y454699D01*
Y454199D01*
X522000Y453699D01*
X522999D01*
X523499Y453200D01*
Y452700D01*
X522999Y452200D01*
X522000D01*
X521500Y452700D01*
X524499Y455199D02*
Y452200D01*
X525998D01*
X526498Y452700D01*
Y454699D01*
X525998Y455199D01*
X524499D01*
X527498Y452200D02*
Y454199D01*
X528498Y455199D01*
X529497Y454199D01*
Y452200D01*
Y453699D01*
X527498D01*
X582900Y429800D02*
X583399D01*
X583899Y430300D01*
Y432799D01*
X582400D01*
X581900Y432299D01*
Y431299D01*
X582400Y430800D01*
X583899D01*
X584899D02*
Y432799D01*
X586399D01*
X586898Y432299D01*
Y430800D01*
X589897Y433799D02*
Y430800D01*
X588398D01*
X587898Y431299D01*
Y432299D01*
X588398Y432799D01*
X589897D01*
X316099Y326099D02*
X314100D01*
Y323100D01*
X316099D01*
X314100Y324600D02*
X315100D01*
X319098Y326099D02*
X318099D01*
X318599D01*
Y323600D01*
X318099Y323100D01*
X317599D01*
X317099Y323600D01*
X320098Y326099D02*
Y323100D01*
Y324100D01*
X322097Y326099D01*
X320598Y324600D01*
X322097Y323100D01*
X288599Y326099D02*
X286600D01*
Y324600D01*
X287600D01*
X286600D01*
Y323100D01*
X289599Y326099D02*
Y325599D01*
X290599Y324600D01*
X291598Y325599D01*
Y326099D01*
X290599Y324600D02*
Y323100D01*
X292598Y326099D02*
Y323100D01*
X294098D01*
X294597Y323600D01*
Y325599D01*
X294098Y326099D01*
X292598D01*
X295597Y323100D02*
Y326099D01*
X297097D01*
X297596Y325599D01*
Y324600D01*
X297097Y324100D01*
X295597D01*
X301595Y326099D02*
Y324100D01*
X302595Y323100D01*
X303594Y324100D01*
Y326099D01*
X304594Y323100D02*
X305594D01*
X305094D01*
Y326099D01*
X304594Y325599D01*
X307093Y323100D02*
Y323600D01*
X307593D01*
Y323100D01*
X307093D01*
X309593D02*
X310592D01*
X310092D01*
Y326099D01*
X309593Y325599D01*
X414700Y298800D02*
X415200D01*
X415699Y299300D01*
Y301799D01*
X414200D01*
X413700Y301299D01*
Y300300D01*
X414200Y299800D01*
X415699D01*
X416699D02*
Y301799D01*
X418198D01*
X418698Y301299D01*
Y299800D01*
X421697Y302799D02*
Y299800D01*
X420198D01*
X419698Y300300D01*
Y301299D01*
X420198Y301799D01*
X421697D01*
X426900Y300100D02*
X428400D01*
X428899Y300600D01*
X428400Y301100D01*
X427400D01*
X426900Y301600D01*
X427400Y302099D01*
X428899D01*
X429899D02*
Y300600D01*
X430399Y300100D01*
X430899Y300600D01*
X431398Y300100D01*
X431898Y300600D01*
Y302099D01*
X434897D02*
X433398D01*
X432898Y301600D01*
Y300600D01*
X433398Y300100D01*
X434897D01*
X435897D02*
X436897D01*
X436397D01*
Y303099D01*
X435897D01*
X438396Y300100D02*
Y303099D01*
Y301100D02*
X439896Y302099D01*
X438396Y301100D02*
X439896Y300100D01*
X424700Y308699D02*
X426699D01*
X425700Y309699D02*
Y307700D01*
X429698Y310199D02*
X427699D01*
Y308699D01*
X428699Y309199D01*
X429199D01*
X429698Y308699D01*
Y307700D01*
X429199Y307200D01*
X428199D01*
X427699Y307700D01*
X430698Y310199D02*
Y308200D01*
X431698Y307200D01*
X432697Y308200D01*
Y310199D01*
X475200Y343600D02*
X477199D01*
X476200Y344599D02*
Y342600D01*
X480198Y345099D02*
X478199D01*
Y343600D01*
X479199Y344099D01*
X479699D01*
X480198Y343600D01*
Y342600D01*
X479699Y342100D01*
X478699D01*
X478199Y342600D01*
X481198Y342100D02*
Y342600D01*
X481698D01*
Y342100D01*
X481198D01*
X485697Y345099D02*
X483697D01*
Y343600D01*
X484697Y344099D01*
X485197D01*
X485697Y343600D01*
Y342600D01*
X485197Y342100D01*
X484197D01*
X483697Y342600D01*
D14*
X304400Y318350D02*
D03*
M02*
