G04*
G04 #@! TF.GenerationSoftware,Altium Limited,Altium Designer,25.4.2 (15)*
G04*
G04 Layer_Color=0*
%FSLAX25Y25*%
%MOIN*%
G70*
G04*
G04 #@! TF.SameCoordinates,4CCD4F96-9612-4F4B-9C4D-890E15692DA9*
G04*
G04*
G04 #@! TF.FilePolarity,Positive*
G04*
G01*
G75*
%ADD147C,0.00394*%
D147*
X520866Y477953D02*
X524803D01*
X522835Y475984D02*
Y479921D01*
X503051Y485433D02*
Y489370D01*
X501083Y487402D02*
X505020D01*
X502756Y312992D02*
Y316929D01*
X500787Y314961D02*
X504724D01*
X540945Y371260D02*
X544882D01*
X542913Y369291D02*
Y373228D01*
X446850Y389370D02*
X450787D01*
X448819Y387402D02*
Y391339D01*
X429528Y314173D02*
Y318110D01*
X427559Y316142D02*
X431496D01*
X588189Y335827D02*
X592126D01*
X590158Y333858D02*
Y337795D01*
X513189Y362992D02*
Y366929D01*
X511221Y364961D02*
X515158D01*
X583116Y396949D02*
X587053D01*
X585084Y394980D02*
Y398917D01*
X305031Y477500D02*
X308968D01*
X307000Y475531D02*
Y479468D01*
X305031Y483000D02*
X308968D01*
X307000Y481032D02*
Y484969D01*
X335000Y485500D02*
Y489437D01*
X333032Y487468D02*
X336968D01*
X342000Y485532D02*
Y489468D01*
X340032Y487500D02*
X343969D01*
X317000Y468469D02*
X320937D01*
X318969Y466500D02*
Y470437D01*
X393200Y354331D02*
Y358268D01*
X391231Y356300D02*
X395168D01*
X385400Y354379D02*
Y358316D01*
X383432Y356347D02*
X387368D01*
X399930Y420110D02*
X403867D01*
X401898Y418142D02*
Y422079D01*
X405600Y380957D02*
Y384894D01*
X403631Y382925D02*
X407569D01*
X399930Y412610D02*
X403867D01*
X401898Y410642D02*
Y414579D01*
X413890Y412430D02*
Y416367D01*
X411921Y414398D02*
X415858D01*
X407531Y456000D02*
X411469D01*
X409500Y454032D02*
Y457969D01*
X407531Y463000D02*
X411469D01*
X409500Y461031D02*
Y464968D01*
Y469031D02*
Y472968D01*
X407531Y471000D02*
X411469D01*
X415000Y469031D02*
Y472968D01*
X413031Y471000D02*
X416968D01*
X437532Y370000D02*
X441468D01*
X439500Y368032D02*
Y371969D01*
X427063Y370000D02*
X431000D01*
X429032Y368032D02*
Y371969D01*
X432531Y377500D02*
X436469D01*
X434500Y375532D02*
Y379468D01*
X431531Y384500D02*
X435468D01*
X433500Y382531D02*
Y386469D01*
X427390Y410883D02*
Y414820D01*
X425421Y412851D02*
X429358D01*
X432874Y427851D02*
X436811D01*
X434842Y425883D02*
Y429820D01*
X432874Y434851D02*
X436811D01*
X434842Y432883D02*
Y436820D01*
X432400Y454331D02*
Y458268D01*
X430432Y456300D02*
X434369D01*
X387890Y465430D02*
Y469367D01*
X385921Y467398D02*
X389858D01*
X395390Y465430D02*
Y469367D01*
X393421Y467398D02*
X397358D01*
X516200Y374431D02*
Y378368D01*
X514231Y376400D02*
X518168D01*
X467531Y398500D02*
X471468D01*
X469500Y396532D02*
Y400468D01*
X470784Y383600D02*
X474721D01*
X472753Y381631D02*
Y385568D01*
X470784Y391100D02*
X474721D01*
X472753Y389131D02*
Y393069D01*
X504000Y374532D02*
Y378468D01*
X502032Y376500D02*
X505969D01*
X531000Y391000D02*
X534937D01*
X532969Y389032D02*
Y392969D01*
X531063Y384500D02*
X535000D01*
X533032Y382531D02*
Y386469D01*
X565580Y332828D02*
Y336765D01*
X563612Y334797D02*
X567549D01*
X549968Y357286D02*
Y361223D01*
X548000Y359254D02*
X551937D01*
X576968Y357361D02*
Y361298D01*
X575000Y359329D02*
X578937D01*
X473531Y419000D02*
X477468D01*
X475500Y417031D02*
Y420968D01*
X493532Y426500D02*
X497469D01*
X495500Y424532D02*
Y428469D01*
X540531Y406000D02*
X544468D01*
X542500Y404032D02*
Y407969D01*
X540579Y413000D02*
X544516D01*
X542547Y411031D02*
Y414968D01*
X540579Y420000D02*
X544516D01*
X542547Y418032D02*
Y421969D01*
X576500Y438984D02*
Y442921D01*
X574532Y440953D02*
X578469D01*
X388531Y277279D02*
X392469D01*
X390500Y275311D02*
Y279248D01*
X369531Y329100D02*
X373468D01*
X371500Y327132D02*
Y331068D01*
X405094Y329000D02*
X409031D01*
X407063Y327031D02*
Y330968D01*
X405094Y337600D02*
X409031D01*
X407063Y335631D02*
Y339568D01*
X432500Y332931D02*
Y336869D01*
X430532Y334900D02*
X434469D01*
X449000Y363531D02*
Y367469D01*
X447031Y365500D02*
X450969D01*
X306937Y465984D02*
Y469921D01*
X304969Y467953D02*
X308906D01*
X369819Y356757D02*
X373756D01*
X371787Y354789D02*
Y358726D01*
X388531Y518221D02*
X392469D01*
X390500Y516252D02*
Y520189D01*
X417932Y381100D02*
X421869D01*
X419900Y379132D02*
Y383068D01*
X399500Y448531D02*
Y452468D01*
X397532Y450500D02*
X401469D01*
X425500Y477286D02*
Y481223D01*
X423531Y479255D02*
X427468D01*
X431531Y392500D02*
X435468D01*
X433500Y390531D02*
Y394468D01*
X434900Y442431D02*
Y446369D01*
X432932Y444400D02*
X436868D01*
X521696Y330800D02*
X525633D01*
X523664Y328832D02*
Y332769D01*
X523700Y374431D02*
Y378368D01*
X521732Y376400D02*
X525668D01*
X476031Y398500D02*
X479969D01*
X478000Y396532D02*
Y400468D01*
X510100Y374632D02*
Y378569D01*
X508132Y376600D02*
X512069D01*
X558600Y343431D02*
Y347369D01*
X556632Y345400D02*
X560569D01*
X558580Y332828D02*
Y336765D01*
X556612Y334797D02*
X560549D01*
X573112Y329297D02*
X577049D01*
X575080Y327328D02*
Y331265D01*
X573232Y349700D02*
X577169D01*
X575200Y347731D02*
Y351669D01*
X590200Y345731D02*
Y349669D01*
X588232Y347700D02*
X592169D01*
X543000Y357331D02*
Y361268D01*
X541032Y359300D02*
X544969D01*
X559913Y361000D02*
X563850D01*
X561882Y359032D02*
Y362968D01*
X521000Y423032D02*
Y426968D01*
X519031Y425000D02*
X522968D01*
X549000Y464032D02*
Y467969D01*
X547031Y466000D02*
X550969D01*
X555972Y471213D02*
X559909D01*
X557941Y469244D02*
Y473181D01*
X556032Y461000D02*
X559969D01*
X558000Y459031D02*
Y462968D01*
X547731Y479300D02*
X551669D01*
X549700Y477331D02*
Y481269D01*
X380532Y319000D02*
X384469D01*
X382500Y317032D02*
Y320969D01*
X369632Y337800D02*
X373569D01*
X371600Y335831D02*
Y339769D01*
X432600Y323832D02*
Y327768D01*
X430631Y325800D02*
X434569D01*
M02*
