G04*
G04 #@! TF.GenerationSoftware,Altium Limited,Altium Designer,25.4.2 (15)*
G04*
G04 Layer_Color=2752767*
%FSLAX25Y25*%
%MOIN*%
G70*
G04*
G04 #@! TF.SameCoordinates,4CCD4F96-9612-4F4B-9C4D-890E15692DA9*
G04*
G04*
G04 #@! TF.FilePolarity,Positive*
G04*
G01*
G75*
%ADD12C,0.00500*%
%ADD149C,0.00667*%
%ADD150C,0.00400*%
D12*
X589612Y411957D02*
X587612Y415957D01*
X591612D01*
X589612Y411957D01*
Y412757D02*
X588412Y415157D01*
X590812D01*
X589612Y412757D01*
Y377941D02*
X587612Y381941D01*
X591612D01*
X589612Y377941D01*
Y378741D02*
X588412Y381141D01*
X590812D01*
X589612Y378741D01*
X447200Y310400D02*
X448200Y312400D01*
X447200Y314400D01*
X449200Y313400D01*
X451200Y314400D01*
X450200Y312400D01*
X451200Y310400D01*
X449200Y311400D01*
X447200Y310400D01*
X467200D02*
X468200Y312400D01*
X467200Y314400D01*
X469200Y313400D01*
X471200Y314400D01*
X470200Y312400D01*
X471200Y310400D01*
X469200Y311400D01*
X467200Y310400D01*
X457200D02*
X458200Y312400D01*
X457200Y314400D01*
X459200Y313400D01*
X461200Y314400D01*
X460200Y312400D01*
X461200Y310400D01*
X459200Y311400D01*
X457200Y310400D01*
X556200D02*
X557200Y312400D01*
X556200Y314400D01*
X558200Y313400D01*
X560200Y314400D01*
X559200Y312400D01*
X560200Y310400D01*
X558200Y311400D01*
X556200Y310400D01*
X536200D02*
X537200Y312400D01*
X536200Y314400D01*
X538200Y313400D01*
X540200Y314400D01*
X539200Y312400D01*
X540200Y310400D01*
X538200Y311400D01*
X536200Y310400D01*
X546200D02*
X547200Y312400D01*
X546200Y314400D01*
X548200Y313400D01*
X550200Y314400D01*
X549200Y312400D01*
X550200Y310400D01*
X548200Y311400D01*
X546200Y310400D01*
X554900Y407600D02*
X552900Y411600D01*
X556900D01*
X554900Y407600D01*
X551900D02*
X549900Y411600D01*
X553900D01*
X551900Y407600D01*
X557800Y407547D02*
X555800Y411547D01*
X559800D01*
X557800Y407547D01*
X564625Y382300D02*
X562625Y386300D01*
X566625D01*
X564625Y382300D01*
X557700D02*
X555700Y386300D01*
X559700D01*
X557700Y382300D01*
X554400D02*
X552400Y386300D01*
X556400D01*
X554400Y382300D01*
X516142Y357842D02*
X517142Y358842D01*
X518142D01*
X517142Y359842D01*
X518142Y360842D01*
X517142D01*
X516142Y361842D01*
X515142Y360842D01*
X514142D01*
X515142Y359842D01*
X514142Y358842D01*
X515142D01*
X516142Y357842D01*
X542913Y379102D02*
X540913Y383102D01*
X544913D01*
X542913Y379102D01*
X517100Y328900D02*
X518100Y329900D01*
X519100D01*
X518100Y330900D01*
X519100Y331900D01*
X518100D01*
X517100Y332900D01*
X516100Y331900D01*
X515100D01*
X516100Y330900D01*
X515100Y329900D01*
X516100D01*
X517100Y328900D01*
X522835Y469153D02*
X523835Y470153D01*
X524835D01*
X523835Y471153D01*
X524835Y472153D01*
X523835D01*
X522835Y473153D01*
X521835Y472153D01*
X520835D01*
X521835Y471153D01*
X520835Y470153D01*
X521835D01*
X522835Y469153D01*
X502756Y306661D02*
X503756Y307661D01*
X504756D01*
X503756Y308661D01*
X504756Y309661D01*
X503756D01*
X502756Y310661D01*
X501756Y309661D01*
X500756D01*
X501756Y308661D01*
X500756Y307661D01*
X501756D01*
X502756Y306661D01*
X590158Y324772D02*
X588158Y328772D01*
X592158D01*
X590158Y324772D01*
X503051Y491701D02*
X504051Y492701D01*
X505051D01*
X504051Y493701D01*
X505051Y494701D01*
X504051D01*
X503051Y495701D01*
X502051Y494701D01*
X501051D01*
X502051Y493701D01*
X501051Y492701D01*
X502051D01*
X503051Y491701D01*
X439000Y304000D02*
Y308000D01*
X443000D01*
Y304000D01*
X439000D01*
X439800Y304800D02*
Y307200D01*
X442200D01*
Y304800D01*
X439800D01*
X361000Y376000D02*
Y380000D01*
X365000D01*
Y376000D01*
X361000D01*
X361800Y376800D02*
Y379200D01*
X364200D01*
Y376800D01*
X361800D01*
X388000Y442000D02*
Y446000D01*
X392000D01*
Y442000D01*
X388000D01*
X388800Y442800D02*
Y445200D01*
X391200D01*
Y442800D01*
X388800D01*
X448000Y490000D02*
Y494000D01*
X452000D01*
Y490000D01*
X448000D01*
X448800Y490800D02*
Y493200D01*
X451200D01*
Y490800D01*
X448800D01*
X403000Y388000D02*
Y392000D01*
X407000D01*
Y388000D01*
X403000D01*
X403800Y388800D02*
Y391200D01*
X406200D01*
Y388800D01*
X403800D01*
X529000Y484000D02*
Y488000D01*
X533000D01*
Y484000D01*
X529000D01*
X529800Y484800D02*
Y487200D01*
X532200D01*
Y484800D01*
X529800D01*
X460000Y334000D02*
Y338000D01*
X464000D01*
Y334000D01*
X460000D01*
X460800Y334800D02*
Y337200D01*
X463200D01*
Y334800D01*
X460800D01*
X526000Y310000D02*
Y314000D01*
X530000D01*
Y310000D01*
X526000D01*
X526800Y310800D02*
Y313200D01*
X529200D01*
Y310800D01*
X526800D01*
X421000Y340000D02*
Y344000D01*
X425000D01*
Y340000D01*
X421000D01*
X421800Y340800D02*
Y343200D01*
X424200D01*
Y340800D01*
X421800D01*
X499000Y340000D02*
Y344000D01*
X503000D01*
Y340000D01*
X499000D01*
X499800Y340800D02*
Y343200D01*
X502200D01*
Y340800D01*
X499800D01*
X466000Y478000D02*
Y482000D01*
X470000D01*
Y478000D01*
X466000D01*
X466800Y478800D02*
Y481200D01*
X469200D01*
Y478800D01*
X466800D01*
X574000Y466000D02*
Y470000D01*
X578000D01*
Y466000D01*
X574000D01*
X574800Y466800D02*
Y469200D01*
X577200D01*
Y466800D01*
X574800D01*
X460000Y478000D02*
Y482000D01*
X464000D01*
Y478000D01*
X460000D01*
X460800Y478800D02*
Y481200D01*
X463200D01*
Y478800D01*
X460800D01*
X430000Y490000D02*
Y494000D01*
X434000D01*
Y490000D01*
X430000D01*
X430800Y490800D02*
Y493200D01*
X433200D01*
Y490800D01*
X430800D01*
X550000Y394000D02*
Y398000D01*
X554000D01*
Y394000D01*
X550000D01*
X550800Y394800D02*
Y397200D01*
X553200D01*
Y394800D01*
X550800D01*
X574000Y478000D02*
Y482000D01*
X578000D01*
Y478000D01*
X574000D01*
X574800Y478800D02*
Y481200D01*
X577200D01*
Y478800D01*
X574800D01*
X358000Y406000D02*
Y410000D01*
X362000D01*
Y406000D01*
X358000D01*
X358800Y406800D02*
Y409200D01*
X361200D01*
Y406800D01*
X358800D01*
X403000Y400000D02*
Y404000D01*
X407000D01*
Y400000D01*
X403000D01*
X403800Y400800D02*
Y403200D01*
X406200D01*
Y400800D01*
X403800D01*
X358000Y370000D02*
Y374000D01*
X362000D01*
Y370000D01*
X358000D01*
X358800Y370800D02*
Y373200D01*
X361200D01*
Y370800D01*
X358800D01*
X568000Y298000D02*
Y302000D01*
X572000D01*
Y298000D01*
X568000D01*
X568800Y298800D02*
Y301200D01*
X571200D01*
Y298800D01*
X568800D01*
X451000Y448000D02*
Y452000D01*
X455000D01*
Y448000D01*
X451000D01*
X451800Y448800D02*
Y451200D01*
X454200D01*
Y448800D01*
X451800D01*
X571000Y448000D02*
Y452000D01*
X575000D01*
Y448000D01*
X571000D01*
X571800Y448800D02*
Y451200D01*
X574200D01*
Y448800D01*
X571800D01*
X382000Y394000D02*
Y398000D01*
X386000D01*
Y394000D01*
X382000D01*
X382800Y394800D02*
Y397200D01*
X385200D01*
Y394800D01*
X382800D01*
X361000Y388000D02*
Y392000D01*
X365000D01*
Y388000D01*
X361000D01*
X361800Y388800D02*
Y391200D01*
X364200D01*
Y388800D01*
X361800D01*
X475000Y460000D02*
Y464000D01*
X479000D01*
Y460000D01*
X475000D01*
X475800Y460800D02*
Y463200D01*
X478200D01*
Y460800D01*
X475800D01*
X568000Y310000D02*
Y314000D01*
X572000D01*
Y310000D01*
X568000D01*
X568800Y310800D02*
Y313200D01*
X571200D01*
Y310800D01*
X568800D01*
X550000Y442000D02*
Y446000D01*
X554000D01*
Y442000D01*
X550000D01*
X550800Y442800D02*
Y445200D01*
X553200D01*
Y442800D01*
X550800D01*
X463000Y484000D02*
Y488000D01*
X467000D01*
Y484000D01*
X463000D01*
X463800Y484800D02*
Y487200D01*
X466200D01*
Y484800D01*
X463800D01*
X370000Y442000D02*
Y446000D01*
X374000D01*
Y442000D01*
X370000D01*
X370800Y442800D02*
Y445200D01*
X373200D01*
Y442800D01*
X370800D01*
X490000Y454000D02*
Y458000D01*
X494000D01*
Y454000D01*
X490000D01*
X490800Y454800D02*
Y457200D01*
X493200D01*
Y454800D01*
X490800D01*
X517000Y460000D02*
Y464000D01*
X521000D01*
Y460000D01*
X517000D01*
X517800Y460800D02*
Y463200D01*
X520200D01*
Y460800D01*
X517800D01*
X577000Y472000D02*
Y476000D01*
X581000D01*
Y472000D01*
X577000D01*
X577800Y472800D02*
Y475200D01*
X580200D01*
Y472800D01*
X577800D01*
X571000Y460000D02*
Y464000D01*
X575000D01*
Y460000D01*
X571000D01*
X571800Y460800D02*
Y463200D01*
X574200D01*
Y460800D01*
X571800D01*
X478000Y322000D02*
Y326000D01*
X482000D01*
Y322000D01*
X478000D01*
X478800Y322800D02*
Y325200D01*
X481200D01*
Y322800D01*
X478800D01*
X379000Y388000D02*
Y392000D01*
X383000D01*
Y388000D01*
X379000D01*
X379800Y388800D02*
Y391200D01*
X382200D01*
Y388800D01*
X379800D01*
X487000Y412000D02*
Y416000D01*
X491000D01*
Y412000D01*
X487000D01*
X487800Y412800D02*
Y415200D01*
X490200D01*
Y412800D01*
X487800D01*
X589000Y460000D02*
Y464000D01*
X593000D01*
Y460000D01*
X589000D01*
X589800Y460800D02*
Y463200D01*
X592200D01*
Y460800D01*
X589800D01*
X577000Y304000D02*
Y308000D01*
X581000D01*
Y304000D01*
X577000D01*
X577800Y304800D02*
Y307200D01*
X580200D01*
Y304800D01*
X577800D01*
X475000Y484000D02*
Y488000D01*
X479000D01*
Y484000D01*
X475000D01*
X475800Y484800D02*
Y487200D01*
X478200D01*
Y484800D01*
X475800D01*
X475000Y448000D02*
Y452000D01*
X479000D01*
Y448000D01*
X475000D01*
X475800Y448800D02*
Y451200D01*
X478200D01*
Y448800D01*
X475800D01*
X586000Y454000D02*
Y458000D01*
X590000D01*
Y454000D01*
X586000D01*
X586800Y454800D02*
Y457200D01*
X589200D01*
Y454800D01*
X586800D01*
X460000Y490000D02*
Y494000D01*
X464000D01*
Y490000D01*
X460000D01*
X460800Y490800D02*
Y493200D01*
X463200D01*
Y490800D01*
X460800D01*
X571000Y484000D02*
Y488000D01*
X575000D01*
Y484000D01*
X571000D01*
X571800Y484800D02*
Y487200D01*
X574200D01*
Y484800D01*
X571800D01*
X544000Y298000D02*
Y302000D01*
X548000D01*
Y298000D01*
X544000D01*
X544800Y298800D02*
Y301200D01*
X547200D01*
Y298800D01*
X544800D01*
X511000Y472000D02*
Y476000D01*
X515000D01*
Y472000D01*
X511000D01*
X511800Y472800D02*
Y475200D01*
X514200D01*
Y472800D01*
X511800D01*
X466000Y298000D02*
Y302000D01*
X470000D01*
Y298000D01*
X466000D01*
X466800Y298800D02*
Y301200D01*
X469200D01*
Y298800D01*
X466800D01*
X448000Y454000D02*
Y458000D01*
X452000D01*
Y454000D01*
X448000D01*
X448800Y454800D02*
Y457200D01*
X451200D01*
Y454800D01*
X448800D01*
X391000Y400000D02*
Y404000D01*
X395000D01*
Y400000D01*
X391000D01*
X391800Y400800D02*
Y403200D01*
X394200D01*
Y400800D01*
X391800D01*
X370000Y406000D02*
Y410000D01*
X374000D01*
Y406000D01*
X370000D01*
X370800Y406800D02*
Y409200D01*
X373200D01*
Y406800D01*
X370800D01*
X448000Y322000D02*
Y326000D01*
X452000D01*
Y322000D01*
X448000D01*
X448800Y322800D02*
Y325200D01*
X451200D01*
Y322800D01*
X448800D01*
X427000Y304000D02*
Y308000D01*
X431000D01*
Y304000D01*
X427000D01*
X427800Y304800D02*
Y307200D01*
X430200D01*
Y304800D01*
X427800D01*
X460000Y442000D02*
Y446000D01*
X464000D01*
Y442000D01*
X460000D01*
X460800Y442800D02*
Y445200D01*
X463200D01*
Y442800D01*
X460800D01*
X535000Y472000D02*
Y476000D01*
X539000D01*
Y472000D01*
X535000D01*
X535800Y472800D02*
Y475200D01*
X538200D01*
Y472800D01*
X535800D01*
X589000Y472000D02*
Y476000D01*
X593000D01*
Y472000D01*
X589000D01*
X589800Y472800D02*
Y475200D01*
X592200D01*
Y472800D01*
X589800D01*
X457000Y460000D02*
Y464000D01*
X461000D01*
Y460000D01*
X457000D01*
X457800Y460800D02*
Y463200D01*
X460200D01*
Y460800D01*
X457800D01*
X544000Y490000D02*
Y494000D01*
X548000D01*
Y490000D01*
X544000D01*
X544800Y490800D02*
Y493200D01*
X547200D01*
Y490800D01*
X544800D01*
X493000Y352000D02*
Y356000D01*
X497000D01*
Y352000D01*
X493000D01*
X493800Y352800D02*
Y355200D01*
X496200D01*
Y352800D01*
X493800D01*
X454000Y298000D02*
Y302000D01*
X458000D01*
Y298000D01*
X454000D01*
X454800Y298800D02*
Y301200D01*
X457200D01*
Y298800D01*
X454800D01*
X481000Y328000D02*
Y332000D01*
X485000D01*
Y328000D01*
X481000D01*
X481800Y328800D02*
Y331200D01*
X484200D01*
Y328800D01*
X481800D01*
X370000Y418000D02*
Y422000D01*
X374000D01*
Y418000D01*
X370000D01*
X370800Y418800D02*
Y421200D01*
X373200D01*
Y418800D01*
X370800D01*
X361000Y448000D02*
Y452000D01*
X365000D01*
Y448000D01*
X361000D01*
X361800Y448800D02*
Y451200D01*
X364200D01*
Y448800D01*
X361800D01*
X526000Y478000D02*
Y482000D01*
X530000D01*
Y478000D01*
X526000D01*
X526800Y478800D02*
Y481200D01*
X529200D01*
Y478800D01*
X526800D01*
X511000Y340000D02*
Y344000D01*
X515000D01*
Y340000D01*
X511000D01*
X511800Y340800D02*
Y343200D01*
X514200D01*
Y340800D01*
X511800D01*
X583000Y448000D02*
Y452000D01*
X587000D01*
Y448000D01*
X583000D01*
X583800Y448800D02*
Y451200D01*
X586200D01*
Y448800D01*
X583800D01*
X514000Y466000D02*
Y470000D01*
X518000D01*
Y466000D01*
X514000D01*
X514800Y466800D02*
Y469200D01*
X517200D01*
Y466800D01*
X514800D01*
X589000Y448000D02*
Y452000D01*
X593000D01*
Y448000D01*
X589000D01*
X589800Y448800D02*
Y451200D01*
X592200D01*
Y448800D01*
X589800D01*
X460000Y454000D02*
Y458000D01*
X464000D01*
Y454000D01*
X460000D01*
X460800Y454800D02*
Y457200D01*
X463200D01*
Y454800D01*
X460800D01*
X361000Y304000D02*
Y308000D01*
X365000D01*
Y304000D01*
X361000D01*
X361800Y304800D02*
Y307200D01*
X364200D01*
Y304800D01*
X361800D01*
X559000Y400000D02*
Y404000D01*
X563000D01*
Y400000D01*
X559000D01*
X559800Y400800D02*
Y403200D01*
X562200D01*
Y400800D01*
X559800D01*
X550000Y490000D02*
Y494000D01*
X554000D01*
Y490000D01*
X550000D01*
X550800Y490800D02*
Y493200D01*
X553200D01*
Y490800D01*
X550800D01*
X460000Y298000D02*
Y302000D01*
X464000D01*
Y298000D01*
X460000D01*
X460800Y298800D02*
Y301200D01*
X463200D01*
Y298800D01*
X460800D01*
X508000Y358000D02*
Y362000D01*
X512000D01*
Y358000D01*
X508000D01*
X508800Y358800D02*
Y361200D01*
X511200D01*
Y358800D01*
X508800D01*
X580000Y454000D02*
Y458000D01*
X584000D01*
Y454000D01*
X580000D01*
X580800Y454800D02*
Y457200D01*
X583200D01*
Y454800D01*
X580800D01*
X364000Y370000D02*
Y374000D01*
X368000D01*
Y370000D01*
X364000D01*
X364800Y370800D02*
Y373200D01*
X367200D01*
Y370800D01*
X364800D01*
X529000Y316000D02*
Y320000D01*
X533000D01*
Y316000D01*
X529000D01*
X529800Y316800D02*
Y319200D01*
X532200D01*
Y316800D01*
X529800D01*
X541000Y340000D02*
Y344000D01*
X545000D01*
Y340000D01*
X541000D01*
X541800Y340800D02*
Y343200D01*
X544200D01*
Y340800D01*
X541800D01*
X415000Y364000D02*
Y368000D01*
X419000D01*
Y364000D01*
X415000D01*
X415800Y364800D02*
Y367200D01*
X418200D01*
Y364800D01*
X415800D01*
X487000Y352000D02*
Y356000D01*
X491000D01*
Y352000D01*
X487000D01*
X487800Y352800D02*
Y355200D01*
X490200D01*
Y352800D01*
X487800D01*
X577000Y460000D02*
Y464000D01*
X581000D01*
Y460000D01*
X577000D01*
X577800Y460800D02*
Y463200D01*
X580200D01*
Y460800D01*
X577800D01*
X511000Y460000D02*
Y464000D01*
X515000D01*
Y460000D01*
X511000D01*
X511800Y460800D02*
Y463200D01*
X514200D01*
Y460800D01*
X511800D01*
X487000Y328000D02*
Y332000D01*
X491000D01*
Y328000D01*
X487000D01*
X487800Y328800D02*
Y331200D01*
X490200D01*
Y328800D01*
X487800D01*
X442000Y322000D02*
Y326000D01*
X446000D01*
Y322000D01*
X442000D01*
X442800Y322800D02*
Y325200D01*
X445200D01*
Y322800D01*
X442800D01*
X529000Y472000D02*
Y476000D01*
X533000D01*
Y472000D01*
X529000D01*
X529800Y472800D02*
Y475200D01*
X532200D01*
Y472800D01*
X529800D01*
X454000Y454000D02*
Y458000D01*
X458000D01*
Y454000D01*
X454000D01*
X454800Y454800D02*
Y457200D01*
X457200D01*
Y454800D01*
X454800D01*
X409000Y364000D02*
Y368000D01*
X413000D01*
Y364000D01*
X409000D01*
X409800Y364800D02*
Y367200D01*
X412200D01*
Y364800D01*
X409800D01*
X379000Y400000D02*
Y404000D01*
X383000D01*
Y400000D01*
X379000D01*
X379800Y400800D02*
Y403200D01*
X382200D01*
Y400800D01*
X379800D01*
X373000Y412000D02*
Y416000D01*
X377000D01*
Y412000D01*
X373000D01*
X373800Y412800D02*
Y415200D01*
X376200D01*
Y412800D01*
X373800D01*
X367000Y424000D02*
Y428000D01*
X371000D01*
Y424000D01*
X367000D01*
X367800Y424800D02*
Y427200D01*
X370200D01*
Y424800D01*
X367800D01*
X508000Y298000D02*
Y302000D01*
X512000D01*
Y298000D01*
X508000D01*
X508800Y298800D02*
Y301200D01*
X511200D01*
Y298800D01*
X508800D01*
X382000Y442000D02*
Y446000D01*
X386000D01*
Y442000D01*
X382000D01*
X382800Y442800D02*
Y445200D01*
X385200D01*
Y442800D01*
X382800D01*
X370000Y322000D02*
Y326000D01*
X374000D01*
Y322000D01*
X370000D01*
X370800Y322800D02*
Y325200D01*
X373200D01*
Y322800D01*
X370800D01*
X358000Y310000D02*
Y314000D01*
X362000D01*
Y310000D01*
X358000D01*
X358800Y310800D02*
Y313200D01*
X361200D01*
Y310800D01*
X358800D01*
X367000Y412000D02*
Y416000D01*
X371000D01*
Y412000D01*
X367000D01*
X367800Y412800D02*
Y415200D01*
X370200D01*
Y412800D01*
X367800D01*
X454000Y490000D02*
Y494000D01*
X458000D01*
Y490000D01*
X454000D01*
X454800Y490800D02*
Y493200D01*
X457200D01*
Y490800D01*
X454800D01*
X397000Y400000D02*
Y404000D01*
X401000D01*
Y400000D01*
X397000D01*
X397800Y400800D02*
Y403200D01*
X400200D01*
Y400800D01*
X397800D01*
X379000Y436000D02*
Y440000D01*
X383000D01*
Y436000D01*
X379000D01*
X379800Y436800D02*
Y439200D01*
X382200D01*
Y436800D01*
X379800D01*
X442000Y298000D02*
Y302000D01*
X446000D01*
Y298000D01*
X442000D01*
X442800Y298800D02*
Y301200D01*
X445200D01*
Y298800D01*
X442800D01*
X376000Y430000D02*
Y434000D01*
X380000D01*
Y430000D01*
X376000D01*
X376800Y430800D02*
Y433200D01*
X379200D01*
Y430800D01*
X376800D01*
X583000Y340000D02*
Y344000D01*
X587000D01*
Y340000D01*
X583000D01*
X583800Y340800D02*
Y343200D01*
X586200D01*
Y340800D01*
X583800D01*
X583000Y472000D02*
Y476000D01*
X587000D01*
Y472000D01*
X583000D01*
X583800Y472800D02*
Y475200D01*
X586200D01*
Y472800D01*
X583800D01*
X472000Y442000D02*
Y446000D01*
X476000D01*
Y442000D01*
X472000D01*
X472800Y442800D02*
Y445200D01*
X475200D01*
Y442800D01*
X472800D01*
X448000Y298000D02*
Y302000D01*
X452000D01*
Y298000D01*
X448000D01*
X448800Y298800D02*
Y301200D01*
X451200D01*
Y298800D01*
X448800D01*
X367000Y484000D02*
Y488000D01*
X371000D01*
Y484000D01*
X367000D01*
X367800Y484800D02*
Y487200D01*
X370200D01*
Y484800D01*
X367800D01*
X520000Y442000D02*
Y446000D01*
X524000D01*
Y442000D01*
X520000D01*
X520800Y442800D02*
Y445200D01*
X523200D01*
Y442800D01*
X520800D01*
X463000Y448000D02*
Y452000D01*
X467000D01*
Y448000D01*
X463000D01*
X463800Y448800D02*
Y451200D01*
X466200D01*
Y448800D01*
X463800D01*
X451000Y460000D02*
Y464000D01*
X455000D01*
Y460000D01*
X451000D01*
X451800Y460800D02*
Y463200D01*
X454200D01*
Y460800D01*
X451800D01*
X454000Y478000D02*
Y482000D01*
X458000D01*
Y478000D01*
X454000D01*
X454800Y478800D02*
Y481200D01*
X457200D01*
Y478800D01*
X454800D01*
X382000Y370000D02*
Y374000D01*
X386000D01*
Y370000D01*
X382000D01*
X382800Y370800D02*
Y373200D01*
X385200D01*
Y370800D01*
X382800D01*
X454000Y442000D02*
Y446000D01*
X458000D01*
Y442000D01*
X454000D01*
X454800Y442800D02*
Y445200D01*
X457200D01*
Y442800D01*
X454800D01*
X535000Y364000D02*
Y368000D01*
X539000D01*
Y364000D01*
X535000D01*
X535800Y364800D02*
Y367200D01*
X538200D01*
Y364800D01*
X535800D01*
X469000Y436000D02*
Y440000D01*
X473000D01*
Y436000D01*
X469000D01*
X469800Y436800D02*
Y439200D01*
X472200D01*
Y436800D01*
X469800D01*
X574000Y298000D02*
Y302000D01*
X578000D01*
Y298000D01*
X574000D01*
X574800Y298800D02*
Y301200D01*
X577200D01*
Y298800D01*
X574800D01*
X463000Y424000D02*
Y428000D01*
X467000D01*
Y424000D01*
X463000D01*
X463800Y424800D02*
Y427200D01*
X466200D01*
Y424800D01*
X463800D01*
X376000Y382000D02*
Y386000D01*
X380000D01*
Y382000D01*
X376000D01*
X376800Y382800D02*
Y385200D01*
X379200D01*
Y382800D01*
X376800D01*
X481000Y460000D02*
Y464000D01*
X485000D01*
Y460000D01*
X481000D01*
X481800Y460800D02*
Y463200D01*
X484200D01*
Y460800D01*
X481800D01*
X370000Y454000D02*
Y458000D01*
X374000D01*
Y454000D01*
X370000D01*
X370800Y454800D02*
Y457200D01*
X373200D01*
Y454800D01*
X370800D01*
X586000Y466000D02*
Y470000D01*
X590000D01*
Y466000D01*
X586000D01*
X586800Y466800D02*
Y469200D01*
X589200D01*
Y466800D01*
X586800D01*
X469000Y352000D02*
Y356000D01*
X473000D01*
Y352000D01*
X469000D01*
X469800Y352800D02*
Y355200D01*
X472200D01*
Y352800D01*
X469800D01*
X424000Y346000D02*
Y350000D01*
X428000D01*
Y346000D01*
X424000D01*
X424800Y346800D02*
Y349200D01*
X427200D01*
Y346800D01*
X424800D01*
X370000Y394000D02*
Y398000D01*
X374000D01*
Y394000D01*
X370000D01*
X370800Y394800D02*
Y397200D01*
X373200D01*
Y394800D01*
X370800D01*
X505000Y460000D02*
Y464000D01*
X509000D01*
Y460000D01*
X505000D01*
X505800Y460800D02*
Y463200D01*
X508200D01*
Y460800D01*
X505800D01*
X541000Y328000D02*
Y332000D01*
X545000D01*
Y328000D01*
X541000D01*
X541800Y328800D02*
Y331200D01*
X544200D01*
Y328800D01*
X541800D01*
X394000Y382000D02*
Y386000D01*
X398000D01*
Y382000D01*
X394000D01*
X394800Y382800D02*
Y385200D01*
X397200D01*
Y382800D01*
X394800D01*
X532000Y490000D02*
Y494000D01*
X536000D01*
Y490000D01*
X532000D01*
X532800Y490800D02*
Y493200D01*
X535200D01*
Y490800D01*
X532800D01*
X436000Y490000D02*
Y494000D01*
X440000D01*
Y490000D01*
X436000D01*
X436800Y490800D02*
Y493200D01*
X439200D01*
Y490800D01*
X436800D01*
X538000Y478000D02*
Y482000D01*
X542000D01*
Y478000D01*
X538000D01*
X538800Y478800D02*
Y481200D01*
X541200D01*
Y478800D01*
X538800D01*
X379000Y424000D02*
Y428000D01*
X383000D01*
Y424000D01*
X379000D01*
X379800Y424800D02*
Y427200D01*
X382200D01*
Y424800D01*
X379800D01*
X367000Y316000D02*
Y320000D01*
X371000D01*
Y316000D01*
X367000D01*
X367800Y316800D02*
Y319200D01*
X370200D01*
Y316800D01*
X367800D01*
X517000Y340000D02*
Y344000D01*
X521000D01*
Y340000D01*
X517000D01*
X517800Y340800D02*
Y343200D01*
X520200D01*
Y340800D01*
X517800D01*
X358000Y382000D02*
Y386000D01*
X362000D01*
Y382000D01*
X358000D01*
X358800Y382800D02*
Y385200D01*
X361200D01*
Y382800D01*
X358800D01*
X397000Y364000D02*
Y368000D01*
X401000D01*
Y364000D01*
X397000D01*
X397800Y364800D02*
Y367200D01*
X400200D01*
Y364800D01*
X397800D01*
X391000Y388000D02*
Y392000D01*
X395000D01*
Y388000D01*
X391000D01*
X391800Y388800D02*
Y391200D01*
X394200D01*
Y388800D01*
X391800D01*
X367000Y304000D02*
Y308000D01*
X371000D01*
Y304000D01*
X367000D01*
X367800Y304800D02*
Y307200D01*
X370200D01*
Y304800D01*
X367800D01*
X436000Y310000D02*
Y314000D01*
X440000D01*
Y310000D01*
X436000D01*
X436800Y310800D02*
Y313200D01*
X439200D01*
Y310800D01*
X436800D01*
X472000Y334000D02*
Y338000D01*
X476000D01*
Y334000D01*
X472000D01*
X472800Y334800D02*
Y337200D01*
X475200D01*
Y334800D01*
X472800D01*
X373000Y388000D02*
Y392000D01*
X377000D01*
Y388000D01*
X373000D01*
X373800Y388800D02*
Y391200D01*
X376200D01*
Y388800D01*
X373800D01*
X472000Y478000D02*
Y482000D01*
X476000D01*
Y478000D01*
X472000D01*
X472800Y478800D02*
Y481200D01*
X475200D01*
Y478800D01*
X472800D01*
X358000Y394000D02*
Y398000D01*
X362000D01*
Y394000D01*
X358000D01*
X358800Y394800D02*
Y397200D01*
X361200D01*
Y394800D01*
X358800D01*
X571000Y472000D02*
Y476000D01*
X575000D01*
Y472000D01*
X571000D01*
X571800Y472800D02*
Y475200D01*
X574200D01*
Y472800D01*
X571800D01*
X526000Y442000D02*
Y446000D01*
X530000D01*
Y442000D01*
X526000D01*
X526800Y442800D02*
Y445200D01*
X529200D01*
Y442800D01*
X526800D01*
X541000Y304000D02*
Y308000D01*
X545000D01*
Y304000D01*
X541000D01*
X541800Y304800D02*
Y307200D01*
X544200D01*
Y304800D01*
X541800D01*
X373000Y400000D02*
Y404000D01*
X377000D01*
Y400000D01*
X373000D01*
X373800Y400800D02*
Y403200D01*
X376200D01*
Y400800D01*
X373800D01*
X472000Y298000D02*
Y302000D01*
X476000D01*
Y298000D01*
X472000D01*
X472800Y298800D02*
Y301200D01*
X475200D01*
Y298800D01*
X472800D01*
X547000Y436000D02*
Y440000D01*
X551000D01*
Y436000D01*
X547000D01*
X547800Y436800D02*
Y439200D01*
X550200D01*
Y436800D01*
X547800D01*
X496000Y346000D02*
Y350000D01*
X500000D01*
Y346000D01*
X496000D01*
X496800Y346800D02*
Y349200D01*
X499200D01*
Y346800D01*
X496800D01*
X388000Y430000D02*
Y434000D01*
X392000D01*
Y430000D01*
X388000D01*
X388800Y430800D02*
Y433200D01*
X391200D01*
Y430800D01*
X388800D01*
X361000Y436000D02*
Y440000D01*
X365000D01*
Y436000D01*
X361000D01*
X361800Y436800D02*
Y439200D01*
X364200D01*
Y436800D01*
X361800D01*
X472000Y322000D02*
Y326000D01*
X476000D01*
Y322000D01*
X472000D01*
X472800Y322800D02*
Y325200D01*
X475200D01*
Y322800D01*
X472800D01*
X502000Y346000D02*
Y350000D01*
X506000D01*
Y346000D01*
X502000D01*
X502800Y346800D02*
Y349200D01*
X505200D01*
Y346800D01*
X502800D01*
X448000Y346000D02*
Y350000D01*
X452000D01*
Y346000D01*
X448000D01*
X448800Y346800D02*
Y349200D01*
X451200D01*
Y346800D01*
X448800D01*
X538000Y490000D02*
Y494000D01*
X542000D01*
Y490000D01*
X538000D01*
X538800Y490800D02*
Y493200D01*
X541200D01*
Y490800D01*
X538800D01*
X433000Y304000D02*
Y308000D01*
X437000D01*
Y304000D01*
X433000D01*
X433800Y304800D02*
Y307200D01*
X436200D01*
Y304800D01*
X433800D01*
X433000Y484000D02*
Y488000D01*
X437000D01*
Y484000D01*
X433000D01*
X433800Y484800D02*
Y487200D01*
X436200D01*
Y484800D01*
X433800D01*
X418000Y490000D02*
Y494000D01*
X422000D01*
Y490000D01*
X418000D01*
X418800Y490800D02*
Y493200D01*
X421200D01*
Y490800D01*
X418800D01*
X379000Y364000D02*
Y368000D01*
X383000D01*
Y364000D01*
X379000D01*
X379800Y364800D02*
Y367200D01*
X382200D01*
Y364800D01*
X379800D01*
X373000Y436000D02*
Y440000D01*
X377000D01*
Y436000D01*
X373000D01*
X373800Y436800D02*
Y439200D01*
X376200D01*
Y436800D01*
X373800D01*
X589000Y364000D02*
Y368000D01*
X593000D01*
Y364000D01*
X589000D01*
X589800Y364800D02*
Y367200D01*
X592200D01*
Y364800D01*
X589800D01*
X469000Y484000D02*
Y488000D01*
X473000D01*
Y484000D01*
X469000D01*
X469800Y484800D02*
Y487200D01*
X472200D01*
Y484800D01*
X469800D01*
X580000Y310000D02*
Y314000D01*
X584000D01*
Y310000D01*
X580000D01*
X580800Y310800D02*
Y313200D01*
X583200D01*
Y310800D01*
X580800D01*
X457000Y484000D02*
Y488000D01*
X461000D01*
Y484000D01*
X457000D01*
X457800Y484800D02*
Y487200D01*
X460200D01*
Y484800D01*
X457800D01*
X457000Y328000D02*
Y332000D01*
X461000D01*
Y328000D01*
X457000D01*
X457800Y328800D02*
Y331200D01*
X460200D01*
Y328800D01*
X457800D01*
X451000Y484000D02*
Y488000D01*
X455000D01*
Y484000D01*
X451000D01*
X451800Y484800D02*
Y487200D01*
X454200D01*
Y484800D01*
X451800D01*
X538000Y322000D02*
Y326000D01*
X542000D01*
Y322000D01*
X538000D01*
X538800Y322800D02*
Y325200D01*
X541200D01*
Y322800D01*
X538800D01*
X361000Y400000D02*
Y404000D01*
X365000D01*
Y400000D01*
X361000D01*
X361800Y400800D02*
Y403200D01*
X364200D01*
Y400800D01*
X361800D01*
X466000Y442000D02*
Y446000D01*
X470000D01*
Y442000D01*
X466000D01*
X466800Y442800D02*
Y445200D01*
X469200D01*
Y442800D01*
X466800D01*
X538000Y346000D02*
Y350000D01*
X542000D01*
Y346000D01*
X538000D01*
X538800Y346800D02*
Y349200D01*
X541200D01*
Y346800D01*
X538800D01*
X493000Y448000D02*
Y452000D01*
X497000D01*
Y448000D01*
X493000D01*
X493800Y448800D02*
Y451200D01*
X496200D01*
Y448800D01*
X493800D01*
X565000Y400000D02*
Y404000D01*
X569000D01*
Y400000D01*
X565000D01*
X565800Y400800D02*
Y403200D01*
X568200D01*
Y400800D01*
X565800D01*
X583000Y364000D02*
Y368000D01*
X587000D01*
Y364000D01*
X583000D01*
X583800Y364800D02*
Y367200D01*
X586200D01*
Y364800D01*
X583800D01*
X556000Y490000D02*
Y494000D01*
X560000D01*
Y490000D01*
X556000D01*
X556800Y490800D02*
Y493200D01*
X559200D01*
Y490800D01*
X556800D01*
X538000Y298000D02*
Y302000D01*
X542000D01*
Y298000D01*
X538000D01*
X538800Y298800D02*
Y301200D01*
X541200D01*
Y298800D01*
X538800D01*
X484000Y346000D02*
Y350000D01*
X488000D01*
Y346000D01*
X484000D01*
X484800Y346800D02*
Y349200D01*
X487200D01*
Y346800D01*
X484800D01*
X448000Y478000D02*
Y482000D01*
X452000D01*
Y478000D01*
X448000D01*
X448800Y478800D02*
Y481200D01*
X451200D01*
Y478800D01*
X448800D01*
X424000Y322000D02*
Y326000D01*
X428000D01*
Y322000D01*
X424000D01*
X424800Y322800D02*
Y325200D01*
X427200D01*
Y322800D01*
X424800D01*
X475000Y436000D02*
Y440000D01*
X479000D01*
Y436000D01*
X475000D01*
X475800Y436800D02*
Y439200D01*
X478200D01*
Y436800D01*
X475800D01*
X364000Y298000D02*
Y302000D01*
X368000D01*
Y298000D01*
X364000D01*
X364800Y298800D02*
Y301200D01*
X367200D01*
Y298800D01*
X364800D01*
X376000Y394000D02*
Y398000D01*
X380000D01*
Y394000D01*
X376000D01*
X376800Y394800D02*
Y397200D01*
X379200D01*
Y394800D01*
X376800D01*
X367000Y376000D02*
Y380000D01*
X371000D01*
Y376000D01*
X367000D01*
X367800Y376800D02*
Y379200D01*
X370200D01*
Y376800D01*
X367800D01*
X358000Y442000D02*
Y446000D01*
X362000D01*
Y442000D01*
X358000D01*
X358800Y442800D02*
Y445200D01*
X361200D01*
Y442800D01*
X358800D01*
X541000Y316000D02*
Y320000D01*
X545000D01*
Y316000D01*
X541000D01*
X541800Y316800D02*
Y319200D01*
X544200D01*
Y316800D01*
X541800D01*
X478000Y442000D02*
Y446000D01*
X482000D01*
Y442000D01*
X478000D01*
X478800Y442800D02*
Y445200D01*
X481200D01*
Y442800D01*
X478800D01*
X571000Y304000D02*
Y308000D01*
X575000D01*
Y304000D01*
X571000D01*
X571800Y304800D02*
Y307200D01*
X574200D01*
Y304800D01*
X571800D01*
X574000Y454000D02*
Y458000D01*
X578000D01*
Y454000D01*
X574000D01*
X574800Y454800D02*
Y457200D01*
X577200D01*
Y454800D01*
X574800D01*
X391000Y376000D02*
Y380000D01*
X395000D01*
Y376000D01*
X391000D01*
X391800Y376800D02*
Y379200D01*
X394200D01*
Y376800D01*
X391800D01*
X370000Y430000D02*
Y434000D01*
X374000D01*
Y430000D01*
X370000D01*
X370800Y430800D02*
Y433200D01*
X373200D01*
Y430800D01*
X370800D01*
X478000Y478000D02*
Y482000D01*
X482000D01*
Y478000D01*
X478000D01*
X478800Y478800D02*
Y481200D01*
X481200D01*
Y478800D01*
X478800D01*
X445000Y460000D02*
Y464000D01*
X449000D01*
Y460000D01*
X445000D01*
X445800Y460800D02*
Y463200D01*
X448200D01*
Y460800D01*
X445800D01*
X469000Y448000D02*
Y452000D01*
X473000D01*
Y448000D01*
X469000D01*
X469800Y448800D02*
Y451200D01*
X472200D01*
Y448800D01*
X469800D01*
X364000Y442000D02*
Y446000D01*
X368000D01*
Y442000D01*
X364000D01*
X364800Y442800D02*
Y445200D01*
X367200D01*
Y442800D01*
X364800D01*
X568000Y466000D02*
Y470000D01*
X572000D01*
Y466000D01*
X568000D01*
X568800Y466800D02*
Y469200D01*
X571200D01*
Y466800D01*
X568800D01*
X550000Y322000D02*
Y326000D01*
X554000D01*
Y322000D01*
X550000D01*
X550800Y322800D02*
Y325200D01*
X553200D01*
Y322800D01*
X550800D01*
X547000Y484000D02*
Y488000D01*
X551000D01*
Y484000D01*
X547000D01*
X547800Y484800D02*
Y487200D01*
X550200D01*
Y484800D01*
X547800D01*
X379000Y448000D02*
Y452000D01*
X383000D01*
Y448000D01*
X379000D01*
X379800Y448800D02*
Y451200D01*
X382200D01*
Y448800D01*
X379800D01*
X364000Y418000D02*
Y422000D01*
X368000D01*
Y418000D01*
X364000D01*
X364800Y418800D02*
Y421200D01*
X367200D01*
Y418800D01*
X364800D01*
X367000Y460000D02*
Y464000D01*
X371000D01*
Y460000D01*
X367000D01*
X367800Y460800D02*
Y463200D01*
X370200D01*
Y460800D01*
X367800D01*
X544000Y322000D02*
Y326000D01*
X548000D01*
Y322000D01*
X544000D01*
X544800Y322800D02*
Y325200D01*
X547200D01*
Y322800D01*
X544800D01*
X463000Y436000D02*
Y440000D01*
X467000D01*
Y436000D01*
X463000D01*
X463800Y436800D02*
Y439200D01*
X466200D01*
Y436800D01*
X463800D01*
X478000Y346000D02*
Y350000D01*
X482000D01*
Y346000D01*
X478000D01*
X478800Y346800D02*
Y349200D01*
X481200D01*
Y346800D01*
X478800D01*
X505000Y472000D02*
Y476000D01*
X509000D01*
Y472000D01*
X505000D01*
X505800Y472800D02*
Y475200D01*
X508200D01*
Y472800D01*
X505800D01*
X547000Y448000D02*
Y452000D01*
X551000D01*
Y448000D01*
X547000D01*
X547800Y448800D02*
Y451200D01*
X550200D01*
Y448800D01*
X547800D01*
X373000Y424000D02*
Y428000D01*
X377000D01*
Y424000D01*
X373000D01*
X373800Y424800D02*
Y427200D01*
X376200D01*
Y424800D01*
X373800D01*
X586000Y358000D02*
Y362000D01*
X590000D01*
Y358000D01*
X586000D01*
X586800Y358800D02*
Y361200D01*
X589200D01*
Y358800D01*
X586800D01*
X472000Y346000D02*
Y350000D01*
X476000D01*
Y346000D01*
X472000D01*
X472800Y346800D02*
Y349200D01*
X475200D01*
Y346800D01*
X472800D01*
X358000Y478000D02*
Y482000D01*
X362000D01*
Y478000D01*
X358000D01*
X358800Y478800D02*
Y481200D01*
X361200D01*
Y478800D01*
X358800D01*
X484000Y454000D02*
Y458000D01*
X488000D01*
Y454000D01*
X484000D01*
X484800Y454800D02*
Y457200D01*
X487200D01*
Y454800D01*
X484800D01*
X526000Y322000D02*
Y326000D01*
X530000D01*
Y322000D01*
X526000D01*
X526800Y322800D02*
Y325200D01*
X529200D01*
Y322800D01*
X526800D01*
X487000Y448000D02*
Y452000D01*
X491000D01*
Y448000D01*
X487000D01*
X487800Y448800D02*
Y451200D01*
X490200D01*
Y448800D01*
X487800D01*
X475000Y316000D02*
Y320000D01*
X479000D01*
Y316000D01*
X475000D01*
X475800Y316800D02*
Y319200D01*
X478200D01*
Y316800D01*
X475800D01*
X493000Y472000D02*
Y476000D01*
X497000D01*
Y472000D01*
X493000D01*
X493800Y472800D02*
Y475200D01*
X496200D01*
Y472800D01*
X493800D01*
X466000Y490000D02*
Y494000D01*
X470000D01*
Y490000D01*
X466000D01*
X466800Y490800D02*
Y493200D01*
X469200D01*
Y490800D01*
X466800D01*
X472000Y490000D02*
Y494000D01*
X476000D01*
Y490000D01*
X472000D01*
X472800Y490800D02*
Y493200D01*
X475200D01*
Y490800D01*
X472800D01*
X535000Y484000D02*
Y488000D01*
X539000D01*
Y484000D01*
X535000D01*
X535800Y484800D02*
Y487200D01*
X538200D01*
Y484800D01*
X535800D01*
X439000Y328000D02*
Y332000D01*
X443000D01*
Y328000D01*
X439000D01*
X439800Y328800D02*
Y331200D01*
X442200D01*
Y328800D01*
X439800D01*
X436000Y322000D02*
Y326000D01*
X440000D01*
Y322000D01*
X436000D01*
X436800Y322800D02*
Y325200D01*
X439200D01*
Y322800D01*
X436800D01*
X541000Y484000D02*
Y488000D01*
X545000D01*
Y484000D01*
X541000D01*
X541800Y484800D02*
Y487200D01*
X544200D01*
Y484800D01*
X541800D01*
X364000Y406000D02*
Y410000D01*
X368000D01*
Y406000D01*
X364000D01*
X364800Y406800D02*
Y409200D01*
X367200D01*
Y406800D01*
X364800D01*
X532000Y466000D02*
Y470000D01*
X536000D01*
Y466000D01*
X532000D01*
X532800Y466800D02*
Y469200D01*
X535200D01*
Y466800D01*
X532800D01*
X394000Y370000D02*
Y374000D01*
X398000D01*
Y370000D01*
X394000D01*
X394800Y370800D02*
Y373200D01*
X397200D01*
Y370800D01*
X394800D01*
X499000Y472000D02*
Y476000D01*
X503000D01*
Y472000D01*
X499000D01*
X499800Y472800D02*
Y475200D01*
X502200D01*
Y472800D01*
X499800D01*
X358000Y358000D02*
Y362000D01*
X362000D01*
Y358000D01*
X358000D01*
X358800Y358800D02*
Y361200D01*
X361200D01*
Y358800D01*
X358800D01*
X481000Y352000D02*
Y356000D01*
X485000D01*
Y352000D01*
X481000D01*
X481800Y352800D02*
Y355200D01*
X484200D01*
Y352800D01*
X481800D01*
X367000Y388000D02*
Y392000D01*
X371000D01*
Y388000D01*
X367000D01*
X367800Y388800D02*
Y391200D01*
X370200D01*
Y388800D01*
X367800D01*
X367000Y436000D02*
Y440000D01*
X371000D01*
Y436000D01*
X367000D01*
X367800Y436800D02*
Y439200D01*
X370200D01*
Y436800D01*
X367800D01*
X532000Y298000D02*
Y302000D01*
X536000D01*
Y298000D01*
X532000D01*
X532800Y298800D02*
Y301200D01*
X535200D01*
Y298800D01*
X532800D01*
X412000Y490000D02*
Y494000D01*
X416000D01*
Y490000D01*
X412000D01*
X412800Y490800D02*
Y493200D01*
X415200D01*
Y490800D01*
X412800D01*
X358000Y298000D02*
Y302000D01*
X362000D01*
Y298000D01*
X358000D01*
X358800Y298800D02*
Y301200D01*
X361200D01*
Y298800D01*
X358800D01*
X457000Y448000D02*
Y452000D01*
X461000D01*
Y448000D01*
X457000D01*
X457800Y448800D02*
Y451200D01*
X460200D01*
Y448800D01*
X457800D01*
X490000Y346000D02*
Y350000D01*
X494000D01*
Y346000D01*
X490000D01*
X490800Y346800D02*
Y349200D01*
X493200D01*
Y346800D01*
X490800D01*
X523000Y460000D02*
Y464000D01*
X527000D01*
Y460000D01*
X523000D01*
X523800Y460800D02*
Y463200D01*
X526200D01*
Y460800D01*
X523800D01*
X391000Y364000D02*
Y368000D01*
X395000D01*
Y364000D01*
X391000D01*
X391800Y364800D02*
Y367200D01*
X394200D01*
Y364800D01*
X391800D01*
X532000Y478000D02*
Y482000D01*
X536000D01*
Y478000D01*
X532000D01*
X532800Y478800D02*
Y481200D01*
X535200D01*
Y478800D01*
X532800D01*
X364000Y394000D02*
Y398000D01*
X368000D01*
Y394000D01*
X364000D01*
X364800Y394800D02*
Y397200D01*
X367200D01*
Y394800D01*
X364800D01*
X577000Y484000D02*
Y488000D01*
X581000D01*
Y484000D01*
X577000D01*
X577800Y484800D02*
Y487200D01*
X580200D01*
Y484800D01*
X577800D01*
X568000Y454000D02*
Y458000D01*
X572000D01*
Y454000D01*
X568000D01*
X568800Y454800D02*
Y457200D01*
X571200D01*
Y454800D01*
X568800D01*
X361000Y424000D02*
Y428000D01*
X365000D01*
Y424000D01*
X361000D01*
X361800Y424800D02*
Y427200D01*
X364200D01*
Y424800D01*
X361800D01*
X565000Y484000D02*
Y488000D01*
X569000D01*
Y484000D01*
X565000D01*
X565800Y484800D02*
Y487200D01*
X568200D01*
Y484800D01*
X565800D01*
X382000Y454000D02*
Y458000D01*
X386000D01*
Y454000D01*
X382000D01*
X382800Y454800D02*
Y457200D01*
X385200D01*
Y454800D01*
X382800D01*
X550000Y298000D02*
Y302000D01*
X554000D01*
Y298000D01*
X550000D01*
X550800Y298800D02*
Y301200D01*
X553200D01*
Y298800D01*
X550800D01*
X574000Y490000D02*
Y494000D01*
X578000D01*
Y490000D01*
X574000D01*
X574800Y490800D02*
Y493200D01*
X577200D01*
Y490800D01*
X574800D01*
X367000Y448000D02*
Y452000D01*
X371000D01*
Y448000D01*
X367000D01*
X367800Y448800D02*
Y451200D01*
X370200D01*
Y448800D01*
X367800D01*
X376000Y418000D02*
Y422000D01*
X380000D01*
Y418000D01*
X376000D01*
X376800Y418800D02*
Y421200D01*
X379200D01*
Y418800D01*
X376800D01*
X364000Y430000D02*
Y434000D01*
X368000D01*
Y430000D01*
X364000D01*
X364800Y430800D02*
Y433200D01*
X367200D01*
Y430800D01*
X364800D01*
X580000Y298000D02*
Y302000D01*
X584000D01*
Y298000D01*
X580000D01*
X580800Y298800D02*
Y301200D01*
X583200D01*
Y298800D01*
X580800D01*
X577000Y448000D02*
Y452000D01*
X581000D01*
Y448000D01*
X577000D01*
X577800Y448800D02*
Y451200D01*
X580200D01*
Y448800D01*
X577800D01*
X556000Y370000D02*
Y374000D01*
X560000D01*
Y370000D01*
X556000D01*
X556800Y370800D02*
Y373200D01*
X559200D01*
Y370800D01*
X556800D01*
X367000Y400000D02*
Y404000D01*
X371000D01*
Y400000D01*
X367000D01*
X367800Y400800D02*
Y403200D01*
X370200D01*
Y400800D01*
X367800D01*
X583000Y460000D02*
Y464000D01*
X587000D01*
Y460000D01*
X583000D01*
X583800Y460800D02*
Y463200D01*
X586200D01*
Y460800D01*
X583800D01*
X463000Y460000D02*
Y464000D01*
X467000D01*
Y460000D01*
X463000D01*
X463800Y460800D02*
Y463200D01*
X466200D01*
Y460800D01*
X463800D01*
X379000Y460000D02*
Y464000D01*
X383000D01*
Y460000D01*
X379000D01*
X379800Y460800D02*
Y463200D01*
X382200D01*
Y460800D01*
X379800D01*
X475000Y352000D02*
Y356000D01*
X479000D01*
Y352000D01*
X475000D01*
X475800Y352800D02*
Y355200D01*
X478200D01*
Y352800D01*
X475800D01*
X586000Y310000D02*
Y314000D01*
X590000D01*
Y310000D01*
X586000D01*
X586800Y310800D02*
Y313200D01*
X589200D01*
Y310800D01*
X586800D01*
X580000Y478000D02*
Y482000D01*
X584000D01*
Y478000D01*
X580000D01*
X580800Y478800D02*
Y481200D01*
X583200D01*
Y478800D01*
X580800D01*
X448000Y406000D02*
Y410000D01*
X452000D01*
Y406000D01*
X448000D01*
X448800Y406800D02*
Y409200D01*
X451200D01*
Y406800D01*
X448800D01*
X529000Y340000D02*
Y344000D01*
X533000D01*
Y340000D01*
X529000D01*
X529800Y340800D02*
Y343200D01*
X532200D01*
Y340800D01*
X529800D01*
X445000Y484000D02*
Y488000D01*
X449000D01*
Y484000D01*
X445000D01*
X445800Y484800D02*
Y487200D01*
X448200D01*
Y484800D01*
X445800D01*
X580000Y466000D02*
Y470000D01*
X584000D01*
Y466000D01*
X580000D01*
X580800Y466800D02*
Y469200D01*
X583200D01*
Y466800D01*
X580800D01*
X358000Y418000D02*
Y422000D01*
X362000D01*
Y418000D01*
X358000D01*
X358800Y418800D02*
Y421200D01*
X361200D01*
Y418800D01*
X358800D01*
X499000Y436000D02*
Y440000D01*
X503000D01*
Y436000D01*
X499000D01*
X499800Y436800D02*
Y439200D01*
X502200D01*
Y436800D01*
X499800D01*
X376000Y406000D02*
Y410000D01*
X380000D01*
Y406000D01*
X376000D01*
X376800Y406800D02*
Y409200D01*
X379200D01*
Y406800D01*
X376800D01*
X496000Y442000D02*
Y446000D01*
X500000D01*
Y442000D01*
X496000D01*
X496800Y442800D02*
Y445200D01*
X499200D01*
Y442800D01*
X496800D01*
X478000Y334000D02*
Y338000D01*
X482000D01*
Y334000D01*
X478000D01*
X478800Y334800D02*
Y337200D01*
X481200D01*
Y334800D01*
X478800D01*
X436000Y478000D02*
Y482000D01*
X440000D01*
Y478000D01*
X436000D01*
X436800Y478800D02*
Y481200D01*
X439200D01*
Y478800D01*
X436800D01*
X484000Y334000D02*
Y338000D01*
X488000D01*
Y334000D01*
X484000D01*
X484800Y334800D02*
Y337200D01*
X487200D01*
Y334800D01*
X484800D01*
X466000Y454000D02*
Y458000D01*
X470000D01*
Y454000D01*
X466000D01*
X466800Y454800D02*
Y457200D01*
X469200D01*
Y454800D01*
X466800D01*
X364000Y478000D02*
Y482000D01*
X368000D01*
Y478000D01*
X364000D01*
X364800Y478800D02*
Y481200D01*
X367200D01*
Y478800D01*
X364800D01*
X376000Y346000D02*
Y350000D01*
X380000D01*
Y346000D01*
X376000D01*
X376800Y346800D02*
Y349200D01*
X379200D01*
Y346800D01*
X376800D01*
X562000Y298000D02*
Y302000D01*
X566000D01*
Y298000D01*
X562000D01*
X562800Y298800D02*
Y301200D01*
X565200D01*
Y298800D01*
X562800D01*
X532000Y346000D02*
Y350000D01*
X536000D01*
Y346000D01*
X532000D01*
X532800Y346800D02*
Y349200D01*
X535200D01*
Y346800D01*
X532800D01*
X358000Y454000D02*
Y458000D01*
X362000D01*
Y454000D01*
X358000D01*
X358800Y454800D02*
Y457200D01*
X361200D01*
Y454800D01*
X358800D01*
X487000Y340000D02*
Y344000D01*
X491000D01*
Y340000D01*
X487000D01*
X487800Y340800D02*
Y343200D01*
X490200D01*
Y340800D01*
X487800D01*
X391000Y436000D02*
Y440000D01*
X395000D01*
Y436000D01*
X391000D01*
X391800Y436800D02*
Y439200D01*
X394200D01*
Y436800D01*
X391800D01*
X370000Y382000D02*
Y386000D01*
X374000D01*
Y382000D01*
X370000D01*
X370800Y382800D02*
Y385200D01*
X373200D01*
Y382800D01*
X370800D01*
X535000Y448000D02*
Y452000D01*
X539000D01*
Y448000D01*
X535000D01*
X535800Y448800D02*
Y451200D01*
X538200D01*
Y448800D01*
X535800D01*
X361000Y412000D02*
Y416000D01*
X365000D01*
Y412000D01*
X361000D01*
X361800Y412800D02*
Y415200D01*
X364200D01*
Y412800D01*
X361800D01*
X439000Y316000D02*
Y320000D01*
X443000D01*
Y316000D01*
X439000D01*
X439800Y316800D02*
Y319200D01*
X442200D01*
Y316800D01*
X439800D01*
X385000Y448000D02*
Y452000D01*
X389000D01*
Y448000D01*
X385000D01*
X385800Y448800D02*
Y451200D01*
X388200D01*
Y448800D01*
X385800D01*
X454000Y406000D02*
Y410000D01*
X458000D01*
Y406000D01*
X454000D01*
X454800Y406800D02*
Y409200D01*
X457200D01*
Y406800D01*
X454800D01*
X514000Y454000D02*
Y458000D01*
X518000D01*
Y454000D01*
X514000D01*
X514800Y454800D02*
Y457200D01*
X517200D01*
Y454800D01*
X514800D01*
X508000Y454000D02*
Y458000D01*
X512000D01*
Y454000D01*
X508000D01*
X508800Y454800D02*
Y457200D01*
X511200D01*
Y454800D01*
X508800D01*
X379000Y412000D02*
Y416000D01*
X383000D01*
Y412000D01*
X379000D01*
X379800Y412800D02*
Y415200D01*
X382200D01*
Y412800D01*
X379800D01*
X373000Y460000D02*
Y464000D01*
X377000D01*
Y460000D01*
X373000D01*
X373800Y460800D02*
Y463200D01*
X376200D01*
Y460800D01*
X373800D01*
X379000Y352000D02*
Y356000D01*
X383000D01*
Y352000D01*
X379000D01*
X379800Y352800D02*
Y355200D01*
X382200D01*
Y352800D01*
X379800D01*
X376000Y454000D02*
Y458000D01*
X380000D01*
Y454000D01*
X376000D01*
X376800Y454800D02*
Y457200D01*
X379200D01*
Y454800D01*
X376800D01*
X364000Y382000D02*
Y386000D01*
X368000D01*
Y382000D01*
X364000D01*
X364800Y382800D02*
Y385200D01*
X367200D01*
Y382800D01*
X364800D01*
X481000Y436000D02*
Y440000D01*
X485000D01*
Y436000D01*
X481000D01*
X481800Y436800D02*
Y439200D01*
X484200D01*
Y436800D01*
X481800D01*
X532000Y322000D02*
Y326000D01*
X536000D01*
Y322000D01*
X532000D01*
X532800Y322800D02*
Y325200D01*
X535200D01*
Y322800D01*
X532800D01*
X562000Y490000D02*
Y494000D01*
X566000D01*
Y490000D01*
X562000D01*
X562800Y490800D02*
Y493200D01*
X565200D01*
Y490800D01*
X562800D01*
X358000Y430000D02*
Y434000D01*
X362000D01*
Y430000D01*
X358000D01*
X358800Y430800D02*
Y433200D01*
X361200D01*
Y430800D01*
X358800D01*
X439000Y484000D02*
Y488000D01*
X443000D01*
Y484000D01*
X439000D01*
X439800Y484800D02*
Y487200D01*
X442200D01*
Y484800D01*
X439800D01*
X397000Y388000D02*
Y392000D01*
X401000D01*
Y388000D01*
X397000D01*
X397800Y388800D02*
Y391200D01*
X400200D01*
Y388800D01*
X397800D01*
X493000Y328000D02*
Y332000D01*
X497000D01*
Y328000D01*
X493000D01*
X493800Y328800D02*
Y331200D01*
X496200D01*
Y328800D01*
X493800D01*
X568000Y490000D02*
Y494000D01*
X572000D01*
Y490000D01*
X568000D01*
X568800Y490800D02*
Y493200D01*
X571200D01*
Y490800D01*
X568800D01*
X442000Y478000D02*
Y482000D01*
X446000D01*
Y478000D01*
X442000D01*
X442800Y478800D02*
Y481200D01*
X445200D01*
Y478800D01*
X442800D01*
X382000Y382000D02*
Y386000D01*
X386000D01*
Y382000D01*
X382000D01*
X382800Y382800D02*
Y385200D01*
X385200D01*
Y382800D01*
X382800D01*
X523000Y340000D02*
Y344000D01*
X527000D01*
Y340000D01*
X523000D01*
X523800Y340800D02*
Y343200D01*
X526200D01*
Y340800D01*
X523800D01*
X442000Y490000D02*
Y494000D01*
X446000D01*
Y490000D01*
X442000D01*
X442800Y490800D02*
Y493200D01*
X445200D01*
Y490800D01*
X442800D01*
X538000Y358000D02*
Y362000D01*
X542000D01*
Y358000D01*
X538000D01*
X538800Y358800D02*
Y361200D01*
X541200D01*
Y358800D01*
X538800D01*
X364000Y310000D02*
Y314000D01*
X368000D01*
Y310000D01*
X364000D01*
X364800Y310800D02*
Y313200D01*
X367200D01*
Y310800D01*
X364800D01*
X361000Y484000D02*
Y488000D01*
X365000D01*
Y484000D01*
X361000D01*
X361800Y484800D02*
Y487200D01*
X364200D01*
Y484800D01*
X361800D01*
X296800Y423442D02*
X294800Y427442D01*
X298800D01*
X296800Y423442D01*
X389488Y329219D02*
X390488D01*
X391488Y330219D01*
X392488Y329219D01*
X393488D01*
Y330219D01*
X392488Y331219D01*
X393488Y332219D01*
Y333219D01*
X392488D01*
X391488Y332219D01*
X390488Y333219D01*
X389488D01*
Y332219D01*
X390488Y331219D01*
X389488Y330219D01*
Y329219D01*
X385157D02*
X386157D01*
X387158Y330219D01*
X388158Y329219D01*
X389158D01*
Y330219D01*
X388158Y331219D01*
X389158Y332219D01*
Y333219D01*
X388158D01*
X387158Y332219D01*
X386157Y333219D01*
X385157D01*
Y332219D01*
X386157Y331219D01*
X385157Y330219D01*
Y329219D01*
X389488Y333550D02*
X390488D01*
X391488Y334550D01*
X392488Y333550D01*
X393488D01*
Y334550D01*
X392488Y335550D01*
X393488Y336550D01*
Y337550D01*
X392488D01*
X391488Y336550D01*
X390488Y337550D01*
X389488D01*
Y336550D01*
X390488Y335550D01*
X389488Y334550D01*
Y333550D01*
X385157D02*
X386157D01*
X387158Y334550D01*
X388158Y333550D01*
X389158D01*
Y334550D01*
X388158Y335550D01*
X389158Y336550D01*
Y337550D01*
X388158D01*
X387158Y336550D01*
X386157Y337550D01*
X385157D01*
Y336550D01*
X386157Y335550D01*
X385157Y334550D01*
Y333550D01*
X431193Y358016D02*
X433193Y360016D01*
X435193Y358016D01*
X433193Y356016D01*
X431193Y358016D01*
X429224Y359984D02*
X431224Y361984D01*
X433224Y359984D01*
X431224Y357984D01*
X429224Y359984D01*
X433161D02*
X435161Y361984D01*
X437161Y359984D01*
X435161Y357984D01*
X433161Y359984D01*
Y356047D02*
X435161Y358047D01*
X437161Y356047D01*
X435161Y354047D01*
X433161Y356047D01*
X429224D02*
X431224Y358047D01*
X433224Y356047D01*
X431224Y354047D01*
X429224Y356047D01*
X408220Y433559D02*
X409221D01*
X410220Y434559D01*
X411221Y433559D01*
X412220D01*
Y434559D01*
X411221Y435559D01*
X412220Y436559D01*
Y437559D01*
X411221D01*
X410220Y436559D01*
X409221Y437559D01*
X408220D01*
Y436559D01*
X409221Y435559D01*
X408220Y434559D01*
Y433559D01*
Y437890D02*
X409221D01*
X410220Y438890D01*
X411221Y437890D01*
X412220D01*
Y438890D01*
X411221Y439890D01*
X412220Y440890D01*
Y441890D01*
X411221D01*
X410220Y440890D01*
X409221Y441890D01*
X408220D01*
Y440890D01*
X409221Y439890D01*
X408220Y438890D01*
Y437890D01*
Y442220D02*
X409221D01*
X410220Y443221D01*
X411221Y442220D01*
X412220D01*
Y443221D01*
X411221Y444220D01*
X412220Y445221D01*
Y446220D01*
X411221D01*
X410220Y445221D01*
X409221Y446220D01*
X408220D01*
Y445221D01*
X409221Y444220D01*
X408220Y443221D01*
Y442220D01*
X412551Y433559D02*
X413551D01*
X414551Y434559D01*
X415551Y433559D01*
X416551D01*
Y434559D01*
X415551Y435559D01*
X416551Y436559D01*
Y437559D01*
X415551D01*
X414551Y436559D01*
X413551Y437559D01*
X412551D01*
Y436559D01*
X413551Y435559D01*
X412551Y434559D01*
Y433559D01*
Y437890D02*
X413551D01*
X414551Y438890D01*
X415551Y437890D01*
X416551D01*
Y438890D01*
X415551Y439890D01*
X416551Y440890D01*
Y441890D01*
X415551D01*
X414551Y440890D01*
X413551Y441890D01*
X412551D01*
Y440890D01*
X413551Y439890D01*
X412551Y438890D01*
Y437890D01*
Y442220D02*
X413551D01*
X414551Y443221D01*
X415551Y442220D01*
X416551D01*
Y443221D01*
X415551Y444220D01*
X416551Y445221D01*
Y446220D01*
X415551D01*
X414551Y445221D01*
X413551Y446220D01*
X412551D01*
Y445221D01*
X413551Y444220D01*
X412551Y443221D01*
Y442220D01*
X416882Y433559D02*
X417882D01*
X418882Y434559D01*
X419882Y433559D01*
X420882D01*
Y434559D01*
X419882Y435559D01*
X420882Y436559D01*
Y437559D01*
X419882D01*
X418882Y436559D01*
X417882Y437559D01*
X416882D01*
Y436559D01*
X417882Y435559D01*
X416882Y434559D01*
Y433559D01*
Y437890D02*
X417882D01*
X418882Y438890D01*
X419882Y437890D01*
X420882D01*
Y438890D01*
X419882Y439890D01*
X420882Y440890D01*
Y441890D01*
X419882D01*
X418882Y440890D01*
X417882Y441890D01*
X416882D01*
Y440890D01*
X417882Y439890D01*
X416882Y438890D01*
Y437890D01*
Y442220D02*
X417882D01*
X418882Y443221D01*
X419882Y442220D01*
X420882D01*
Y443221D01*
X419882Y444220D01*
X420882Y445221D01*
Y446220D01*
X419882D01*
X418882Y445221D01*
X417882Y446220D01*
X416882D01*
Y445221D01*
X417882Y444220D01*
X416882Y443221D01*
Y442220D01*
X323961Y489239D02*
X324961Y490239D01*
X325961D01*
X324961Y491239D01*
X325961Y492239D01*
X324961D01*
X323961Y493239D01*
X322961Y492239D01*
X321961D01*
X322961Y491239D01*
X321961Y490239D01*
X322961D01*
X323961Y489239D01*
X342000Y492600D02*
X340000Y496600D01*
X344000D01*
X342000Y492600D01*
X329000Y492500D02*
X330000Y493500D01*
X331000D01*
X330000Y494500D01*
X331000Y495500D01*
X330000D01*
X329000Y496500D01*
X328000Y495500D01*
X327000D01*
X328000Y494500D01*
X327000Y493500D01*
X328000D01*
X329000Y492500D01*
X335000D02*
X333000Y496500D01*
X337000D01*
X335000Y492500D01*
X314000Y490500D02*
X315000Y491500D01*
X316000D01*
X315000Y492500D01*
X316000Y493500D01*
X315000D01*
X314000Y494500D01*
X313000Y493500D01*
X312000D01*
X313000Y492500D01*
X312000Y491500D01*
X313000D01*
X314000Y490500D01*
X425500Y485100D02*
X423500Y489100D01*
X427500D01*
X425500Y485100D01*
X318600Y473300D02*
X319600Y474300D01*
X320600D01*
X319600Y475300D01*
X320600Y476300D01*
X319600D01*
X318600Y477300D01*
X317600Y476300D01*
X316600D01*
X317600Y475300D01*
X316600Y474300D01*
X317600D01*
X318600Y473300D01*
X329500Y480200D02*
X330500Y481200D01*
X331500D01*
X330500Y482200D01*
X331500Y483200D01*
X330500D01*
X329500Y484200D01*
X328500Y483200D01*
X327500D01*
X328500Y482200D01*
X327500Y481200D01*
X328500D01*
X329500Y480200D01*
X326500Y464684D02*
X327500Y465684D01*
X328500D01*
X327500Y466684D01*
X328500Y467684D01*
X327500D01*
X326500Y468684D01*
X325500Y467684D01*
X324500D01*
X325500Y466684D01*
X324500Y465684D01*
X325500D01*
X326500Y464684D01*
X301400Y463000D02*
X299400Y467000D01*
X303400D01*
X301400Y463000D01*
X313000Y466400D02*
X314000Y467400D01*
X315000D01*
X314000Y468400D01*
X315000Y469400D01*
X314000D01*
X313000Y470400D01*
X312000Y469400D01*
X311000D01*
X312000Y468400D01*
X311000Y467400D01*
X312000D01*
X313000Y466400D01*
X301400Y469000D02*
X299400Y473000D01*
X303400D01*
X301400Y469000D01*
X338000Y476500D02*
X339000Y477500D01*
X340000D01*
X339000Y478500D01*
X340000Y479500D01*
X339000D01*
X338000Y480500D01*
X337000Y479500D01*
X336000D01*
X337000Y478500D01*
X336000Y477500D01*
X337000D01*
X338000Y476500D01*
X347800Y460700D02*
X345800Y464700D01*
X349800D01*
X347800Y460700D01*
X340500Y466500D02*
X341500Y467500D01*
X342500D01*
X341500Y468500D01*
X342500Y469500D01*
X341500D01*
X340500Y470500D01*
X339500Y469500D01*
X338500D01*
X339500Y468500D01*
X338500Y467500D01*
X339500D01*
X340500Y466500D01*
X330000Y468500D02*
X331000Y469500D01*
X332000D01*
X331000Y470500D01*
X332000Y471500D01*
X331000D01*
X330000Y472500D01*
X329000Y471500D01*
X328000D01*
X329000Y470500D01*
X328000Y469500D01*
X329000D01*
X330000Y468500D01*
X305200Y472600D02*
X306200Y473600D01*
X307200D01*
X306200Y474600D01*
X307200Y475600D01*
X306200D01*
X305200Y476600D01*
X304200Y475600D01*
X303200D01*
X304200Y474600D01*
X303200Y473600D01*
X304200D01*
X305200Y472600D01*
X328000Y478500D02*
X329000Y479500D01*
X330000D01*
X329000Y480500D01*
X330000Y481500D01*
X329000D01*
X328000Y482500D01*
X327000Y481500D01*
X326000D01*
X327000Y480500D01*
X326000Y479500D01*
X327000D01*
X328000Y478500D01*
X387400Y474900D02*
X388400Y475900D01*
X389400D01*
X388400Y476900D01*
X389400Y477900D01*
X388400D01*
X387400Y478900D01*
X386400Y477900D01*
X385400D01*
X386400Y476900D01*
X385400Y475900D01*
X386400D01*
X387400Y474900D01*
X411047Y482247D02*
X409047Y486247D01*
X413047D01*
X411047Y482247D01*
X409500Y474284D02*
X407500Y478284D01*
X411500D01*
X409500Y474284D01*
X401622Y477778D02*
X399622Y481778D01*
X403622D01*
X401622Y477778D01*
X395200Y474800D02*
X396200Y475800D01*
X397200D01*
X396200Y476800D01*
X397200Y477800D01*
X396200D01*
X395200Y478800D01*
X394200Y477800D01*
X393200D01*
X394200Y476800D01*
X393200Y475800D01*
X394200D01*
X395200Y474800D01*
X379378Y477622D02*
X377378Y481622D01*
X381378D01*
X379378Y477622D01*
X462300Y338400D02*
X460300Y342400D01*
X464300D01*
X462300Y338400D01*
X485600Y424500D02*
X486600Y425500D01*
X487600D01*
X486600Y426500D01*
X487600Y427500D01*
X486600D01*
X485600Y428500D01*
X484600Y427500D01*
X483600D01*
X484600Y426500D01*
X483600Y425500D01*
X484600D01*
X485600Y424500D01*
X461800Y396400D02*
X462800Y397400D01*
X463800D01*
X462800Y398400D01*
X463800Y399400D01*
X462800D01*
X461800Y400400D01*
X460800Y399400D01*
X459800D01*
X460800Y398400D01*
X459800Y397400D01*
X460800D01*
X461800Y396400D01*
X463000Y425700D02*
X461000Y429700D01*
X465000D01*
X463000Y425700D01*
X464000Y389000D02*
X465000Y390000D01*
X466000D01*
X465000Y391000D01*
X466000Y392000D01*
X465000D01*
X464000Y393000D01*
X463000Y392000D01*
X462000D01*
X463000Y391000D01*
X462000Y390000D01*
X463000D01*
X464000Y389000D01*
X485700Y386600D02*
X486700Y387600D01*
X487700D01*
X486700Y388600D01*
X487700Y389600D01*
X486700D01*
X485700Y390600D01*
X484700Y389600D01*
X483700D01*
X484700Y388600D01*
X483700Y387600D01*
X484700D01*
X485700Y386600D01*
X487400Y388400D02*
X488400Y389400D01*
X489400D01*
X488400Y390400D01*
X489400Y391400D01*
X488400D01*
X487400Y392400D01*
X486400Y391400D01*
X485400D01*
X486400Y390400D01*
X485400Y389400D01*
X486400D01*
X487400Y388400D01*
X473800Y428500D02*
X474800Y429500D01*
X475800D01*
X474800Y430500D01*
X475800Y431500D01*
X474800D01*
X473800Y432500D01*
X472800Y431500D01*
X471800D01*
X472800Y430500D01*
X471800Y429500D01*
X472800D01*
X473800Y428500D01*
X483100Y371700D02*
X481100Y375700D01*
X485100D01*
X483100Y371700D01*
X485700Y373300D02*
X483700Y377300D01*
X487700D01*
X485700Y373300D01*
X464200Y381600D02*
X465200Y382600D01*
X466200D01*
X465200Y383600D01*
X466200Y384600D01*
X465200D01*
X464200Y385600D01*
X463200Y384600D01*
X462200D01*
X463200Y383600D01*
X462200Y382600D01*
X463200D01*
X464200Y381600D01*
X476000Y430300D02*
X477000Y431300D01*
X478000D01*
X477000Y432300D01*
X478000Y433300D01*
X477000D01*
X476000Y434300D01*
X475000Y433300D01*
X474000D01*
X475000Y432300D01*
X474000Y431300D01*
X475000D01*
X476000Y430300D01*
X470900Y416800D02*
X471900Y417800D01*
X472900D01*
X471900Y418800D01*
X472900Y419800D01*
X471900D01*
X470900Y420800D01*
X469900Y419800D01*
X468900D01*
X469900Y418800D01*
X468900Y417800D01*
X469900D01*
X470900Y416800D01*
X485700Y382600D02*
X486700Y383600D01*
X487700D01*
X486700Y384600D01*
X487700Y385600D01*
X486700D01*
X485700Y386600D01*
X484700Y385600D01*
X483700D01*
X484700Y384600D01*
X483700Y383600D01*
X484700D01*
X485700Y382600D01*
X487200Y377800D02*
X488200Y378800D01*
X489200D01*
X488200Y379800D01*
X489200Y380800D01*
X488200D01*
X487200Y381800D01*
X486200Y380800D01*
X485200D01*
X486200Y379800D01*
X485200Y378800D01*
X486200D01*
X487200Y377800D01*
X488800Y408200D02*
X489800Y409200D01*
X490800D01*
X489800Y410200D01*
X490800Y411200D01*
X489800D01*
X488800Y412200D01*
X487800Y411200D01*
X486800D01*
X487800Y410200D01*
X486800Y409200D01*
X487800D01*
X488800Y408200D01*
X490400Y416200D02*
X491400Y417200D01*
X492400D01*
X491400Y418200D01*
X492400Y419200D01*
X491400D01*
X490400Y420200D01*
X489400Y419200D01*
X488400D01*
X489400Y418200D01*
X488400Y417200D01*
X489400D01*
X490400Y416200D01*
Y413800D02*
X491400Y414800D01*
X492400D01*
X491400Y415800D01*
X492400Y416800D01*
X491400D01*
X490400Y417800D01*
X489400Y416800D01*
X488400D01*
X489400Y415800D01*
X488400Y414800D01*
X489400D01*
X490400Y413800D01*
X502100Y409000D02*
X503100Y410000D01*
X504100D01*
X503100Y411000D01*
X504100Y412000D01*
X503100D01*
X502100Y413000D01*
X501100Y412000D01*
X500100D01*
X501100Y411000D01*
X500100Y410000D01*
X501100D01*
X502100Y409000D01*
X504991Y416500D02*
X505991Y417500D01*
X506991D01*
X505991Y418500D01*
X506991Y419500D01*
X505991D01*
X504991Y420500D01*
X503991Y419500D01*
X502991D01*
X503991Y418500D01*
X502991Y417500D01*
X503991D01*
X504991Y416500D01*
X516000Y439000D02*
X517000Y440000D01*
X518000D01*
X517000Y441000D01*
X518000Y442000D01*
X517000D01*
X516000Y443000D01*
X515000Y442000D01*
X514000D01*
X515000Y441000D01*
X514000Y440000D01*
X515000D01*
X516000Y439000D01*
X511000D02*
X512000Y440000D01*
X513000D01*
X512000Y441000D01*
X513000Y442000D01*
X512000D01*
X511000Y443000D01*
X510000Y442000D01*
X509000D01*
X510000Y441000D01*
X509000Y440000D01*
X510000D01*
X511000Y439000D01*
X504000Y366700D02*
X502000Y370700D01*
X506000D01*
X504000Y366700D01*
X488400Y335000D02*
X486400Y339000D01*
X490400D01*
X488400Y335000D01*
X492800D02*
X490800Y339000D01*
X494800D01*
X492800Y335000D01*
X490400Y420800D02*
X491400Y421800D01*
X492400D01*
X491400Y422800D01*
X492400Y423800D01*
X491400D01*
X490400Y424800D01*
X489400Y423800D01*
X488400D01*
X489400Y422800D01*
X488400Y421800D01*
X489400D01*
X490400Y420800D01*
Y418500D02*
X491400Y419500D01*
X492400D01*
X491400Y420500D01*
X492400Y421500D01*
X491400D01*
X490400Y422500D01*
X489400Y421500D01*
X488400D01*
X489400Y420500D01*
X488400Y419500D01*
X489400D01*
X490400Y418500D01*
X506000D02*
X507000Y419500D01*
X508000D01*
X507000Y420500D01*
X508000Y421500D01*
X507000D01*
X506000Y422500D01*
X505000Y421500D01*
X504000D01*
X505000Y420500D01*
X504000Y419500D01*
X505000D01*
X506000Y418500D01*
X508738Y424762D02*
X509738Y425762D01*
X510738D01*
X509738Y426762D01*
X510738Y427762D01*
X509738D01*
X508738Y428762D01*
X507738Y427762D01*
X506738D01*
X507738Y426762D01*
X506738Y425762D01*
X507738D01*
X508738Y424762D01*
X507238Y423262D02*
X508238Y424262D01*
X509238D01*
X508238Y425262D01*
X509238Y426262D01*
X508238D01*
X507238Y427262D01*
X506238Y426262D01*
X505238D01*
X506238Y425262D01*
X505238Y424262D01*
X506238D01*
X507238Y423262D01*
X507000Y420500D02*
X508000Y421500D01*
X509000D01*
X508000Y422500D01*
X509000Y423500D01*
X508000D01*
X507000Y424500D01*
X506000Y423500D01*
X505000D01*
X506000Y422500D01*
X505000Y421500D01*
X506000D01*
X507000Y420500D01*
X503700Y382900D02*
X504700Y383900D01*
X505700D01*
X504700Y384900D01*
X505700Y385900D01*
X504700D01*
X503700Y386900D01*
X502700Y385900D01*
X501700D01*
X502700Y384900D01*
X501700Y383900D01*
X502700D01*
X503700Y382900D01*
X510865Y404500D02*
X511865Y405500D01*
X512865D01*
X511865Y406500D01*
X512865Y407500D01*
X511865D01*
X510865Y408500D01*
X509865Y407500D01*
X508865D01*
X509865Y406500D01*
X508865Y405500D01*
X509865D01*
X510865Y404500D01*
X514200Y382500D02*
X515200Y383500D01*
X516200D01*
X515200Y384500D01*
X516200Y385500D01*
X515200D01*
X514200Y386500D01*
X513200Y385500D01*
X512200D01*
X513200Y384500D01*
X512200Y383500D01*
X513200D01*
X514200Y382500D01*
X489035Y405135D02*
X490035Y406135D01*
X491035D01*
X490035Y407135D01*
X491035Y408135D01*
X490035D01*
X489035Y409135D01*
X488035Y408135D01*
X487035D01*
X488035Y407135D01*
X487035Y406135D01*
X488035D01*
X489035Y405135D01*
X501224Y394800D02*
X502224Y395800D01*
X503224D01*
X502224Y396800D01*
X503224Y397800D01*
X502224D01*
X501224Y398800D01*
X500224Y397800D01*
X499224D01*
X500224Y396800D01*
X499224Y395800D01*
X500224D01*
X501224Y394800D01*
X505800Y381800D02*
X506800Y382800D01*
X507800D01*
X506800Y383800D01*
X507800Y384800D01*
X506800D01*
X505800Y385800D01*
X504800Y384800D01*
X503800D01*
X504800Y383800D01*
X503800Y382800D01*
X504800D01*
X505800Y381800D01*
X505988Y399624D02*
X506988Y400624D01*
X507988D01*
X506988Y401624D01*
X507988Y402624D01*
X506988D01*
X505988Y403624D01*
X504988Y402624D01*
X503988D01*
X504988Y401624D01*
X503988Y400624D01*
X504988D01*
X505988Y399624D01*
X501224Y404400D02*
X502224Y405400D01*
X503224D01*
X502224Y406400D01*
X503224Y407400D01*
X502224D01*
X501224Y408400D01*
X500224Y407400D01*
X499224D01*
X500224Y406400D01*
X499224Y405400D01*
X500224D01*
X501224Y404400D01*
X489100Y389700D02*
X490100Y390700D01*
X491100D01*
X490100Y391700D01*
X491100Y392700D01*
X490100D01*
X489100Y393700D01*
X488100Y392700D01*
X487100D01*
X488100Y391700D01*
X487100Y390700D01*
X488100D01*
X489100Y389700D01*
X510900Y394712D02*
X511900Y395712D01*
X512900D01*
X511900Y396712D01*
X512900Y397712D01*
X511900D01*
X510900Y398712D01*
X509900Y397712D01*
X508900D01*
X509900Y396712D01*
X508900Y395712D01*
X509900D01*
X510900Y394712D01*
X511600Y382500D02*
X512600Y383500D01*
X513600D01*
X512600Y384500D01*
X513600Y385500D01*
X512600D01*
X511600Y386500D01*
X510600Y385500D01*
X509600D01*
X510600Y384500D01*
X509600Y383500D01*
X510600D01*
X511600Y382500D01*
X508000Y389900D02*
X509000Y390900D01*
X510000D01*
X509000Y391900D01*
X510000Y392900D01*
X509000D01*
X508000Y393900D01*
X507000Y392900D01*
X506000D01*
X507000Y391900D01*
X506000Y390900D01*
X507000D01*
X508000Y389900D01*
X551500Y472500D02*
X552500Y473500D01*
X553500D01*
X552500Y474500D01*
X553500Y475500D01*
X552500D01*
X551500Y476500D01*
X550500Y475500D01*
X549500D01*
X550500Y474500D01*
X549500Y473500D01*
X550500D01*
X551500Y472500D01*
X546000Y466000D02*
X547000Y467000D01*
X548000D01*
X547000Y468000D01*
X548000Y469000D01*
X547000D01*
X546000Y470000D01*
X545000Y469000D01*
X544000D01*
X545000Y468000D01*
X544000Y467000D01*
X545000D01*
X546000Y466000D01*
X566500Y475000D02*
X567500Y476000D01*
X568500D01*
X567500Y477000D01*
X568500Y478000D01*
X567500D01*
X566500Y479000D01*
X565500Y478000D01*
X564500D01*
X565500Y477000D01*
X564500Y476000D01*
X565500D01*
X566500Y475000D01*
X564500Y463800D02*
X565500Y464800D01*
X566500D01*
X565500Y465800D01*
X566500Y466800D01*
X565500D01*
X564500Y467800D01*
X563500Y466800D01*
X562500D01*
X563500Y465800D01*
X562500Y464800D01*
X563500D01*
X564500Y463800D01*
X566700D02*
X567700Y464800D01*
X568700D01*
X567700Y465800D01*
X568700Y466800D01*
X567700D01*
X566700Y467800D01*
X565700Y466800D01*
X564700D01*
X565700Y465800D01*
X564700Y464800D01*
X565700D01*
X566700Y463800D01*
X557200Y480300D02*
X558200Y481300D01*
X559200D01*
X558200Y482300D01*
X559200Y483300D01*
X558200D01*
X557200Y484300D01*
X556200Y483300D01*
X555200D01*
X556200Y482300D01*
X555200Y481300D01*
X556200D01*
X557200Y480300D01*
X544031Y477300D02*
X545031Y478300D01*
X546032D01*
X545031Y479300D01*
X546032Y480300D01*
X545031D01*
X544031Y481300D01*
X543032Y480300D01*
X542031D01*
X543032Y479300D01*
X542031Y478300D01*
X543032D01*
X544031Y477300D01*
X564980Y481220D02*
X562980Y485220D01*
X566980D01*
X564980Y481220D01*
X407858Y313942D02*
X405858Y317942D01*
X409858D01*
X407858Y313942D01*
X417629Y325429D02*
X415629Y329429D01*
X419629D01*
X417629Y325429D01*
X432500Y339900D02*
X430500Y343900D01*
X434500D01*
X432500Y339900D01*
X426400Y330975D02*
X424400Y334975D01*
X428400D01*
X426400Y330975D01*
X422575D02*
X420575Y334975D01*
X424575D01*
X422575Y330975D01*
X359962Y331919D02*
X360962Y332919D01*
X361962D01*
X360962Y333919D01*
X361962Y334919D01*
X360962D01*
X359962Y335919D01*
X358962Y334919D01*
X357962D01*
X358962Y333919D01*
X357962Y332919D01*
X358962D01*
X359962Y331919D01*
X363500Y321600D02*
X361500Y325600D01*
X365500D01*
X363500Y321600D01*
X379400Y313700D02*
X380400Y314700D01*
X381400D01*
X380400Y315700D01*
X381400Y316700D01*
X380400D01*
X379400Y317700D01*
X378400Y316700D01*
X377400D01*
X378400Y315700D01*
X377400Y314700D01*
X378400D01*
X379400Y313700D01*
X385700Y313800D02*
X386700Y314800D01*
X387700D01*
X386700Y315800D01*
X387700Y316800D01*
X386700D01*
X385700Y317800D01*
X384700Y316800D01*
X383700D01*
X384700Y315800D01*
X383700Y314800D01*
X384700D01*
X385700Y313800D01*
X380500Y320800D02*
X378500Y324800D01*
X382500D01*
X380500Y320800D01*
X590000Y491000D02*
Y490000D01*
X592000D01*
Y491000D01*
X593000D01*
Y493000D01*
X592000D01*
Y494000D01*
X590000D01*
Y493000D01*
X589000D01*
Y491000D01*
X590000D01*
X243759Y491242D02*
Y490242D01*
X245759D01*
Y491242D01*
X246759D01*
Y493242D01*
X245759D01*
Y494242D01*
X243759D01*
Y493242D01*
X242759D01*
Y491242D01*
X243759D01*
X415000Y343300D02*
X413000Y347300D01*
X417000D01*
X415000Y343300D01*
X401600Y313600D02*
X402600Y314600D01*
X403600D01*
X402600Y315600D01*
X403600Y316600D01*
X402600D01*
X401600Y317600D01*
X400600Y316600D01*
X399600D01*
X400600Y315600D01*
X399600Y314600D01*
X400600D01*
X401600Y313600D01*
X442000Y345000D02*
X443000Y346000D01*
X444000D01*
X443000Y347000D01*
X444000Y348000D01*
X443000D01*
X442000Y349000D01*
X441000Y348000D01*
X440000D01*
X441000Y347000D01*
X440000Y346000D01*
X441000D01*
X442000Y345000D01*
X394571Y313671D02*
X392571Y317671D01*
X396571D01*
X394571Y313671D01*
X243759Y303242D02*
Y302242D01*
X245759D01*
Y303242D01*
X246759D01*
Y305242D01*
X245759D01*
Y306242D01*
X243759D01*
Y305242D01*
X242759D01*
Y303242D01*
X243759D01*
X363500Y342300D02*
X361500Y346300D01*
X365500D01*
X363500Y342300D01*
X590000Y303000D02*
Y302000D01*
X592000D01*
Y303000D01*
X593000D01*
Y305000D01*
X592000D01*
Y306000D01*
X590000D01*
Y305000D01*
X589000D01*
Y303000D01*
X590000D01*
X358700Y330657D02*
X359700Y331657D01*
X360700D01*
X359700Y332657D01*
X360700Y333657D01*
X359700D01*
X358700Y334657D01*
X357700Y333657D01*
X356700D01*
X357700Y332657D01*
X356700Y331657D01*
X357700D01*
X358700Y330657D01*
X378600Y341700D02*
X376600Y345700D01*
X380600D01*
X378600Y341700D01*
X398400Y320800D02*
X396400Y324800D01*
X400400D01*
X398400Y320800D01*
X405300Y341900D02*
X403300Y345900D01*
X407300D01*
X405300Y341900D01*
X458200Y338400D02*
X456200Y342400D01*
X460200D01*
X458200Y338400D01*
X445000Y334600D02*
X443000Y338600D01*
X447000D01*
X445000Y334600D01*
X576500Y432400D02*
X574500Y436400D01*
X578500D01*
X576500Y432400D01*
X530500Y328900D02*
X531500Y329900D01*
X532500D01*
X531500Y330900D01*
X532500Y331900D01*
X531500D01*
X530500Y332900D01*
X529500Y331900D01*
X528500D01*
X529500Y330900D01*
X528500Y329900D01*
X529500D01*
X530500Y328900D01*
X522900Y355300D02*
X523900Y356300D01*
X524900D01*
X523900Y357300D01*
X524900Y358300D01*
X523900D01*
X522900Y359300D01*
X521900Y358300D01*
X520900D01*
X521900Y357300D01*
X520900Y356300D01*
X521900D01*
X522900Y355300D01*
X561351Y404449D02*
X559351Y408449D01*
X563351D01*
X561351Y404449D01*
X566800Y401900D02*
X567800Y402900D01*
X568800D01*
X567800Y403900D01*
X568800Y404900D01*
X567800D01*
X566800Y405900D01*
X565800Y404900D01*
X564800D01*
X565800Y403900D01*
X564800Y402900D01*
X565800D01*
X566800Y401900D01*
X564500Y390100D02*
X565500Y391100D01*
X566500D01*
X565500Y392100D01*
X566500Y393100D01*
X565500D01*
X564500Y394100D01*
X563500Y393100D01*
X562500D01*
X563500Y392100D01*
X562500Y391100D01*
X563500D01*
X564500Y390100D01*
X561500Y385700D02*
X559500Y389700D01*
X563500D01*
X561500Y385700D01*
X557849Y385649D02*
X555849Y389649D01*
X559849D01*
X557849Y385649D01*
X539800Y389000D02*
X537800Y393000D01*
X541800D01*
X539800Y389000D01*
X549968Y363868D02*
X547968Y367868D01*
X551968D01*
X549968Y363868D01*
X554749Y385649D02*
X552749Y389649D01*
X556749D01*
X554749Y385649D01*
X533900Y371800D02*
X531900Y375800D01*
X535900D01*
X533900Y371800D01*
X558000Y392016D02*
X559000Y393016D01*
X560000D01*
X559000Y394016D01*
X560000Y395016D01*
X559000D01*
X558000Y396016D01*
X557000Y395016D01*
X556000D01*
X557000Y394016D01*
X556000Y393016D01*
X557000D01*
X558000Y392016D01*
X565580Y326220D02*
X563580Y330220D01*
X567580D01*
X565580Y326220D01*
X582500Y343100D02*
X580500Y347100D01*
X584500D01*
X582500Y343100D01*
Y339100D02*
X580500Y343100D01*
X584500D01*
X582500Y339100D01*
Y335300D02*
X580500Y339300D01*
X584500D01*
X582500Y335300D01*
X568400Y347700D02*
X566400Y351700D01*
X570400D01*
X568400Y347700D01*
X562100Y357400D02*
X560100Y361400D01*
X564100D01*
X562100Y357400D01*
X576968Y364032D02*
X574968Y368032D01*
X578968D01*
X576968Y364032D01*
X562000Y361200D02*
X560000Y365200D01*
X564000D01*
X562000Y361200D01*
X571800Y359000D02*
X569800Y363000D01*
X573800D01*
X571800Y359000D01*
X582500Y347700D02*
X580500Y351700D01*
X584500D01*
X582500Y347700D01*
X561000Y398000D02*
X562000Y399000D01*
X563000D01*
X562000Y400000D01*
X563000Y401000D01*
X562000D01*
X561000Y402000D01*
X560000Y401000D01*
X559000D01*
X560000Y400000D01*
X559000Y399000D01*
X560000D01*
X561000Y398000D01*
X557749Y404449D02*
X555749Y408449D01*
X559749D01*
X557749Y404449D01*
X539100Y398600D02*
X537100Y402600D01*
X541100D01*
X539100Y398600D01*
X558032Y395969D02*
X559031Y396969D01*
X560032D01*
X559031Y397969D01*
X560032Y398969D01*
X559031D01*
X558032Y399969D01*
X557031Y398969D01*
X556032D01*
X557031Y397969D01*
X556032Y396969D01*
X557031D01*
X558032Y395969D01*
X521152Y413352D02*
X519152Y417352D01*
X523152D01*
X521152Y413352D01*
X550100Y404000D02*
X548100Y408000D01*
X552100D01*
X550100Y404000D01*
X561000Y394000D02*
X562000Y395000D01*
X563000D01*
X562000Y396000D01*
X563000Y397000D01*
X562000D01*
X561000Y398000D01*
X560000Y397000D01*
X559000D01*
X560000Y396000D01*
X559000Y395000D01*
X560000D01*
X561000Y394000D01*
X530800Y406300D02*
X531800Y407300D01*
X532800D01*
X531800Y408300D01*
X532800Y409300D01*
X531800D01*
X530800Y410300D01*
X529800Y409300D01*
X528800D01*
X529800Y408300D01*
X528800Y407300D01*
X529800D01*
X530800Y406300D01*
X554500Y404400D02*
X552500Y408400D01*
X556500D01*
X554500Y404400D01*
X530802Y402298D02*
X531802Y403298D01*
X532802D01*
X531802Y404298D01*
X532802Y405298D01*
X531802D01*
X530802Y406298D01*
X529802Y405298D01*
X528802D01*
X529802Y404298D01*
X528802Y403298D01*
X529802D01*
X530802Y402298D01*
X532200Y404300D02*
X533200Y405300D01*
X534200D01*
X533200Y406300D01*
X534200Y407300D01*
X533200D01*
X532200Y408300D01*
X531200Y407300D01*
X530200D01*
X531200Y406300D01*
X530200Y405300D01*
X531200D01*
X532200Y404300D01*
X550500Y432100D02*
X551500Y433100D01*
X552500D01*
X551500Y434100D01*
X552500Y435100D01*
X551500D01*
X550500Y436100D01*
X549500Y435100D01*
X548500D01*
X549500Y434100D01*
X548500Y433100D01*
X549500D01*
X550500Y432100D01*
X548300Y427000D02*
X549300Y428000D01*
X550300D01*
X549300Y429000D01*
X550300Y430000D01*
X549300D01*
X548300Y431000D01*
X547300Y430000D01*
X546300D01*
X547300Y429000D01*
X546300Y428000D01*
X547300D01*
X548300Y427000D01*
X553300Y436900D02*
X554300Y437900D01*
X555300D01*
X554300Y438900D01*
X555300Y439900D01*
X554300D01*
X553300Y440900D01*
X552300Y439900D01*
X551300D01*
X552300Y438900D01*
X551300Y437900D01*
X552300D01*
X553300Y436900D01*
X530600Y441900D02*
X531600Y442900D01*
X532600D01*
X531600Y443900D01*
X532600Y444900D01*
X531600D01*
X530600Y445900D01*
X529600Y444900D01*
X528600D01*
X529600Y443900D01*
X528600Y442900D01*
X529600D01*
X530600Y441900D01*
X551584Y459000D02*
X549584Y463000D01*
X553584D01*
X551584Y459000D01*
X556800Y441900D02*
X557800Y442900D01*
X558800D01*
X557800Y443900D01*
X558800Y444900D01*
X557800D01*
X556800Y445900D01*
X555800Y444900D01*
X554800D01*
X555800Y443900D01*
X554800Y442900D01*
X555800D01*
X556800Y441900D01*
X520800Y430300D02*
X521800Y431300D01*
X522800D01*
X521800Y432300D01*
X522800Y433300D01*
X521800D01*
X520800Y434300D01*
X519800Y433300D01*
X518800D01*
X519800Y432300D01*
X518800Y431300D01*
X519800D01*
X520800Y430300D01*
X556800Y453500D02*
X557800Y454500D01*
X558800D01*
X557800Y455500D01*
X558800Y456500D01*
X557800D01*
X556800Y457500D01*
X555800Y456500D01*
X554800D01*
X555800Y455500D01*
X554800Y454500D01*
X555800D01*
X556800Y453500D01*
X420040Y357207D02*
X421040Y358208D01*
X422040D01*
X421040Y359208D01*
X422040Y360208D01*
X421040D01*
X420040Y361208D01*
X419040Y360208D01*
X418040D01*
X419040Y359208D01*
X418040Y358208D01*
X419040D01*
X420040Y357207D01*
X419800Y359000D02*
X420800Y360000D01*
X421800D01*
X420800Y361000D01*
X421800Y362000D01*
X420800D01*
X419800Y363000D01*
X418800Y362000D01*
X417800D01*
X418800Y361000D01*
X417800Y360000D01*
X418800D01*
X419800Y359000D01*
X442100Y375600D02*
X440100Y379600D01*
X444100D01*
X442100Y375600D01*
X443200Y373100D02*
X441200Y377100D01*
X445200D01*
X443200Y373100D01*
X448000Y355000D02*
X449000Y356000D01*
X450000D01*
X449000Y357000D01*
X450000Y358000D01*
X449000D01*
X448000Y359000D01*
X447000Y358000D01*
X446000D01*
X447000Y357000D01*
X446000Y356000D01*
X447000D01*
X448000Y355000D01*
X444500Y347000D02*
X445500Y348000D01*
X446500D01*
X445500Y349000D01*
X446500Y350000D01*
X445500D01*
X444500Y351000D01*
X443500Y350000D01*
X442500D01*
X443500Y349000D01*
X442500Y348000D01*
X443500D01*
X444500Y347000D01*
X420700Y458800D02*
X421700Y459800D01*
X422700D01*
X421700Y460800D01*
X422700Y461800D01*
X421700D01*
X420700Y462800D01*
X419700Y461800D01*
X418700D01*
X419700Y460800D01*
X418700Y459800D01*
X419700D01*
X420700Y458800D01*
X421500Y454716D02*
X422500Y455716D01*
X423500D01*
X422500Y456716D01*
X423500Y457716D01*
X422500D01*
X421500Y458716D01*
X420500Y457716D01*
X419500D01*
X420500Y456716D01*
X419500Y455716D01*
X420500D01*
X421500Y454716D01*
X417000Y459000D02*
X415000Y463000D01*
X419000D01*
X417000Y459000D01*
X438547Y457253D02*
X436547Y461253D01*
X440547D01*
X438547Y457253D01*
X442300Y448700D02*
X440300Y452700D01*
X444300D01*
X442300Y448700D01*
X445900Y439200D02*
X443900Y443200D01*
X447900D01*
X445900Y439200D01*
X423500Y456500D02*
X424500Y457500D01*
X425500D01*
X424500Y458500D01*
X425500Y459500D01*
X424500D01*
X423500Y460500D01*
X422500Y459500D01*
X421500D01*
X422500Y458500D01*
X421500Y457500D01*
X422500D01*
X423500Y456500D01*
X441700Y444900D02*
X442700Y445900D01*
X443700D01*
X442700Y446900D01*
X443700Y447900D01*
X442700D01*
X441700Y448900D01*
X440700Y447900D01*
X439700D01*
X440700Y446900D01*
X439700Y445900D01*
X440700D01*
X441700Y444900D01*
X450149Y432851D02*
X448149Y436851D01*
X452149D01*
X450149Y432851D01*
X459200Y350000D02*
X457200Y354000D01*
X461200D01*
X459200Y350000D01*
X457876Y374468D02*
X455876Y378468D01*
X459876D01*
X457876Y374468D01*
X455000Y357000D02*
X456000Y358000D01*
X457000D01*
X456000Y359000D01*
X457000Y360000D01*
X456000D01*
X455000Y361000D01*
X454000Y360000D01*
X453000D01*
X454000Y359000D01*
X453000Y358000D01*
X454000D01*
X455000Y357000D01*
X452000Y353000D02*
X453000Y354000D01*
X454000D01*
X453000Y355000D01*
X454000Y356000D01*
X453000D01*
X452000Y357000D01*
X451000Y356000D01*
X450000D01*
X451000Y355000D01*
X450000Y354000D01*
X451000D01*
X452000Y353000D01*
X446000Y408800D02*
X444000Y412800D01*
X448000D01*
X446000Y408800D01*
X427390Y404190D02*
X425390Y408190D01*
X429390D01*
X427390Y404190D01*
X440016Y415516D02*
X438016Y419516D01*
X442016D01*
X440016Y415516D01*
X432600Y414500D02*
X430600Y418500D01*
X434600D01*
X432600Y414500D01*
X420390Y413490D02*
X418390Y417490D01*
X422390D01*
X420390Y413490D01*
X413890Y405790D02*
X411890Y409790D01*
X415890D01*
X413890Y405790D01*
X394190Y410610D02*
X392190Y414610D01*
X396190D01*
X394190Y410610D01*
X404851Y404049D02*
X402851Y408049D01*
X406851D01*
X404851Y404049D01*
X395987Y450187D02*
X393987Y454187D01*
X397987D01*
X395987Y450187D01*
X423526Y440650D02*
X424526Y441650D01*
X425526D01*
X424526Y442650D01*
X425526Y443650D01*
X424526D01*
X423526Y444650D01*
X422526Y443650D01*
X421526D01*
X422526Y442650D01*
X421526Y441650D01*
X422526D01*
X423526Y440650D01*
X403000Y454000D02*
X401000Y458000D01*
X405000D01*
X403000Y454000D01*
X399500Y442800D02*
X397500Y446800D01*
X401500D01*
X399500Y442800D01*
X419500Y453284D02*
X420500Y454284D01*
X421500D01*
X420500Y455284D01*
X421500Y456284D01*
X420500D01*
X419500Y457284D01*
X418500Y456284D01*
X417500D01*
X418500Y455284D01*
X417500Y454284D01*
X418500D01*
X419500Y453284D01*
X417500Y451500D02*
X418500Y452500D01*
X419500D01*
X418500Y453500D01*
X419500Y454500D01*
X418500D01*
X417500Y455500D01*
X416500Y454500D01*
X415500D01*
X416500Y453500D01*
X415500Y452500D01*
X416500D01*
X417500Y451500D01*
X410400Y379100D02*
X408400Y383100D01*
X412400D01*
X410400Y379100D01*
X370252Y363148D02*
X368252Y367148D01*
X372252D01*
X370252Y363148D01*
X409300Y417000D02*
X407300Y421000D01*
X411300D01*
X409300Y417000D01*
X398300Y423500D02*
X396300Y427500D01*
X400300D01*
X398300Y423500D01*
X394490Y418110D02*
X392490Y422110D01*
X396490D01*
X394490Y418110D01*
X415800Y424800D02*
X416800Y425800D01*
X417800D01*
X416800Y426800D01*
X417800Y427800D01*
X416800D01*
X415800Y428800D01*
X414800Y427800D01*
X413800D01*
X414800Y426800D01*
X413800Y425800D01*
X414800D01*
X415800Y424800D01*
X400000Y354000D02*
X398000Y358000D01*
X402000D01*
X400000Y354000D01*
X399100Y383000D02*
X397100Y387000D01*
X401100D01*
X399100Y383000D01*
D149*
X575864Y413957D02*
G03*
X575864Y413957I-2000J0D01*
G01*
Y379941D02*
G03*
X575864Y379941I-2000J0D01*
G01*
D150*
X575064Y413957D02*
G03*
X575064Y413957I-1200J0D01*
G01*
Y379941D02*
G03*
X575064Y379941I-1200J0D01*
G01*
M02*
