G04*
G04 #@! TF.GenerationSoftware,Altium Limited,Altium Designer,25.4.2 (15)*
G04*
G04 Layer_Color=8388736*
%FSLAX25Y25*%
%MOIN*%
G70*
G04*
G04 #@! TF.SameCoordinates,4CCD4F96-9612-4F4B-9C4D-890E15692DA9*
G04*
G04*
G04 #@! TF.FilePolarity,Negative*
G04*
G01*
G75*
%ADD15R,0.03197X0.02593*%
%ADD16R,0.06102X0.03937*%
%ADD17R,0.03150X0.03150*%
%ADD18R,0.03150X0.03150*%
%ADD19R,0.04528X0.01181*%
%ADD20R,0.04528X0.02362*%
%ADD31R,0.02423X0.02254*%
%ADD33R,0.02165X0.01968*%
%ADD34R,0.03197X0.02985*%
%ADD35R,0.03543X0.03150*%
%ADD36R,0.03150X0.03543*%
%ADD37R,0.03174X0.03260*%
%ADD38R,0.01968X0.01968*%
%ADD39R,0.02254X0.02423*%
%ADD40R,0.02985X0.03197*%
%ADD41R,0.03260X0.03174*%
%ADD42R,0.01575X0.01968*%
%ADD43R,0.05000X0.14173*%
%ADD44R,0.05315X0.16535*%
%ADD45R,0.03961X0.05151*%
G04:AMPARAMS|DCode=49|XSize=43.31mil|YSize=23.62mil|CornerRadius=2.01mil|HoleSize=0mil|Usage=FLASHONLY|Rotation=0.000|XOffset=0mil|YOffset=0mil|HoleType=Round|Shape=RoundedRectangle|*
%AMROUNDEDRECTD49*
21,1,0.04331,0.01961,0,0,0.0*
21,1,0.03929,0.02362,0,0,0.0*
1,1,0.00402,0.01965,-0.00980*
1,1,0.00402,-0.01965,-0.00980*
1,1,0.00402,-0.01965,0.00980*
1,1,0.00402,0.01965,0.00980*
%
%ADD49ROUNDEDRECTD49*%
%ADD50R,0.03985X0.04562*%
%ADD51R,0.01968X0.02362*%
%ADD53R,0.02593X0.03197*%
%ADD57R,0.02362X0.01968*%
%ADD58R,0.03568X0.03563*%
%ADD60R,0.03563X0.03568*%
G04:AMPARAMS|DCode=63|XSize=19.68mil|YSize=7.87mil|CornerRadius=1.97mil|HoleSize=0mil|Usage=FLASHONLY|Rotation=270.000|XOffset=0mil|YOffset=0mil|HoleType=Round|Shape=RoundedRectangle|*
%AMROUNDEDRECTD63*
21,1,0.01968,0.00394,0,0,270.0*
21,1,0.01575,0.00787,0,0,270.0*
1,1,0.00394,-0.00197,-0.00787*
1,1,0.00394,-0.00197,0.00787*
1,1,0.00394,0.00197,0.00787*
1,1,0.00394,0.00197,-0.00787*
%
%ADD63ROUNDEDRECTD63*%
%ADD75C,0.00715*%
%ADD76R,0.10100X0.12100*%
%ADD77R,0.01300X0.05700*%
%ADD78R,0.01400X0.02600*%
%ADD79R,0.06200X0.03000*%
%ADD80R,1.20079X1.18110*%
%ADD81R,0.02300X0.03800*%
%ADD82O,0.04343X0.01784*%
%ADD83O,0.01784X0.04343*%
%ADD84R,0.11036X0.11036*%
%ADD85R,0.07493X0.07493*%
%ADD86O,0.04147X0.01902*%
%ADD87O,0.01902X0.04147*%
%ADD88R,0.13005X0.13005*%
%ADD89O,0.03950X0.01784*%
%ADD90O,0.01784X0.03950*%
G04:AMPARAMS|DCode=91|XSize=24.54mil|YSize=21.78mil|CornerRadius=7.45mil|HoleSize=0mil|Usage=FLASHONLY|Rotation=0.000|XOffset=0mil|YOffset=0mil|HoleType=Round|Shape=RoundedRectangle|*
%AMROUNDEDRECTD91*
21,1,0.02454,0.00689,0,0,0.0*
21,1,0.00965,0.02178,0,0,0.0*
1,1,0.01489,0.00482,-0.00345*
1,1,0.01489,-0.00482,-0.00345*
1,1,0.01489,-0.00482,0.00345*
1,1,0.01489,0.00482,0.00345*
%
%ADD91ROUNDEDRECTD91*%
%ADD92R,0.06312X0.10839*%
%ADD93R,0.03792X0.03635*%
%ADD94R,0.02847X0.03005*%
%ADD95R,0.03635X0.03635*%
G04:AMPARAMS|DCode=96|XSize=43.43mil|YSize=33.59mil|CornerRadius=5.92mil|HoleSize=0mil|Usage=FLASHONLY|Rotation=270.000|XOffset=0mil|YOffset=0mil|HoleType=Round|Shape=RoundedRectangle|*
%AMROUNDEDRECTD96*
21,1,0.04343,0.02175,0,0,270.0*
21,1,0.03159,0.03359,0,0,270.0*
1,1,0.01184,-0.01088,-0.01580*
1,1,0.01184,-0.01088,0.01580*
1,1,0.01184,0.01088,0.01580*
1,1,0.01184,0.01088,-0.01580*
%
%ADD96ROUNDEDRECTD96*%
G04:AMPARAMS|DCode=97|XSize=41.07mil|YSize=15.87mil|CornerRadius=4.98mil|HoleSize=0mil|Usage=FLASHONLY|Rotation=270.000|XOffset=0mil|YOffset=0mil|HoleType=Round|Shape=RoundedRectangle|*
%AMROUNDEDRECTD97*
21,1,0.04107,0.00591,0,0,270.0*
21,1,0.03110,0.01587,0,0,270.0*
1,1,0.00997,-0.00295,-0.01555*
1,1,0.00997,-0.00295,0.01555*
1,1,0.00997,0.00295,0.01555*
1,1,0.00997,0.00295,-0.01555*
%
%ADD97ROUNDEDRECTD97*%
G04:AMPARAMS|DCode=98|XSize=15.87mil|YSize=41.07mil|CornerRadius=4.98mil|HoleSize=0mil|Usage=FLASHONLY|Rotation=270.000|XOffset=0mil|YOffset=0mil|HoleType=Round|Shape=RoundedRectangle|*
%AMROUNDEDRECTD98*
21,1,0.01587,0.03110,0,0,270.0*
21,1,0.00591,0.04107,0,0,270.0*
1,1,0.00997,-0.01555,-0.00295*
1,1,0.00997,-0.01555,0.00295*
1,1,0.00997,0.01555,0.00295*
1,1,0.00997,0.01555,-0.00295*
%
%ADD98ROUNDEDRECTD98*%
%ADD99R,0.01654X0.02992*%
%ADD100R,0.05918X0.04934*%
G04:AMPARAMS|DCode=101|XSize=71.39mil|YSize=30.84mil|CornerRadius=6.85mil|HoleSize=0mil|Usage=FLASHONLY|Rotation=0.000|XOffset=0mil|YOffset=0mil|HoleType=Round|Shape=RoundedRectangle|*
%AMROUNDEDRECTD101*
21,1,0.07139,0.01713,0,0,0.0*
21,1,0.05768,0.03084,0,0,0.0*
1,1,0.01371,0.02884,-0.00856*
1,1,0.01371,-0.02884,-0.00856*
1,1,0.01371,-0.02884,0.00856*
1,1,0.01371,0.02884,0.00856*
%
%ADD101ROUNDEDRECTD101*%
G04:AMPARAMS|DCode=102|XSize=7.87mil|YSize=27.56mil|CornerRadius=1.97mil|HoleSize=0mil|Usage=FLASHONLY|Rotation=270.000|XOffset=0mil|YOffset=0mil|HoleType=Round|Shape=RoundedRectangle|*
%AMROUNDEDRECTD102*
21,1,0.00787,0.02362,0,0,270.0*
21,1,0.00394,0.02756,0,0,270.0*
1,1,0.00394,-0.01181,-0.00197*
1,1,0.00394,-0.01181,0.00197*
1,1,0.00394,0.01181,0.00197*
1,1,0.00394,0.01181,-0.00197*
%
%ADD102ROUNDEDRECTD102*%
%ADD103R,0.04934X0.03162*%
%ADD104R,0.01378X0.01772*%
%ADD105R,0.03950X0.03162*%
%ADD106R,0.03005X0.02847*%
%ADD107R,0.03950X0.04737*%
%ADD108R,0.04737X0.03950*%
%ADD109R,0.03162X0.02965*%
%ADD110R,0.02769X0.02572*%
%ADD111R,0.03162X0.03950*%
%ADD112R,0.02965X0.03162*%
%ADD113C,0.05800*%
G04:AMPARAMS|DCode=114|XSize=39.37mil|YSize=70.87mil|CornerRadius=19.68mil|HoleSize=0mil|Usage=FLASHONLY|Rotation=90.000|XOffset=0mil|YOffset=0mil|HoleType=Round|Shape=RoundedRectangle|*
%AMROUNDEDRECTD114*
21,1,0.03937,0.03150,0,0,90.0*
21,1,0.00000,0.07087,0,0,90.0*
1,1,0.03937,0.01575,0.00000*
1,1,0.03937,0.01575,0.00000*
1,1,0.03937,-0.01575,0.00000*
1,1,0.03937,-0.01575,0.00000*
%
%ADD114ROUNDEDRECTD114*%
G04:AMPARAMS|DCode=115|XSize=39.37mil|YSize=86.61mil|CornerRadius=19.68mil|HoleSize=0mil|Usage=FLASHONLY|Rotation=90.000|XOffset=0mil|YOffset=0mil|HoleType=Round|Shape=RoundedRectangle|*
%AMROUNDEDRECTD115*
21,1,0.03937,0.04724,0,0,90.0*
21,1,0.00000,0.08661,0,0,90.0*
1,1,0.03937,0.02362,0.00000*
1,1,0.03937,0.02362,0.00000*
1,1,0.03937,-0.02362,0.00000*
1,1,0.03937,-0.02362,0.00000*
%
%ADD115ROUNDEDRECTD115*%
%ADD116O,0.08674X0.12611*%
%ADD117C,0.02300*%
%ADD118C,0.01800*%
%ADD119C,0.02000*%
%ADD120C,0.02800*%
%ADD121C,0.02769*%
%ADD122C,0.02400*%
%ADD123C,0.12800*%
D15*
X522835Y480617D02*
D03*
Y475289D02*
D03*
X558600Y342736D02*
D03*
Y348064D02*
D03*
D16*
X492717Y493701D02*
D03*
X513386D02*
D03*
X492717Y481102D02*
D03*
X513386D02*
D03*
X513091Y308661D02*
D03*
X492421D02*
D03*
X513091Y321260D02*
D03*
X492421D02*
D03*
D17*
X542913Y368307D02*
D03*
Y374213D02*
D03*
X448819Y392323D02*
D03*
Y386417D02*
D03*
X590158Y338779D02*
D03*
Y332874D02*
D03*
D18*
X432480Y316142D02*
D03*
X426575D02*
D03*
X510236Y364961D02*
D03*
X516142D02*
D03*
D19*
X571600Y390059D02*
D03*
Y392028D02*
D03*
Y393996D02*
D03*
Y395965D02*
D03*
Y397933D02*
D03*
Y399902D02*
D03*
Y401870D02*
D03*
Y403839D02*
D03*
D20*
Y406398D02*
D03*
Y387500D02*
D03*
Y384350D02*
D03*
Y409547D02*
D03*
D31*
X308687Y477500D02*
D03*
X305313D02*
D03*
X373475Y356757D02*
D03*
X370100D02*
D03*
D33*
X308870Y483000D02*
D03*
X305130D02*
D03*
D34*
X335000Y485000D02*
D03*
Y489937D02*
D03*
X565580Y337265D02*
D03*
Y332328D02*
D03*
X449000Y363032D02*
D03*
Y367969D02*
D03*
D35*
X342000Y484547D02*
D03*
Y490453D02*
D03*
X393200Y359253D02*
D03*
Y353347D02*
D03*
X385400Y359300D02*
D03*
Y353395D02*
D03*
X413890Y417351D02*
D03*
Y411446D02*
D03*
X427390Y415804D02*
D03*
Y409898D02*
D03*
X432400Y453347D02*
D03*
Y459253D02*
D03*
X387890Y464446D02*
D03*
Y470351D02*
D03*
X395390Y464446D02*
D03*
Y470351D02*
D03*
X516200Y379353D02*
D03*
Y373447D02*
D03*
X504000Y379453D02*
D03*
Y373547D02*
D03*
X576500Y443905D02*
D03*
Y438000D02*
D03*
X306937Y470905D02*
D03*
Y465000D02*
D03*
X523700Y379353D02*
D03*
Y373447D02*
D03*
X521000Y422047D02*
D03*
Y427953D02*
D03*
D36*
X404851Y420110D02*
D03*
X398946D02*
D03*
X404851Y412610D02*
D03*
X398946D02*
D03*
X412453Y456000D02*
D03*
X406547D02*
D03*
X412453Y463000D02*
D03*
X406547D02*
D03*
X431547Y377500D02*
D03*
X437453D02*
D03*
X431890Y427851D02*
D03*
X437795D02*
D03*
X431890Y434851D02*
D03*
X437795D02*
D03*
X475705Y383600D02*
D03*
X469800D02*
D03*
X475705Y391100D02*
D03*
X469800D02*
D03*
X498453Y426500D02*
D03*
X492547D02*
D03*
X539547Y406000D02*
D03*
X545453D02*
D03*
X539595Y413000D02*
D03*
X545500D02*
D03*
X539595Y420000D02*
D03*
X545500D02*
D03*
X560953Y461000D02*
D03*
X555047D02*
D03*
D37*
X405600Y384850D02*
D03*
Y381000D02*
D03*
X549968Y357329D02*
D03*
Y361179D02*
D03*
X576968Y357404D02*
D03*
Y361254D02*
D03*
X432500Y332975D02*
D03*
Y336825D02*
D03*
D38*
X409500Y469031D02*
D03*
Y472968D02*
D03*
D39*
X415000Y469313D02*
D03*
Y472687D02*
D03*
X399500Y448813D02*
D03*
Y452187D02*
D03*
D40*
X437032Y370000D02*
D03*
X441968D02*
D03*
X431500D02*
D03*
X426563D02*
D03*
X530500Y391000D02*
D03*
X535437D02*
D03*
X530563Y384500D02*
D03*
X535500D02*
D03*
D41*
X431575D02*
D03*
X435425D02*
D03*
D42*
X471075Y398500D02*
D03*
X467925D02*
D03*
X477075Y419000D02*
D03*
X473925D02*
D03*
D43*
X390500Y303500D02*
D03*
Y492000D02*
D03*
D44*
X401622Y304287D02*
D03*
X379378D02*
D03*
Y491213D02*
D03*
X401622D02*
D03*
D45*
X374359Y329100D02*
D03*
X368641D02*
D03*
X404204Y329000D02*
D03*
X409922D02*
D03*
X404204Y337600D02*
D03*
X409922D02*
D03*
X577939Y329297D02*
D03*
X572222D02*
D03*
X374459Y337800D02*
D03*
X368741D02*
D03*
D49*
X414782Y384840D02*
D03*
Y381100D02*
D03*
Y377360D02*
D03*
X425018D02*
D03*
Y384840D02*
D03*
X567000Y357260D02*
D03*
Y361000D02*
D03*
Y364740D02*
D03*
X556764D02*
D03*
Y357260D02*
D03*
D50*
X425500Y476000D02*
D03*
Y482510D02*
D03*
D51*
X435468Y392500D02*
D03*
X431531D02*
D03*
X551669Y479300D02*
D03*
X547731D02*
D03*
X384469Y319000D02*
D03*
X380532D02*
D03*
D53*
X521000Y330800D02*
D03*
X526328D02*
D03*
X475336Y398500D02*
D03*
X480664D02*
D03*
D57*
X510100Y374632D02*
D03*
Y378569D02*
D03*
X590200Y345731D02*
D03*
Y349669D02*
D03*
X543000Y361268D02*
D03*
Y357331D02*
D03*
X549000Y467969D02*
D03*
Y464032D02*
D03*
X432600Y323832D02*
D03*
Y327768D02*
D03*
D58*
X558580Y337161D02*
D03*
Y332432D02*
D03*
D60*
X577564Y349700D02*
D03*
X572835D02*
D03*
D63*
X560303Y474165D02*
D03*
X558728D02*
D03*
X557154D02*
D03*
X555579D02*
D03*
Y468260D02*
D03*
X557154D02*
D03*
X558728D02*
D03*
X560303D02*
D03*
D75*
X317357Y466500D02*
G03*
X317357Y466500I-357J0D01*
G01*
X321294D02*
G03*
X321294Y466500I-357J0D01*
G01*
X317357Y470437D02*
G03*
X317357Y470437I-357J0D01*
G01*
X321294D02*
G03*
X321294Y470437I-357J0D01*
G01*
X317357Y468469D02*
G03*
X317357Y468469I-357J0D01*
G01*
X321294D02*
G03*
X321294Y468469I-357J0D01*
G01*
D76*
X319050Y483550D02*
D03*
D77*
X393240Y476701D02*
D03*
D78*
X390690Y476851D02*
D03*
D79*
X306900Y478300D02*
D03*
D80*
X296260Y401575D02*
D03*
D81*
X296800Y459300D02*
D03*
D82*
X397000Y328463D02*
D03*
Y330432D02*
D03*
Y332400D02*
D03*
Y334368D02*
D03*
Y336337D02*
D03*
Y338305D02*
D03*
X381646D02*
D03*
Y336337D02*
D03*
Y334368D02*
D03*
Y332400D02*
D03*
Y330432D02*
D03*
Y328463D02*
D03*
D83*
X394244Y341061D02*
D03*
X392276D02*
D03*
X390307D02*
D03*
X388339D02*
D03*
X386370D02*
D03*
X384402D02*
D03*
Y325707D02*
D03*
X386370D02*
D03*
X388339D02*
D03*
X390307D02*
D03*
X392276D02*
D03*
X394244D02*
D03*
D84*
X389323Y333384D02*
D03*
D85*
X433193Y358016D02*
D03*
D86*
X439000Y360968D02*
D03*
Y359000D02*
D03*
Y357031D02*
D03*
Y355063D02*
D03*
X427386D02*
D03*
Y357031D02*
D03*
Y359000D02*
D03*
Y360968D02*
D03*
D87*
X436146Y352209D02*
D03*
X434177D02*
D03*
X432209D02*
D03*
X430240D02*
D03*
Y363823D02*
D03*
X432209D02*
D03*
X434177D02*
D03*
X436146D02*
D03*
D88*
X414551Y439890D02*
D03*
X505988Y401624D02*
D03*
D89*
X424000Y446779D02*
D03*
Y444811D02*
D03*
Y442842D02*
D03*
Y440874D02*
D03*
Y438905D02*
D03*
Y436937D02*
D03*
Y434969D02*
D03*
Y433000D02*
D03*
X405102D02*
D03*
Y434969D02*
D03*
Y436937D02*
D03*
Y438905D02*
D03*
Y440874D02*
D03*
Y442842D02*
D03*
Y444811D02*
D03*
Y446779D02*
D03*
D90*
X421441Y430441D02*
D03*
X419472D02*
D03*
X417504D02*
D03*
X415535D02*
D03*
X413567D02*
D03*
X411598D02*
D03*
X409630D02*
D03*
X407661D02*
D03*
Y449339D02*
D03*
X409630D02*
D03*
X411598D02*
D03*
X413567D02*
D03*
X415535D02*
D03*
X417504D02*
D03*
X419472D02*
D03*
X421441D02*
D03*
D91*
X314039Y488421D02*
D03*
Y486453D02*
D03*
Y484484D02*
D03*
Y482516D02*
D03*
Y480547D02*
D03*
Y478579D02*
D03*
X323961D02*
D03*
Y480547D02*
D03*
Y482516D02*
D03*
Y484484D02*
D03*
Y486453D02*
D03*
Y488421D02*
D03*
D92*
X319000Y483500D02*
D03*
D93*
X398429Y319000D02*
D03*
X394571D02*
D03*
X373716Y345657D02*
D03*
X369858D02*
D03*
Y351157D02*
D03*
X373716D02*
D03*
X407858Y319000D02*
D03*
X404000D02*
D03*
X405400Y347641D02*
D03*
X409258D02*
D03*
Y353000D02*
D03*
X405400D02*
D03*
D94*
X363500Y327429D02*
D03*
Y330500D02*
D03*
Y339571D02*
D03*
Y336500D02*
D03*
X415000Y327429D02*
D03*
Y330500D02*
D03*
Y339035D02*
D03*
Y335965D02*
D03*
D95*
X410592Y423200D02*
D03*
X414608D02*
D03*
X430500Y421500D02*
D03*
X426484D02*
D03*
X440016D02*
D03*
X436000D02*
D03*
D96*
X438148Y447353D02*
D03*
X431652D02*
D03*
Y441447D02*
D03*
X438148D02*
D03*
D97*
X516224Y388100D02*
D03*
X514650D02*
D03*
X513075D02*
D03*
X511500D02*
D03*
X509925D02*
D03*
X508350D02*
D03*
X506776D02*
D03*
X505201D02*
D03*
X503626D02*
D03*
X502051D02*
D03*
X500476D02*
D03*
X498902D02*
D03*
X497327D02*
D03*
X495752D02*
D03*
Y415147D02*
D03*
X497327D02*
D03*
X498902D02*
D03*
X500476D02*
D03*
X502051D02*
D03*
X503626D02*
D03*
X505201D02*
D03*
X506776D02*
D03*
X508350D02*
D03*
X509925D02*
D03*
X511500D02*
D03*
X513075D02*
D03*
X514650D02*
D03*
X516224D02*
D03*
D98*
X519512Y411860D02*
D03*
Y410285D02*
D03*
Y408710D02*
D03*
Y407135D02*
D03*
Y405561D02*
D03*
Y403986D02*
D03*
Y402411D02*
D03*
Y400836D02*
D03*
Y399261D02*
D03*
Y397687D02*
D03*
Y396112D02*
D03*
Y394537D02*
D03*
Y392962D02*
D03*
Y391387D02*
D03*
X492465D02*
D03*
Y392962D02*
D03*
Y394537D02*
D03*
Y396112D02*
D03*
Y397687D02*
D03*
Y399261D02*
D03*
Y400836D02*
D03*
Y402411D02*
D03*
Y403986D02*
D03*
Y405561D02*
D03*
Y407135D02*
D03*
Y408710D02*
D03*
Y410285D02*
D03*
Y411860D02*
D03*
D99*
X572128Y337403D02*
D03*
X574096D02*
D03*
X576065D02*
D03*
X578033D02*
D03*
Y343191D02*
D03*
X576065D02*
D03*
X574096D02*
D03*
X572128D02*
D03*
D100*
X471000Y405610D02*
D03*
X480055D02*
D03*
Y412500D02*
D03*
X471000D02*
D03*
D101*
X566111Y443905D02*
D03*
Y438905D02*
D03*
Y433905D02*
D03*
Y428905D02*
D03*
X537725D02*
D03*
Y433905D02*
D03*
Y438905D02*
D03*
Y443905D02*
D03*
D102*
X560500Y470425D02*
D03*
Y472000D02*
D03*
X555382D02*
D03*
Y470425D02*
D03*
D103*
X439385Y332860D02*
D03*
Y340340D02*
D03*
X450015D02*
D03*
Y336600D02*
D03*
Y332860D02*
D03*
D104*
X390500Y321000D02*
D03*
Y319032D02*
D03*
Y317063D02*
D03*
X387941D02*
D03*
Y319032D02*
D03*
Y321000D02*
D03*
X390110Y474883D02*
D03*
Y476851D02*
D03*
Y478820D02*
D03*
X392669D02*
D03*
Y476851D02*
D03*
Y474883D02*
D03*
D105*
X400000Y347441D02*
D03*
Y352559D02*
D03*
X334000Y463441D02*
D03*
Y468559D02*
D03*
Y473441D02*
D03*
Y478559D02*
D03*
X328900Y484741D02*
D03*
Y489859D02*
D03*
X420390Y423410D02*
D03*
Y418292D02*
D03*
D106*
X370252Y361757D02*
D03*
X373323D02*
D03*
X401765Y425500D02*
D03*
X404835D02*
D03*
D107*
X416953Y480000D02*
D03*
X411047D02*
D03*
D108*
X551300Y337044D02*
D03*
Y342556D02*
D03*
D109*
X546673Y394000D02*
D03*
X543327D02*
D03*
X546673Y400000D02*
D03*
X543327D02*
D03*
D110*
X424476Y469000D02*
D03*
X421524D02*
D03*
D111*
X521059Y436000D02*
D03*
X515941D02*
D03*
X505941D02*
D03*
X511059D02*
D03*
D112*
X560713Y479874D02*
D03*
Y483220D02*
D03*
D113*
X350800Y490500D02*
D03*
X376400Y368400D02*
D03*
X417800Y307000D02*
D03*
X492600Y343600D02*
D03*
X586000Y438100D02*
D03*
X529400Y347800D02*
D03*
X584646Y326378D02*
D03*
X534600Y453400D02*
D03*
X405500Y373800D02*
D03*
X424900Y392800D02*
D03*
X507700Y445000D02*
D03*
X497100Y436000D02*
D03*
X436300Y410000D02*
D03*
D114*
X573864Y413957D02*
D03*
Y379941D02*
D03*
D115*
X589612Y413957D02*
D03*
Y379941D02*
D03*
D116*
X449200Y312400D02*
D03*
X469200D02*
D03*
X459200D02*
D03*
X558200D02*
D03*
X538200D02*
D03*
X548200D02*
D03*
D117*
X554900Y409600D02*
D03*
X551900D02*
D03*
X557800Y409547D02*
D03*
X564625Y384300D02*
D03*
X557700D02*
D03*
X554400D02*
D03*
X542913Y381102D02*
D03*
X590158Y326772D02*
D03*
X342000Y494600D02*
D03*
X335000Y494500D02*
D03*
X425500Y487100D02*
D03*
X301400Y465000D02*
D03*
X411047Y484247D02*
D03*
X409500Y476284D02*
D03*
X401622Y479778D02*
D03*
X379378Y479622D02*
D03*
X504000Y368700D02*
D03*
X407858Y315942D02*
D03*
X417629Y327429D02*
D03*
X432500Y341900D02*
D03*
X363500Y323600D02*
D03*
X415000Y345300D02*
D03*
X394571Y315671D02*
D03*
X363500Y344300D02*
D03*
X445000Y336600D02*
D03*
X576500Y434400D02*
D03*
X561351Y406449D02*
D03*
X561500Y387700D02*
D03*
X557849Y387649D02*
D03*
X539800Y391000D02*
D03*
X549968Y365868D02*
D03*
X554749Y387649D02*
D03*
X565580Y328220D02*
D03*
X568400Y349700D02*
D03*
X576968Y366032D02*
D03*
X571800Y361000D02*
D03*
X557749Y406449D02*
D03*
X550100Y406000D02*
D03*
X554500Y406400D02*
D03*
X551584Y461000D02*
D03*
X442100Y377600D02*
D03*
X443200Y375100D02*
D03*
X438547Y459253D02*
D03*
X442300Y450700D02*
D03*
X450149Y434851D02*
D03*
X459200Y352000D02*
D03*
X427390Y406190D02*
D03*
X440016Y417516D02*
D03*
X432600Y416500D02*
D03*
X420390Y415490D02*
D03*
X413890Y407790D02*
D03*
X394190Y412610D02*
D03*
X395987Y452187D02*
D03*
X403000Y456000D02*
D03*
X410400Y381100D02*
D03*
X370252Y365148D02*
D03*
X409300Y419000D02*
D03*
X398300Y425500D02*
D03*
X394490Y420110D02*
D03*
X400000Y356000D02*
D03*
D118*
X516142Y359842D02*
D03*
X517100Y330900D02*
D03*
X522835Y471153D02*
D03*
X502756Y308661D02*
D03*
X503051Y493701D02*
D03*
X323961Y491239D02*
D03*
X329000Y494500D02*
D03*
X314000Y492500D02*
D03*
X318600Y475300D02*
D03*
X329500Y482200D02*
D03*
X326500Y466684D02*
D03*
X313000Y468400D02*
D03*
X338000Y478500D02*
D03*
X340500Y468500D02*
D03*
X330000Y470500D02*
D03*
X305200Y474600D02*
D03*
X328000Y480500D02*
D03*
X387400Y476900D02*
D03*
X395200Y476800D02*
D03*
X485600Y426500D02*
D03*
X461800Y398400D02*
D03*
X464000Y391000D02*
D03*
X485700Y388600D02*
D03*
X487400Y390400D02*
D03*
X473800Y430500D02*
D03*
X464200Y383600D02*
D03*
X476000Y432300D02*
D03*
X470900Y418800D02*
D03*
X485700Y384600D02*
D03*
X487200Y379800D02*
D03*
X488800Y410200D02*
D03*
X490400Y418200D02*
D03*
Y415800D02*
D03*
X502100Y411000D02*
D03*
X504991Y418500D02*
D03*
X516000Y441000D02*
D03*
X511000D02*
D03*
X490400Y422800D02*
D03*
Y420500D02*
D03*
X506000D02*
D03*
X508738Y426762D02*
D03*
X507238Y425262D02*
D03*
X507000Y422500D02*
D03*
X503700Y384900D02*
D03*
X510865Y406500D02*
D03*
X514200Y384500D02*
D03*
X489035Y407135D02*
D03*
X501224Y396800D02*
D03*
X505800Y383800D02*
D03*
X505988Y401624D02*
D03*
X501224Y406400D02*
D03*
X489100Y391700D02*
D03*
X510900Y396712D02*
D03*
X511600Y384500D02*
D03*
X508000Y391900D02*
D03*
X551500Y474500D02*
D03*
X546000Y468000D02*
D03*
X566500Y477000D02*
D03*
X564500Y465800D02*
D03*
X566700D02*
D03*
X557200Y482300D02*
D03*
X544031Y479300D02*
D03*
X359962Y333919D02*
D03*
X379400Y315700D02*
D03*
X385700Y315800D02*
D03*
X401600Y315600D02*
D03*
X442000Y347000D02*
D03*
X358700Y332657D02*
D03*
X530500Y330900D02*
D03*
X522900Y357300D02*
D03*
X566800Y403900D02*
D03*
X564500Y392100D02*
D03*
X558000Y394016D02*
D03*
X561000Y400000D02*
D03*
X558032Y397969D02*
D03*
X561000Y396000D02*
D03*
X530800Y408300D02*
D03*
X530802Y404298D02*
D03*
X532200Y406300D02*
D03*
X550500Y434100D02*
D03*
X548300Y429000D02*
D03*
X553300Y438900D02*
D03*
X530600Y443900D02*
D03*
X556800D02*
D03*
X520800Y432300D02*
D03*
X556800Y455500D02*
D03*
X420040Y359208D02*
D03*
X419800Y361000D02*
D03*
X448000Y357000D02*
D03*
X444500Y349000D02*
D03*
X420700Y460800D02*
D03*
X421500Y456716D02*
D03*
X423500Y458500D02*
D03*
X441700Y446900D02*
D03*
X455000Y359000D02*
D03*
X452000Y355000D02*
D03*
X423526Y442650D02*
D03*
X419500Y455284D02*
D03*
X417500Y453500D02*
D03*
X415800Y426800D02*
D03*
D119*
X441000Y306000D02*
D03*
X363000Y378000D02*
D03*
X390000Y444000D02*
D03*
X450000Y492000D02*
D03*
X405000Y390000D02*
D03*
X531000Y486000D02*
D03*
X462000Y336000D02*
D03*
X528000Y312000D02*
D03*
X423000Y342000D02*
D03*
X501000D02*
D03*
X468000Y480000D02*
D03*
X576000Y468000D02*
D03*
X462000Y480000D02*
D03*
X432000Y492000D02*
D03*
X552000Y396000D02*
D03*
X576000Y480000D02*
D03*
X360000Y408000D02*
D03*
X405000Y402000D02*
D03*
X360000Y372000D02*
D03*
X570000Y300000D02*
D03*
X453000Y450000D02*
D03*
X573000D02*
D03*
X384000Y396000D02*
D03*
X363000Y390000D02*
D03*
X477000Y462000D02*
D03*
X570000Y312000D02*
D03*
X552000Y444000D02*
D03*
X465000Y486000D02*
D03*
X372000Y444000D02*
D03*
X492000Y456000D02*
D03*
X519000Y462000D02*
D03*
X579000Y474000D02*
D03*
X573000Y462000D02*
D03*
X480000Y324000D02*
D03*
X381000Y390000D02*
D03*
X489000Y414000D02*
D03*
X591000Y462000D02*
D03*
X579000Y306000D02*
D03*
X477000Y486000D02*
D03*
Y450000D02*
D03*
X588000Y456000D02*
D03*
X462000Y492000D02*
D03*
X573000Y486000D02*
D03*
X546000Y300000D02*
D03*
X513000Y474000D02*
D03*
X468000Y300000D02*
D03*
X450000Y456000D02*
D03*
X393000Y402000D02*
D03*
X372000Y408000D02*
D03*
X450000Y324000D02*
D03*
X429000Y306000D02*
D03*
X462000Y444000D02*
D03*
X537000Y474000D02*
D03*
X591000D02*
D03*
X459000Y462000D02*
D03*
X546000Y492000D02*
D03*
X495000Y354000D02*
D03*
X456000Y300000D02*
D03*
X483000Y330000D02*
D03*
X372000Y420000D02*
D03*
X363000Y450000D02*
D03*
X528000Y480000D02*
D03*
X513000Y342000D02*
D03*
X585000Y450000D02*
D03*
X516000Y468000D02*
D03*
X591000Y450000D02*
D03*
X462000Y456000D02*
D03*
X363000Y306000D02*
D03*
X561000Y402000D02*
D03*
X552000Y492000D02*
D03*
X462000Y300000D02*
D03*
X510000Y360000D02*
D03*
X582000Y456000D02*
D03*
X366000Y372000D02*
D03*
X531000Y318000D02*
D03*
X543000Y342000D02*
D03*
X417000Y366000D02*
D03*
X489000Y354000D02*
D03*
X579000Y462000D02*
D03*
X513000D02*
D03*
X489000Y330000D02*
D03*
X444000Y324000D02*
D03*
X531000Y474000D02*
D03*
X456000Y456000D02*
D03*
X411000Y366000D02*
D03*
X381000Y402000D02*
D03*
X375000Y414000D02*
D03*
X369000Y426000D02*
D03*
X510000Y300000D02*
D03*
X384000Y444000D02*
D03*
X372000Y324000D02*
D03*
X360000Y312000D02*
D03*
X369000Y414000D02*
D03*
X456000Y492000D02*
D03*
X399000Y402000D02*
D03*
X381000Y438000D02*
D03*
X444000Y300000D02*
D03*
X378000Y432000D02*
D03*
X585000Y342000D02*
D03*
Y474000D02*
D03*
X474000Y444000D02*
D03*
X450000Y300000D02*
D03*
X369000Y486000D02*
D03*
X522000Y444000D02*
D03*
X465000Y450000D02*
D03*
X453000Y462000D02*
D03*
X456000Y480000D02*
D03*
X384000Y372000D02*
D03*
X456000Y444000D02*
D03*
X537000Y366000D02*
D03*
X471000Y438000D02*
D03*
X576000Y300000D02*
D03*
X465000Y426000D02*
D03*
X378000Y384000D02*
D03*
X483000Y462000D02*
D03*
X372000Y456000D02*
D03*
X588000Y468000D02*
D03*
X471000Y354000D02*
D03*
X426000Y348000D02*
D03*
X372000Y396000D02*
D03*
X507000Y462000D02*
D03*
X543000Y330000D02*
D03*
X396000Y384000D02*
D03*
X534000Y492000D02*
D03*
X438000D02*
D03*
X540000Y480000D02*
D03*
X381000Y426000D02*
D03*
X369000Y318000D02*
D03*
X519000Y342000D02*
D03*
X360000Y384000D02*
D03*
X399000Y366000D02*
D03*
X393000Y390000D02*
D03*
X369000Y306000D02*
D03*
X438000Y312000D02*
D03*
X474000Y336000D02*
D03*
X375000Y390000D02*
D03*
X474000Y480000D02*
D03*
X360000Y396000D02*
D03*
X573000Y474000D02*
D03*
X528000Y444000D02*
D03*
X543000Y306000D02*
D03*
X375000Y402000D02*
D03*
X474000Y300000D02*
D03*
X549000Y438000D02*
D03*
X498000Y348000D02*
D03*
X390000Y432000D02*
D03*
X363000Y438000D02*
D03*
X474000Y324000D02*
D03*
X504000Y348000D02*
D03*
X450000D02*
D03*
X540000Y492000D02*
D03*
X435000Y306000D02*
D03*
Y486000D02*
D03*
X420000Y492000D02*
D03*
X381000Y366000D02*
D03*
X375000Y438000D02*
D03*
X591000Y366000D02*
D03*
X471000Y486000D02*
D03*
X582000Y312000D02*
D03*
X459000Y486000D02*
D03*
Y330000D02*
D03*
X453000Y486000D02*
D03*
X540000Y324000D02*
D03*
X363000Y402000D02*
D03*
X468000Y444000D02*
D03*
X540000Y348000D02*
D03*
X495000Y450000D02*
D03*
X567000Y402000D02*
D03*
X585000Y366000D02*
D03*
X558000Y492000D02*
D03*
X540000Y300000D02*
D03*
X486000Y348000D02*
D03*
X450000Y480000D02*
D03*
X426000Y324000D02*
D03*
X477000Y438000D02*
D03*
X366000Y300000D02*
D03*
X378000Y396000D02*
D03*
X369000Y378000D02*
D03*
X360000Y444000D02*
D03*
X543000Y318000D02*
D03*
X480000Y444000D02*
D03*
X573000Y306000D02*
D03*
X576000Y456000D02*
D03*
X393000Y378000D02*
D03*
X372000Y432000D02*
D03*
X480000Y480000D02*
D03*
X447000Y462000D02*
D03*
X471000Y450000D02*
D03*
X366000Y444000D02*
D03*
X570000Y468000D02*
D03*
X552000Y324000D02*
D03*
X549000Y486000D02*
D03*
X381000Y450000D02*
D03*
X366000Y420000D02*
D03*
X369000Y462000D02*
D03*
X546000Y324000D02*
D03*
X465000Y438000D02*
D03*
X480000Y348000D02*
D03*
X507000Y474000D02*
D03*
X549000Y450000D02*
D03*
X375000Y426000D02*
D03*
X588000Y360000D02*
D03*
X474000Y348000D02*
D03*
X360000Y480000D02*
D03*
X486000Y456000D02*
D03*
X528000Y324000D02*
D03*
X489000Y450000D02*
D03*
X477000Y318000D02*
D03*
X495000Y474000D02*
D03*
X468000Y492000D02*
D03*
X474000D02*
D03*
X537000Y486000D02*
D03*
X441000Y330000D02*
D03*
X438000Y324000D02*
D03*
X543000Y486000D02*
D03*
X366000Y408000D02*
D03*
X534000Y468000D02*
D03*
X396000Y372000D02*
D03*
X501000Y474000D02*
D03*
X360000Y360000D02*
D03*
X483000Y354000D02*
D03*
X369000Y390000D02*
D03*
Y438000D02*
D03*
X534000Y300000D02*
D03*
X414000Y492000D02*
D03*
X360000Y300000D02*
D03*
X459000Y450000D02*
D03*
X492000Y348000D02*
D03*
X525000Y462000D02*
D03*
X393000Y366000D02*
D03*
X534000Y480000D02*
D03*
X366000Y396000D02*
D03*
X579000Y486000D02*
D03*
X570000Y456000D02*
D03*
X363000Y426000D02*
D03*
X567000Y486000D02*
D03*
X384000Y456000D02*
D03*
X552000Y300000D02*
D03*
X576000Y492000D02*
D03*
X369000Y450000D02*
D03*
X378000Y420000D02*
D03*
X366000Y432000D02*
D03*
X582000Y300000D02*
D03*
X579000Y450000D02*
D03*
X558000Y372000D02*
D03*
X369000Y402000D02*
D03*
X585000Y462000D02*
D03*
X465000D02*
D03*
X381000D02*
D03*
X477000Y354000D02*
D03*
X588000Y312000D02*
D03*
X582000Y480000D02*
D03*
X450000Y408000D02*
D03*
X531000Y342000D02*
D03*
X447000Y486000D02*
D03*
X582000Y468000D02*
D03*
X360000Y420000D02*
D03*
X501000Y438000D02*
D03*
X378000Y408000D02*
D03*
X498000Y444000D02*
D03*
X480000Y336000D02*
D03*
X438000Y480000D02*
D03*
X486000Y336000D02*
D03*
X468000Y456000D02*
D03*
X366000Y480000D02*
D03*
X378000Y348000D02*
D03*
X564000Y300000D02*
D03*
X534000Y348000D02*
D03*
X360000Y456000D02*
D03*
X489000Y342000D02*
D03*
X393000Y438000D02*
D03*
X372000Y384000D02*
D03*
X537000Y450000D02*
D03*
X363000Y414000D02*
D03*
X441000Y318000D02*
D03*
X387000Y450000D02*
D03*
X456000Y408000D02*
D03*
X516000Y456000D02*
D03*
X510000D02*
D03*
X381000Y414000D02*
D03*
X375000Y462000D02*
D03*
X381000Y354000D02*
D03*
X378000Y456000D02*
D03*
X366000Y384000D02*
D03*
X483000Y438000D02*
D03*
X534000Y324000D02*
D03*
X564000Y492000D02*
D03*
X360000Y432000D02*
D03*
X441000Y486000D02*
D03*
X399000Y390000D02*
D03*
X495000Y330000D02*
D03*
X570000Y492000D02*
D03*
X444000Y480000D02*
D03*
X384000Y384000D02*
D03*
X525000Y342000D02*
D03*
X444000Y492000D02*
D03*
X540000Y360000D02*
D03*
X366000Y312000D02*
D03*
X363000Y486000D02*
D03*
D120*
X296800Y425442D02*
D03*
D121*
X391488Y331219D02*
D03*
X387158D02*
D03*
X391488Y335550D02*
D03*
X387158D02*
D03*
X433193Y358016D02*
D03*
X431224Y359984D02*
D03*
X435161D02*
D03*
Y356047D02*
D03*
X431224D02*
D03*
X410220Y435559D02*
D03*
Y439890D02*
D03*
Y444220D02*
D03*
X414551Y435559D02*
D03*
Y439890D02*
D03*
Y444220D02*
D03*
X418882Y435559D02*
D03*
Y439890D02*
D03*
Y444220D02*
D03*
D122*
X301400Y471000D02*
D03*
X347800Y462700D02*
D03*
X462300Y340400D02*
D03*
X463000Y427700D02*
D03*
X483100Y373700D02*
D03*
X485700Y375300D02*
D03*
X488400Y337000D02*
D03*
X492800D02*
D03*
X564980Y483220D02*
D03*
X426400Y332975D02*
D03*
X422575D02*
D03*
X380500Y322800D02*
D03*
X378600Y343700D02*
D03*
X398400Y322800D02*
D03*
X405300Y343900D02*
D03*
X458200Y340400D02*
D03*
X533900Y373800D02*
D03*
X582500Y345100D02*
D03*
Y341100D02*
D03*
Y337300D02*
D03*
X562100Y359400D02*
D03*
X562000Y363200D02*
D03*
X582500Y349700D02*
D03*
X539100Y400600D02*
D03*
X521152Y415352D02*
D03*
X417000Y461000D02*
D03*
X445900Y441200D02*
D03*
X457876Y376468D02*
D03*
X446000Y410800D02*
D03*
X404851Y406049D02*
D03*
X399500Y444800D02*
D03*
X399100Y385000D02*
D03*
D123*
X591000Y492000D02*
D03*
X244759Y492242D02*
D03*
Y304242D02*
D03*
X591000Y304000D02*
D03*
M02*
